<?xml version="1.0" encoding="utf-8"?>
<!-- Generator: Adobe Illustrator 16.0.0, SVG Export Plug-In . SVG Version: 6.00 Build 0)  -->
<!DOCTYPE svg PUBLIC "-//W3C//DTD SVG 1.1//EN" "http://www.w3.org/Graphics/SVG/1.1/DTD/svg11.dtd">
<svg version="1.1" id="Layer_1" xmlns="http://www.w3.org/2000/svg" xmlns:xlink="http://www.w3.org/1999/xlink" x="0px" y="0px"
	 width="2615.441px" height="787.422px" viewBox="0 0 2615.441 787.422" enable-background="new 0 0 2615.441 787.422"
	 xml:space="preserve">
<g>
	<path fill="none" stroke="#000000" stroke-width="1.4173" stroke-miterlimit="10" d="M270.63,39.713H60.797l-29,134.74H299.63
		L270.63,39.713z M241.036,71.026h8.86v8.504h-8.86V71.026z M232.175,85.201h8.861v8.504h-8.861V85.201L232.175,85.201z
		 M214.452,85.201h8.859v8.504h-8.859V85.201z M187.865,71.026h8.861v8.504h-8.861V71.026z M205.589,85.201v8.504h-8.861v-8.504
		H205.589z M195.478,98.252v17.888h-8.504V98.252H195.478z M187.865,93.705h-8.86v-8.504h8.86V93.705z M170.145,71.026h8.86v8.504
		h-8.86V71.026z M152.423,71.026h8.86v8.504h-8.86V71.026z M170.145,85.201v8.504h-8.86v-8.504H170.145z M143.562,85.201h8.861
		v8.504h-8.861V85.201z M144.452,98.252v17.888h-8.505V98.252H144.452z M134.698,71.026h8.861v8.504h-8.861V71.026z M125.837,93.705
		v-8.504h8.86v8.504H125.837z M134.698,120.686v8.504h-8.86v-8.504H134.698L134.698,120.686z M116.979,71.026h8.861v8.504h-8.861
		V71.026z M99.258,71.026h8.861v8.504h-8.861V71.026z M116.979,85.201v8.504h-8.859v-8.504H116.979z M90.397,85.201h8.86v8.504
		h-8.86V85.201z M72.673,85.201h8.861v8.504h-8.861V85.201z M72.673,120.686h8.861v8.504h-8.861V120.686z M90.396,143.362h-8.86
		v-8.504h8.86V143.362z M90.396,79.53h-8.86v-8.504h8.86V79.53z M90.397,120.686h8.86v8.504h-8.86V120.686z M108.119,143.362h-8.861
		v-8.504h8.861V143.362z M108.119,120.686h8.859v8.504h-8.859V120.686z M125.841,143.362h-8.861v-8.504h8.861V143.362z
		 M143.56,143.362h-8.861v-8.504h8.861V143.362z M143.562,120.686h8.861v8.504h-8.861V120.686z M161.283,143.362h-8.86v-8.504h8.86
		V143.362z M161.283,120.686h8.86v8.504h-8.86V120.686z M179.005,143.362h-8.86v-8.504h8.86V143.362z M179.005,120.686h8.86v8.504
		h-8.86V120.686z M196.728,143.362h-8.86v-8.504h8.86V143.362z M196.728,120.686h8.861v8.504h-8.861V120.686z M214.45,143.362
		h-8.861v-8.504h8.86L214.45,143.362L214.45,143.362z M214.45,79.53h-8.861v-8.504h8.86L214.45,79.53L214.45,79.53z
		 M214.452,120.686h8.859v8.504h-8.859V120.686z M232.174,143.362h-8.861v-8.504h8.861V143.362L232.174,143.362z M232.174,79.53
		h-8.861v-8.504h8.861V79.53L232.174,79.53z M232.175,120.686h8.861v8.504h-8.861V120.686L232.175,120.686z M249.897,143.362h-8.86
		v-8.504h8.86V143.362z M258.755,129.188h-8.861v-8.504h8.861V129.188z M258.755,93.705h-8.861v-8.504h8.861V93.705z"/>
	<g>
		<circle fill="none" stroke="#ED1C24" stroke-width="1.4173" stroke-miterlimit="10" cx="66.297" cy="52.863" r="3.25"/>
		<circle fill="none" stroke="#ED1C24" stroke-width="1.4173" stroke-miterlimit="10" cx="60.342" cy="80.577" r="3.25"/>
		<circle fill="none" stroke="#ED1C24" stroke-width="1.4173" stroke-miterlimit="10" cx="54.387" cy="108.292" r="3.25"/>
		<circle fill="none" stroke="#ED1C24" stroke-width="1.4173" stroke-miterlimit="10" cx="48.432" cy="136.005" r="3.25"/>
		<circle fill="none" stroke="#ED1C24" stroke-width="1.4173" stroke-miterlimit="10" cx="42.477" cy="163.72" r="3.25"/>
	</g>
	<g>
		<circle fill="none" stroke="#ED1C24" stroke-width="1.4173" stroke-miterlimit="10" cx="265.13" cy="52.863" r="3.25"/>
		<circle fill="none" stroke="#ED1C24" stroke-width="1.4173" stroke-miterlimit="10" cx="271.085" cy="80.577" r="3.25"/>
		<circle fill="none" stroke="#ED1C24" stroke-width="1.4173" stroke-miterlimit="10" cx="277.04" cy="108.292" r="3.25"/>
		<circle fill="none" stroke="#ED1C24" stroke-width="1.4173" stroke-miterlimit="10" cx="282.995" cy="136.005" r="3.25"/>
		<circle fill="none" stroke="#ED1C24" stroke-width="1.4173" stroke-miterlimit="10" cx="288.95" cy="163.72" r="3.25"/>
	</g>
</g>
<path fill="none" stroke="#000000" stroke-width="1.4173" stroke-miterlimit="10" d="M159.358,206.467
	c-31.311,0-56.692,25.384-56.692,56.693c0,31.311,25.383,56.692,56.692,56.692v-21.17h8.504v-8.504h-8.504V234.85h8.504v-8.504
	h-8.504V206.467z"/>
<path fill="none" stroke="#000000" stroke-width="1.4173" stroke-miterlimit="10" d="M91.325,206.467
	c-31.313,0-56.693,25.384-56.693,56.693c0,31.311,25.383,56.692,56.693,56.692V284.51h8.504v-8.505h-8.504v-27.02h8.504v-8.504
	h-8.504V206.467z"/>
<path fill="none" stroke="#000000" stroke-width="1.4173" stroke-miterlimit="10" d="M1532.888,204.083
	c-31.312,0-56.692,25.383-56.692,56.692c0,31.311,25.384,56.693,56.692,56.693V296.3h8.505v-8.504h-8.505v-55.328h8.505v-8.504
	h-8.505V204.083z"/>
<path fill="none" stroke="#000000" stroke-width="1.4173" stroke-miterlimit="10" d="M1517.155,358.368
	c0-31.312-25.384-56.691-56.692-56.691c-31.313,0-56.693,25.382-56.693,56.691h35.345v8.504h8.505v-8.504h27.02v8.504h8.504v-8.504
	H1517.155L1517.155,358.368z"/>
<path fill="none" stroke="#000000" stroke-width="1.4173" stroke-miterlimit="10" d="M1617.725,295.323l-5.066,19.057l8.227,2.162
	l-2.162,8.225l-8.226-2.161l-14.149,53.53l8.224,2.159l-2.16,8.229l-8.228-2.163l-5.281,20.625
	c-30.28-7.959-48.373-38.962-40.416-69.243c4.391-16.695,15.779-29.688,30.193-36.649l-4.934-10.42
	c8.99-4.437,19.109-6.929,29.813-6.929c5.988,0,11.795,0.78,17.322,2.244L1617.725,295.323"/>
<path fill="none" stroke="#000000" stroke-width="1.4173" stroke-miterlimit="10" d="M1471.393,249.661v-8.504h-8.505v-27.019h8.505
	v-8.504h-8.505v-22.679c-25.049,0-45.354,20.306-45.354,45.354s20.308,45.354,45.354,45.354V249.66L1471.393,249.661
	L1471.393,249.661z"/>
<path fill="none" stroke="#000000" stroke-width="1.4173" stroke-miterlimit="10" d="M1658.888,252.494v-8.504h-8.505v-27.019h8.505
	v-8.504h-8.505V185.79c-25.049,0-45.354,20.307-45.354,45.354s20.307,45.354,45.354,45.354v-24.006h8.505V252.494z"/>
<path fill="none" stroke="#000000" stroke-width="1.4173" stroke-miterlimit="10" d="M1144.628,171.618
	c-10.646,0-20.722,2.442-29.696,6.795l1.729,3.578c8.453-4.1,17.94-6.399,27.968-6.399l-0.209,2.323
	c-17.191,0-32.744,7.019-43.957,18.338v87.07c6.381,6.442,14.168,11.481,22.86,14.638l1.459-4.815l5.271,1.597l9.082-34.232
	l8.222,2.179l2.179-8.221l-8.222-2.178l6.92-26.117l8.222,2.179l2.179-8.222l-8.222-2.178l10.056-37.922l0.632-2.295l1.021-3.841
	C1156.535,172.415,1150.677,171.618,1144.628,171.618z"/>
<path fill="none" stroke="#000000" stroke-width="1.4173" stroke-miterlimit="10" d="M979.784,269.15
	c6.382,6.441,14.17,11.48,22.862,14.637l1.457-4.814l5.272,1.597l9.084-34.232l8.221,2.179l2.179-8.221l-8.222-2.179l6.92-26.116
	l8.22,2.179l2.181-8.222l-8.222-2.179l10.054-37.921l0.634-2.295l1.02-3.841c-5.582-1.479-11.44-2.275-17.488-2.275
	c-10.646,0-20.723,2.443-29.698,6.795l1.729,3.578c8.453-4.099,17.939-6.398,27.967-6.398l-0.209,2.323
	c-17.192,0-32.743,7.019-43.957,18.338l-0.002,16.385H928.76l-188.539,1.818v8.504h104.334v8.504H740.219v8.504l188.039,1.817
	h51.524L979.784,269.15z"/>
<path fill="none" stroke="#000000" stroke-width="1.4173" stroke-miterlimit="10" d="M1214.048,235.428l0.765-2.298l1.021-3.841
	c-5.582-1.479-11.44-2.274-17.489-2.274c-10.646,0-20.722,2.442-29.697,6.795l1.729,3.578c8.453-4.1,17.94-6.399,27.968-6.399
	l-0.351,2.323c-17.192,0-32.744,7.019-43.957,18.338v87.071c6.397,6.459,14.211,11.51,22.933,14.663l1.467-4.844l5.266,1.595
	l5.39-20.529l8.222,2.18l2.179-8.222l-8.222-2.178l14.171-53.483l8.221,2.18l2.179-8.222l-8.222-2.178L1214.048,235.428z"/>
<path fill="none" stroke="#000000" stroke-width="1.4173" stroke-miterlimit="10" d="M613.803,230.513
	c10.646,0,20.721,2.442,29.699,6.795l-1.732,3.578c-8.453-4.1-17.938-6.399-27.965-6.399l0.209,2.323
	c17.192,0,32.744,7.019,43.957,18.338v87.071c-6.381,6.442-14.17,11.48-22.863,14.636l-1.457-4.814l-5.271,1.598l-9.084-34.233
	l-8.222,2.179l-2.18-8.221l8.223-2.178l-6.92-26.117l-8.221,2.179l-2.18-8.222l8.221-2.177l-10.053-37.922l-0.633-2.295
	l-1.021-3.841C601.895,231.31,607.756,230.513,613.803,230.513z"/>
<path fill="none" stroke="#000000" stroke-width="1.4173" stroke-miterlimit="10" d="M528.229,200.101l-0.765-2.297l-1.021-3.842
	c5.582-1.479,11.44-2.274,17.49-2.274c10.646,0,20.721,2.442,29.696,6.795l-1.729,3.578c-8.452-4.1-17.939-6.398-27.967-6.398
	l0.351,2.322c17.192,0,32.744,7.019,43.957,18.338v87.071c-6.396,6.459-14.211,11.51-22.933,14.663l-1.467-4.843l-5.266,1.594
	l-5.389-20.529l-8.221,2.18l-2.18-8.222l8.223-2.178l-14.171-53.482l-8.223,2.179l-2.179-8.221l8.223-2.179L528.229,200.101z"/>
<path fill="none" stroke="#000000" stroke-width="1.4173" stroke-miterlimit="10" d="M727.943,343.853
	c-6.397,6.459-14.211,11.51-22.934,14.663l-1.467-4.843l-5.266,1.594l-5.389-20.529l-8.222,2.181l-2.179-8.223l8.222-2.178
	l-14.17-53.482l-8.222,2.179l-2.178-8.221l8.221-2.179l-6.438-24.255l-0.765-2.297l-1.021-3.842
	c5.582-1.479,11.441-2.274,17.49-2.274c10.646,0,20.721,2.442,29.697,6.795l-1.73,3.578c-8.453-4.1-17.939-6.398-27.967-6.398
	l0.352,2.322c17.191,0,32.742,7.019,43.957,18.338l-0.004,18.204h239.564v25.513H727.941L727.943,343.853z"/>
<path fill="none" stroke="#000000" stroke-width="1.4173" stroke-miterlimit="10" d="M1015.986,376.798
	c6.396,6.459,14.211,11.51,22.933,14.663l1.465-4.844l5.267,1.595l5.39-20.529l8.22,2.179l2.182-8.221l-8.223-2.178l14.172-53.483
	l8.221,2.179l2.178-8.221l-8.221-2.179l6.438-24.255l0.764-2.297l1.021-3.842c-5.582-1.479-11.441-2.274-17.489-2.274
	c-10.646,0-20.722,2.442-29.698,6.795l1.73,3.578c8.453-4.1,17.938-6.398,27.966-6.398l-0.349,2.323
	c-17.192,0-32.744,7.018-43.957,18.338v18.204h-239.57v25.512h239.563V376.798L1015.986,376.798z"/>
<path fill="none" stroke="#000000" stroke-width="1.4173" stroke-miterlimit="10" d="M1263.604,178.562
	c-10.646,0-20.721,2.442-29.697,6.795l1.73,3.578c8.453-4.1,17.938-6.398,27.965-6.398l-0.209,2.322
	c-16.512,0-31.496,6.483-42.59,17.022l8.824,7.305v5.701h13.766v8.549h-13.766v6.75h-10.191v60.082
	c6.381,6.441,14.17,11.48,22.863,14.636l1.457-4.813l5.271,1.597l9.084-34.232l8.222,2.178l2.179-8.22l-8.222-2.179l6.921-26.117
	l8.219,2.179l2.182-8.222l-8.223-2.178l10.055-37.921l0.633-2.295l1.021-3.842C1275.513,179.358,1269.65,178.562,1263.604,178.562z"
	/>
<path fill="none" stroke="#000000" stroke-width="1.4173" stroke-miterlimit="10" d="M1397.784,260.572
	c-34.185,0-61.894,27.71-61.894,61.893c0,26.77,16.99,49.565,40.775,58.196l1.479-4.858l5.271,1.599l9.082-34.233l8.223,2.178
	l2.178-8.22l-8.222-2.178l6.921-26.117l8.221,2.178l2.18-8.221l-8.223-2.178l10.057-37.922l0.631-2.295l1.021-3.842
	c-5.582-1.479-11.441-2.274-17.49-2.274c-10.646,0-20.721,2.442-29.697,6.795l1.73,3.578c8.453-4.1,17.939-6.398,27.967-6.398
	L1397.784,260.572z"/>
<path fill="none" stroke="#000000" stroke-width="1.4173" stroke-miterlimit="10" d="M181.378,214.308l5.065,19.056l-8.223,2.162
	l2.16,8.225l8.227-2.162l14.15,53.53l-8.223,2.159l2.159,8.229l8.226-2.163l5.281,20.625c30.282-7.959,48.375-38.963,40.416-69.243
	c-4.388-16.696-15.779-29.688-30.193-36.649l4.932-10.421c-8.989-4.436-19.11-6.928-29.813-6.928c-5.988,0-11.795,0.78-17.322,2.244
	L181.378,214.308"/>
<path fill="none" stroke="#000000" stroke-width="1.4173" stroke-miterlimit="10" d="M285.706,201.611
	c34.183,0,61.892,27.709,61.892,61.893c0,26.769-16.99,49.564-40.777,58.196l-1.478-4.857l-5.272,1.597l-9.083-34.232l-8.221,2.179
	l-2.178-8.221l8.221-2.179l-6.92-26.116l-8.219,2.178l-2.181-8.22l8.222-2.179l-10.054-37.921l-0.633-2.295l-1.02-3.841
	c5.582-1.479,11.442-2.275,17.49-2.275c10.646,0,20.721,2.443,29.697,6.795l-1.73,3.578c-8.453-4.1-17.939-6.398-27.965-6.398
	L285.706,201.611z"/>
<path fill="none" stroke="#000000" stroke-width="1.4173" stroke-miterlimit="10" d="M461.602,202.271
	c34.185,0,61.894,27.709,61.894,61.893c0,26.769-16.991,49.564-40.776,58.195l-1.479-4.856l-5.272,1.597l-9.082-34.233l-8.222,2.179
	l-2.178-8.221l8.221-2.178l-6.92-26.117l-8.221,2.179l-2.18-8.222l8.223-2.178l-10.057-37.921l-0.631-2.296l-1.021-3.841
	c5.582-1.479,11.441-2.274,17.49-2.274c10.646,0,20.721,2.442,29.696,6.795l-1.729,3.578c-8.453-4.1-17.939-6.398-27.967-6.398
	L461.602,202.271z"/>
<path fill="none" stroke="#000000" stroke-width="1.4173" stroke-miterlimit="10" d="M354.609,199.871l-0.631-2.295l-1.021-3.841
	c5.582-1.479,11.44-2.274,17.489-2.274c10.646,0,20.722,2.442,29.697,6.795l-1.729,3.578c-8.453-4.101-17.94-6.399-27.968-6.399
	l0.209,2.323c20.703,0,39.019,10.175,50.255,25.784l-4.763,2.882l4.355,7.304l4.893-2.959c3.934,7.44,6.389,15.777,6.988,24.629
	h-6.023v8.504h6.033c-0.566,8.347-2.781,16.236-6.332,23.35l-5.108-3.069l-4.392,7.282l5.184,3.114
	c-7.253,10.591-17.706,18.817-29.975,23.271l-1.479-4.859l-5.272,1.6l-5.314-20.533l-8.223,2.18l-2.178-8.221l8.221-2.179
	l-14.17-53.483l-8.222,2.18l-2.178-8.221l8.222-2.179L354.609,199.871z"/>
<path fill="none" stroke="#000000" stroke-width="1.4173" stroke-miterlimit="10" d="M1333.957,248.636l0.634-2.296l1.021-3.84
	c-5.582-1.479-11.442-2.274-17.49-2.274c-10.646,0-20.721,2.442-29.698,6.795l1.731,3.578c8.452-4.101,17.938-6.399,27.965-6.399
	l-0.209,2.323c-20.7,0-39.017,10.174-50.252,25.784l4.761,2.882l-4.354,7.304l-4.893-2.959c-3.937,7.44-6.392,15.777-6.99,24.629
	h6.025v8.504h-6.033c0.566,8.347,2.781,16.235,6.33,23.35l5.108-3.07l4.392,7.283l-5.183,3.114
	c7.255,10.59,17.705,18.817,29.976,23.27l1.479-4.857l5.271,1.598l5.317-20.533l8.22,2.181l2.18-8.222l-8.221-2.178l14.17-53.484
	l8.223,2.181l2.179-8.222l-8.222-2.178L1333.957,248.636z"/>
<polygon fill="none" stroke="#000000" stroke-width="1.4173" stroke-miterlimit="10" points="1561.248,238.897 1558.984,234.979 
	1561.248,231.06 1565.771,231.06 1568.035,234.979 1565.771,238.897 "/>
<polygon fill="none" stroke="#000000" stroke-width="1.4173" stroke-miterlimit="10" points="1571.434,238.897 1569.168,234.979 
	1571.434,231.06 1575.957,231.06 1578.22,234.979 1575.957,238.897 "/>
<polygon fill="none" stroke="#000000" stroke-width="1.4173" stroke-miterlimit="10" points="1581.484,238.897 1579.223,234.979 
	1581.484,231.06 1586.011,231.06 1588.271,234.979 1586.011,238.897 "/>
<polygon fill="none" stroke="#000000" stroke-width="1.4173" stroke-miterlimit="10" points="1561.248,248.523 1558.984,244.604 
	1561.248,240.686 1565.771,240.686 1568.035,244.604 1565.771,248.523 "/>
<polygon fill="none" stroke="#000000" stroke-width="1.4173" stroke-miterlimit="10" points="1571.434,248.523 1569.168,244.604 
	1571.434,240.686 1575.957,240.686 1578.22,244.604 1575.957,248.523 "/>
<polygon fill="none" stroke="#000000" stroke-width="1.4173" stroke-miterlimit="10" points="1581.484,248.523 1579.223,244.604 
	1581.484,240.686 1586.011,240.686 1588.271,244.604 1586.011,248.523 "/>
<g>
	<polygon fill="none" stroke="#000000" stroke-width="1.4173" stroke-miterlimit="10" points="884.922,175.674 887.232,40.818 
		1109.679,41.333 1136.65,144.079 918.827,144.079 893.398,175.674 	"/>
	<path fill="none" stroke="#000000" stroke-width="1.4173" stroke-miterlimit="10" d="M876.85,40.818H763.059L730.949,175.16
		h149.496L876.85,40.818z M868.02,95.083h-14.834c-1.933,0-3.5-1.566-3.5-3.5s1.567-3.5,3.5-3.5h14.834c1.935,0,3.5,1.566,3.5,3.5
		S869.951,95.083,868.02,95.083z"/>
</g>
<g>
	<polygon fill="none" stroke="#000000" stroke-width="1.4173" stroke-miterlimit="10" points="572.659,175.674 570.35,40.818 
		347.902,41.333 320.932,144.079 538.754,144.079 564.184,175.674 	"/>
	<path fill="none" stroke="#000000" stroke-width="1.4173" stroke-miterlimit="10" d="M694.523,40.818H580.732l-3.598,134.342
		h149.496L694.523,40.818z M604.396,95.083h-14.834c-1.935,0-3.5-1.566-3.5-3.5s1.565-3.5,3.5-3.5h14.834c1.933,0,3.5,1.566,3.5,3.5
		S606.328,95.083,604.396,95.083z"/>
</g>
<g>
	<polygon fill="none" stroke="#000000" stroke-width="1.4173" stroke-miterlimit="10" points="2278.556,146.105 2254.093,39.317 
		2040.516,39.317 2016.052,146.105 	"/>
	<g>
		<circle fill="none" stroke="#ED1C24" stroke-width="1.4173" stroke-miterlimit="10" cx="2047.888" cy="51.425" r="3.25"/>
		<circle fill="none" stroke="#ED1C24" stroke-width="1.4173" stroke-miterlimit="10" cx="2041.934" cy="79.138" r="3.25"/>
		<circle fill="none" stroke="#ED1C24" stroke-width="1.4173" stroke-miterlimit="10" cx="2035.979" cy="106.852" r="3.25"/>
		<circle fill="none" stroke="#ED1C24" stroke-width="1.4173" stroke-miterlimit="10" cx="2030.021" cy="134.564" r="3.25"/>
		<circle fill="none" stroke="#ED1C24" stroke-width="1.4173" stroke-miterlimit="10" cx="2246.721" cy="51.425" r="3.25"/>
		<circle fill="none" stroke="#ED1C24" stroke-width="1.4173" stroke-miterlimit="10" cx="2252.675" cy="79.138" r="3.25"/>
		<circle fill="none" stroke="#ED1C24" stroke-width="1.4173" stroke-miterlimit="10" cx="2258.629" cy="106.852" r="3.25"/>
		<circle fill="none" stroke="#ED1C24" stroke-width="1.4173" stroke-miterlimit="10" cx="2264.584" cy="134.564" r="3.25"/>
	</g>
</g>
<g>
	<path fill="none" stroke="#000000" stroke-width="1.4173" stroke-miterlimit="10" d="M2533.446,39.317h-213.578l-24.463,106.788
		h262.504L2533.446,39.317z M2430.908,100.731h-8.504V86.559h8.504V100.731z"/>
	<g>
		<circle fill="none" stroke="#ED1C24" stroke-width="1.4173" stroke-miterlimit="10" cx="2329.222" cy="51.425" r="3.25"/>
		<circle fill="none" stroke="#ED1C24" stroke-width="1.4173" stroke-miterlimit="10" cx="2323.268" cy="79.138" r="3.25"/>
		<circle fill="none" stroke="#ED1C24" stroke-width="1.4173" stroke-miterlimit="10" cx="2317.313" cy="106.852" r="3.25"/>
		<circle fill="none" stroke="#ED1C24" stroke-width="1.4173" stroke-miterlimit="10" cx="2311.355" cy="134.564" r="3.25"/>
		<circle fill="none" stroke="#ED1C24" stroke-width="1.4173" stroke-miterlimit="10" cx="2528.056" cy="51.425" r="3.25"/>
		<circle fill="none" stroke="#ED1C24" stroke-width="1.4173" stroke-miterlimit="10" cx="2534.011" cy="79.138" r="3.25"/>
		<circle fill="none" stroke="#ED1C24" stroke-width="1.4173" stroke-miterlimit="10" cx="2539.966" cy="106.852" r="3.25"/>
		<circle fill="none" stroke="#ED1C24" stroke-width="1.4173" stroke-miterlimit="10" cx="2545.92" cy="134.564" r="3.25"/>
	</g>
</g>
<path fill="none" stroke="#000000" stroke-width="1.4173" stroke-miterlimit="10" d="M2320.781,279.335
	c-14.09,0-25.512,11.422-25.512,25.513c0,14.09,11.422,25.512,25.512,25.512s25.513-11.422,25.513-25.512
	C2346.293,290.757,2334.871,279.335,2320.781,279.335z M2325.029,319.021h-8.504v-14.174h8.504V319.021z"/>
<polygon fill="none" stroke="#ED1C24" stroke-width="1.4173" stroke-miterlimit="10" points="2302.357,301.254 2300.939,298.799 
	2302.357,296.343 2305.191,296.343 2306.609,298.799 2305.191,301.254 "/>
<polygon fill="none" stroke="#ED1C24" stroke-width="1.4173" stroke-miterlimit="10" points="2330.702,290.294 2329.284,287.839 
	2330.702,285.384 2333.537,285.384 2334.955,287.839 2333.537,290.294 "/>
<polygon fill="none" stroke="#ED1C24" stroke-width="1.4173" stroke-miterlimit="10" points="2336.373,301.633 2334.955,299.177 
	2336.373,296.722 2339.207,296.722 2340.625,299.177 2339.207,301.633 "/>
<polygon fill="none" stroke="#ED1C24" stroke-width="1.4173" stroke-miterlimit="10" points="2319.365,287.459 2317.947,285.004 
	2319.365,282.549 2322.198,282.549 2323.616,285.004 2322.198,287.459 "/>
<polygon fill="none" stroke="#ED1C24" stroke-width="1.4173" stroke-miterlimit="10" points="2308.027,290.294 2306.609,287.839 
	2308.027,285.384 2310.861,285.384 2312.279,287.839 2310.861,290.294 "/>
<polygon fill="none" stroke="#000000" stroke-width="1.4173" stroke-miterlimit="10" points="2419.496,327.7 2419.496,324.866 
	2416.662,324.866 2416.662,327.7 2402.488,327.7 2402.488,322.029 2399.654,322.029 2396.818,319.195 2380.98,319.195 
	2381.379,320.859 2352.365,327.733 2355.635,341.521 2384.682,334.639 2385.059,336.204 2393.984,336.204 2393.984,339.038 
	2402.488,339.038 2402.488,336.204 2416.662,336.204 2416.662,339.038 2419.496,339.038 2419.496,336.204 2430.836,336.204 
	2430.836,327.7 "/>
<path fill="none" stroke="#000000" stroke-width="1.4173" stroke-miterlimit="10" d="M2320.781,338.697
	c-12.522,0-22.676,10.153-22.676,22.68c0,12.523,10.15,22.678,22.676,22.678c12.524,0,22.679-10.153,22.679-22.678
	C2343.459,348.851,2333.307,338.697,2320.781,338.697z M2320.777,345.392c1,0,1.812,0.812,1.812,1.812s-0.812,1.813-1.812,1.813
	s-1.813-0.813-1.813-1.813S2319.777,345.392,2320.777,345.392z M2325.029,367.047h-8.504v-14.175h8.504V367.047z"/>
<g>
	<path fill="none" stroke="#000000" stroke-width="1.4173" stroke-miterlimit="10" d="M2534.723,157.444h-213.578l-24.463,106.788
		h262.504L2534.723,157.444z M2365.811,218.858h-8.504v-14.174h8.504V218.858z"/>
	<g>
		<circle fill="none" stroke="#ED1C24" stroke-width="1.4173" stroke-miterlimit="10" cx="2330.498" cy="169.552" r="3.25"/>
		<circle fill="none" stroke="#ED1C24" stroke-width="1.4173" stroke-miterlimit="10" cx="2324.543" cy="197.265" r="3.25"/>
		<circle fill="none" stroke="#ED1C24" stroke-width="1.4173" stroke-miterlimit="10" cx="2318.588" cy="224.979" r="3.25"/>
		<circle fill="none" stroke="#ED1C24" stroke-width="1.4173" stroke-miterlimit="10" cx="2312.633" cy="252.691" r="3.25"/>
		<circle fill="none" stroke="#ED1C24" stroke-width="1.4173" stroke-miterlimit="10" cx="2529.332" cy="169.552" r="3.25"/>
		<circle fill="none" stroke="#ED1C24" stroke-width="1.4173" stroke-miterlimit="10" cx="2535.287" cy="197.265" r="3.25"/>
		<circle fill="none" stroke="#ED1C24" stroke-width="1.4173" stroke-miterlimit="10" cx="2541.241" cy="224.979" r="3.25"/>
		<circle fill="none" stroke="#ED1C24" stroke-width="1.4173" stroke-miterlimit="10" cx="2547.197" cy="252.691" r="3.25"/>
	</g>
</g>
<path fill="none" stroke="#000000" stroke-width="1.4173" stroke-miterlimit="10" d="M1729.34,197.533
	c-3.992-6.635-11.264-11.072-19.57-11.072c-8.356,0-15.668,4.494-19.643,11.197l-11.398,26.65v19.911
	c0,9.906,8.031,17.938,17.938,17.938h26.492c9.907,0,17.938-8.03,17.938-17.938v-18.438L1729.34,197.533z M1719.836,223.143h-8.504
	v1.817h-8.504v-1.817h-8.505V197.63h8.505v-1.817h8.504v1.817h8.504V223.143z"/>
<path fill="none" stroke="#000000" stroke-width="1.4173" stroke-miterlimit="10" d="M1729.34,277.071
	c-3.992-6.634-11.264-11.071-19.57-11.071c-8.356,0-15.668,4.494-19.643,11.196l-11.398,26.651v19.911
	c0,9.907,8.031,17.938,17.938,17.938h26.492c9.907,0,17.938-8.028,17.938-17.938V305.32L1729.34,277.071z M1719.836,302.682h-8.504
	v1.817h-8.504v-1.817h-8.505V277.17h8.505v-1.817h8.504v1.817h8.504V302.682z"/>
<path fill="none" stroke="#000000" stroke-width="1.4173" stroke-miterlimit="10" d="M1729.34,356.441
	c-3.992-6.634-11.264-11.071-19.57-11.071c-8.356,0-15.668,4.493-19.643,11.196l-11.398,26.651v19.911
	c0,9.906,8.031,17.938,17.938,17.938h26.492c9.907,0,17.938-8.028,17.938-17.938V384.69L1729.34,356.441z M1719.836,382.052h-8.504
	v1.817h-8.504v-1.817h-8.505V356.54h8.505v-1.817h8.504v1.817h8.504V382.052z"/>
<path fill="none" stroke="#000000" stroke-width="1.4173" stroke-miterlimit="10" d="M1800.201,199.697
	c-3.992-6.634-11.266-11.071-19.57-11.071c-8.359,0-15.668,4.494-19.643,11.196l-11.398,26.651v19.91
	c0,9.907,8.029,17.938,17.938,17.938h26.491c9.908,0,17.938-8.029,17.938-17.938v-18.438L1800.201,199.697z M1790.697,225.308
	h-8.504v1.817h-8.504v-1.817h-8.504v-25.513h8.504v-1.817h8.504v1.817h8.504V225.308z"/>
<path fill="none" stroke="#000000" stroke-width="1.4173" stroke-miterlimit="10" d="M1800.201,279.236
	c-3.992-6.634-11.266-11.071-19.57-11.071c-8.359,0-15.668,4.494-19.643,11.196l-11.398,26.651v19.911
	c0,9.906,8.029,17.938,17.938,17.938h26.491c9.908,0,17.938-8.029,17.938-17.938v-18.438L1800.201,279.236z M1790.697,304.847
	h-8.504v1.817h-8.504v-1.817h-8.504v-25.513h8.504v-1.817h8.504v1.817h8.504V304.847z"/>
<path fill="none" stroke="#000000" stroke-width="1.4173" stroke-miterlimit="10" d="M1800.201,358.606
	c-3.992-6.634-11.266-11.071-19.57-11.071c-8.359,0-15.668,4.493-19.643,11.196l-11.398,26.651v19.912
	c0,9.906,8.029,17.938,17.938,17.938h26.491c9.908,0,17.938-8.029,17.938-17.938v-18.438L1800.201,358.606z M1790.697,384.218
	h-8.504v1.817h-8.504v-1.817h-8.504v-25.513h8.504v-1.817h8.504v1.817h8.504V384.218z"/>
<polygon fill="none" stroke="#000000" stroke-width="1.4173" stroke-miterlimit="10" points="34.632,614.901 65.813,487.342 
	122.237,487.342 122.237,614.901 108.306,614.901 108.306,623.405 91.298,623.405 91.298,614.901 "/>
<polygon fill="none" stroke="#000000" stroke-width="1.4173" stroke-miterlimit="10" points="41.836,758.466 73.017,630.904 
	129.441,630.904 129.441,758.466 115.51,758.466 115.51,766.969 98.502,766.969 98.502,758.466 "/>
<polygon fill="none" stroke="#000000" stroke-width="1.4173" stroke-miterlimit="10" points="140.603,610.988 171.783,483.43 
	228.208,483.43 228.208,610.988 214.276,610.988 214.276,619.492 197.269,619.492 197.269,610.988 "/>
<polygon fill="none" stroke="#000000" stroke-width="1.4173" stroke-miterlimit="10" points="140.603,758.486 171.783,630.928 
	228.208,630.928 228.208,758.486 214.276,758.486 214.276,766.99 197.269,766.99 197.269,758.486 "/>
<polygon fill="none" stroke="#000000" stroke-width="1.4173" stroke-miterlimit="10" points="286.32,715.969 278.094,715.969 
	278.094,724.472 261.086,724.472 261.086,715.969 249.748,715.969 270.535,630.928 281.633,630.928 "/>
<polygon fill="none" stroke="#000000" stroke-width="1.4173" stroke-miterlimit="10" points="325.02,715.969 316.792,715.969 
	316.792,724.472 299.784,724.472 299.784,715.969 288.446,715.969 309.232,630.928 320.331,630.928 "/>
<polygon fill="none" stroke="#000000" stroke-width="1.4173" stroke-miterlimit="10" points="286.32,619.945 278.094,619.945 
	278.094,628.449 261.086,628.449 261.086,619.945 249.748,619.945 270.535,534.905 281.633,534.905 "/>
<polygon fill="none" stroke="#000000" stroke-width="1.4173" stroke-miterlimit="10" points="325.02,619.945 316.792,619.945 
	316.792,628.449 299.784,628.449 299.784,619.945 288.446,619.945 309.232,534.905 320.331,534.905 "/>
<polygon fill="none" stroke="#000000" stroke-width="1.4173" stroke-miterlimit="10" points="1311.325,405.73 1199.453,405.73 
	1199.453,397.226 1148.431,397.226 1148.431,405.73 969.388,405.73 955.657,456.762 947.446,454.553 942.8,471.821 951.012,474.03 
	937.767,523.268 947.169,533.29 986.854,533.29 986.854,541.793 1176.808,541.793 1176.808,533.317 1185.281,533.317 
	1185.281,533.29 1185.146,490.77 1270.319,490.667 1270.319,499.274 1298.667,499.274 1298.667,490.633 1335.534,490.588 "/>
<polygon fill="none" stroke="#000000" stroke-width="1.4173" stroke-miterlimit="10" points="1336.662,628.267 1344.875,626.058 
	1340.229,608.79 1332.018,610.999 1318.286,559.965 1139.243,559.965 1139.243,551.461 1088.221,551.461 1088.221,559.965 
	976.35,559.965 952.141,644.823 989.008,644.87 989.008,653.51 1017.354,653.51 1017.354,644.901 1102.529,645.004 
	1102.395,687.524 1102.395,687.554 1110.75,687.554 1110.75,696.028 1300.818,696.028 1300.818,687.524 1340.505,687.524 
	1349.908,677.502 "/>
<g>
	<path fill="none" stroke="#000000" stroke-width="1.4173" stroke-miterlimit="10" d="M1512.902,404.061
		c-82.19,0-148.819,66.628-148.819,148.818c0,82.188,66.629,148.816,148.819,148.816c82.188,0,148.817-66.628,148.817-148.816
		C1661.721,470.688,1595.092,404.061,1512.902,404.061z M1504.582,457.124l1.821,16.907l-8.455,0.912l-1.821-16.91L1504.582,457.124
		z M1434.195,465.295l1.822,16.91l-8.455,0.912l-1.822-16.91L1434.195,465.295z M1434.195,640.461l-8.455-0.909l1.822-16.91
		l8.455,0.912L1434.195,640.461z M1504.582,648.635l-8.455-0.911l1.821-16.91l8.455,0.912L1504.582,648.635z M1603.609,582.642
		h-189.92v-8.504h189.92V582.642z M1603.609,531.618h-189.92v-8.505h189.92V531.618z"/>
	
		<line fill="none" stroke="#000000" stroke-width="1.4173" stroke-miterlimit="10" x1="1432.8" y1="555.26" x2="1432.8" y2="549.59"/>
	
		<line fill="none" stroke="#000000" stroke-width="1.4173" stroke-miterlimit="10" x1="1593.029" y1="555.258" x2="1593.029" y2="549.59"/>
</g>
<path fill="none" stroke="#000000" stroke-width="1.4173" stroke-miterlimit="10" d="M278.412,330.358
	c-43.836,0-79.371,35.535-79.371,79.37s35.535,79.37,79.371,79.37c43.834,0,79.367-35.535,79.367-79.37
	S322.246,330.358,278.412,330.358z M278.412,467.139c-31.707,0-57.41-25.703-57.41-57.41s25.703-57.41,57.41-57.41
	c31.706,0,57.408,25.703,57.408,57.41S310.118,467.139,278.412,467.139z"/>
<g>
	<circle fill="none" stroke="#000000" stroke-width="1.4173" stroke-miterlimit="10" cx="2188.965" cy="474.925" r="45.354"/>
	<path fill="none" stroke="#000000" stroke-width="1.4173" stroke-miterlimit="10" d="M2188.965,418.231
		c-31.313,0-56.693,25.383-56.693,56.691c0,31.312,25.384,56.692,56.693,56.692c31.313,0,56.693-25.383,56.693-56.692
		C2245.657,443.614,2220.275,418.231,2188.965,418.231z M2188.965,523.113c-26.613,0-48.188-21.573-48.188-48.188
		c0-26.613,21.574-48.188,48.188-48.188s48.188,21.574,48.188,48.188C2237.153,501.54,2215.578,523.113,2188.965,523.113z"/>
	<polygon fill="none" stroke="#ED1C24" stroke-width="1.4173" stroke-miterlimit="10" points="2187.798,424.569 2186.629,422.547 
		2187.798,420.524 2190.132,420.524 2191.3,422.547 2190.132,424.569 	"/>
	<polygon fill="none" stroke="#ED1C24" stroke-width="1.4173" stroke-miterlimit="10" points="2148.871,444.437 2146.563,444.086 
		2145.709,441.913 2147.166,440.088 2149.477,440.437 2150.328,442.609 	"/>
	<polygon fill="none" stroke="#ED1C24" stroke-width="1.4173" stroke-miterlimit="10" points="2140.127,487.254 2138.414,488.84 
		2136.186,488.151 2135.664,485.875 2137.377,484.288 2139.609,484.976 	"/>
	<polygon fill="none" stroke="#ED1C24" stroke-width="1.4173" stroke-miterlimit="10" points="2168.146,520.79 2168.319,523.12 
		2166.391,524.434 2164.285,523.42 2164.114,521.09 2166.043,519.774 	"/>
	<polygon fill="none" stroke="#ED1C24" stroke-width="1.4173" stroke-miterlimit="10" points="2211.836,519.799 2213.766,521.118 
		2213.59,523.445 2211.485,524.458 2209.559,523.141 2209.73,520.813 	"/>
	<polygon fill="none" stroke="#ED1C24" stroke-width="1.4173" stroke-miterlimit="10" points="2238.309,485.027 2240.541,484.344 
		2242.252,485.933 2241.729,488.208 2239.498,488.895 2237.785,487.306 	"/>
	<polygon fill="none" stroke="#ED1C24" stroke-width="1.4173" stroke-miterlimit="10" points="2227.633,442.651 2228.49,440.479 
		2230.8,440.133 2232.252,441.959 2231.396,444.131 2229.088,444.479 	"/>
</g>
<g>
	<g>
		<path fill="none" stroke="#000000" stroke-width="1.4173" stroke-miterlimit="10" d="M2268.334,356.122h-25.512v11.339h28.348
			v31.05h-28.348v11.471h25.512c7.828,0,14.175-6.346,14.175-14.173v-25.513C2282.509,362.469,2276.162,356.122,2268.334,356.122z"
			/>
		<circle fill="none" stroke="#ED1C24" stroke-width="1.4173" stroke-miterlimit="10" cx="2249.908" cy="361.791" r="2.834"/>
		<circle fill="none" stroke="#ED1C24" stroke-width="1.4173" stroke-miterlimit="10" cx="2264.082" cy="361.791" r="2.835"/>
		<circle fill="none" stroke="#ED1C24" stroke-width="1.4173" stroke-miterlimit="10" cx="2249.908" cy="404.311" r="2.834"/>
		<circle fill="none" stroke="#ED1C24" stroke-width="1.4173" stroke-miterlimit="10" cx="2264.082" cy="404.312" r="2.835"/>
		<circle fill="none" stroke="#ED1C24" stroke-width="1.4173" stroke-miterlimit="10" cx="2276.839" cy="390.138" r="2.834"/>
		<circle fill="none" stroke="#ED1C24" stroke-width="1.4173" stroke-miterlimit="10" cx="2276.841" cy="375.965" r="2.834"/>
	</g>
	<path fill="none" stroke="#000000" stroke-width="1.4173" stroke-miterlimit="10" d="M2164.291,375.965L2164.291,375.965
		c0-3.913,3.174-7.086,7.088-7.086h17.008c3.914,0,7.087,3.173,7.087,7.086l0,0v21.261h-2.835v-8.503l-2.834-0.001v-15.591h-19.844
		v15.591l-2.834,0.001v8.503h-2.836V375.965z"/>
	<path fill="none" stroke="#000000" stroke-width="1.4173" stroke-miterlimit="10" d="M2198.748,375.965L2198.748,375.965
		c0-3.913,3.174-7.086,7.088-7.086h17.008c3.914,0,7.087,3.173,7.087,7.086l0,0v21.261h-2.835v-8.503l-2.834-0.001v-15.591h-19.844
		v15.591l-2.834,0.001v8.503h-2.836V375.965z"/>
	<path fill="none" stroke="#000000" stroke-width="1.4173" stroke-miterlimit="10" d="M2237.834,388.722v8.503h-2.836v-21.261l0,0
		c0-3.913,3.174-7.086,7.088-7.086h17.008c3.914,0,7.087,3.173,7.087,7.086l0,0v21.261h-2.835v-8.503H2237.834z"/>
</g>
<g>
	<g>
		<path fill="none" stroke="#000000" stroke-width="1.4173" stroke-miterlimit="10" d="M2268.334,297.122h-25.512v11.339h28.348
			v31.05h-28.348v11.471h25.512c7.828,0,14.175-6.346,14.175-14.173v-25.513C2282.509,303.469,2276.162,297.122,2268.334,297.122z"
			/>
		<circle fill="none" stroke="#ED1C24" stroke-width="1.4173" stroke-miterlimit="10" cx="2249.908" cy="302.791" r="2.834"/>
		<circle fill="none" stroke="#ED1C24" stroke-width="1.4173" stroke-miterlimit="10" cx="2264.082" cy="302.791" r="2.835"/>
		<circle fill="none" stroke="#ED1C24" stroke-width="1.4173" stroke-miterlimit="10" cx="2249.908" cy="345.311" r="2.834"/>
		<circle fill="none" stroke="#ED1C24" stroke-width="1.4173" stroke-miterlimit="10" cx="2264.082" cy="345.312" r="2.835"/>
		<circle fill="none" stroke="#ED1C24" stroke-width="1.4173" stroke-miterlimit="10" cx="2276.839" cy="331.138" r="2.834"/>
		<circle fill="none" stroke="#ED1C24" stroke-width="1.4173" stroke-miterlimit="10" cx="2276.841" cy="316.965" r="2.834"/>
	</g>
	<path fill="none" stroke="#000000" stroke-width="1.4173" stroke-miterlimit="10" d="M2164.291,316.965L2164.291,316.965
		c0-3.913,3.174-7.086,7.088-7.086h17.008c3.914,0,7.087,3.173,7.087,7.086l0,0v21.261h-2.835v-8.503l-2.834-0.001v-15.591h-19.844
		v15.591l-2.834,0.001v8.503h-2.836V316.965z"/>
	<path fill="none" stroke="#000000" stroke-width="1.4173" stroke-miterlimit="10" d="M2198.748,316.965L2198.748,316.965
		c0-3.913,3.174-7.086,7.088-7.086h17.008c3.914,0,7.087,3.173,7.087,7.086l0,0v21.261h-2.835v-8.503l-2.834-0.001v-15.591h-19.844
		v15.591l-2.834,0.001v8.503h-2.836V316.965z"/>
	<path fill="none" stroke="#000000" stroke-width="1.4173" stroke-miterlimit="10" d="M2237.834,329.722v8.503h-2.836v-21.261l0,0
		c0-3.913,3.174-7.086,7.088-7.086h17.008c3.914,0,7.087,3.173,7.087,7.086l0,0v21.261h-2.835v-8.503H2237.834z"/>
</g>
<g>
	<g>
		<path fill="none" stroke="#000000" stroke-width="1.4173" stroke-miterlimit="10" d="M2268.334,239.122h-25.512v11.338h28.348
			v31.05h-28.348v11.472h25.512c7.828,0,14.175-6.347,14.175-14.173v-25.514C2282.509,245.469,2276.162,239.122,2268.334,239.122z"
			/>
		<circle fill="none" stroke="#ED1C24" stroke-width="1.4173" stroke-miterlimit="10" cx="2249.908" cy="244.791" r="2.834"/>
		<circle fill="none" stroke="#ED1C24" stroke-width="1.4173" stroke-miterlimit="10" cx="2264.082" cy="244.791" r="2.835"/>
		<circle fill="none" stroke="#ED1C24" stroke-width="1.4173" stroke-miterlimit="10" cx="2249.908" cy="287.311" r="2.834"/>
		<circle fill="none" stroke="#ED1C24" stroke-width="1.4173" stroke-miterlimit="10" cx="2264.082" cy="287.312" r="2.835"/>
		<circle fill="none" stroke="#ED1C24" stroke-width="1.4173" stroke-miterlimit="10" cx="2276.839" cy="273.138" r="2.834"/>
		<circle fill="none" stroke="#ED1C24" stroke-width="1.4173" stroke-miterlimit="10" cx="2276.841" cy="258.964" r="2.834"/>
	</g>
	<path fill="none" stroke="#000000" stroke-width="1.4173" stroke-miterlimit="10" d="M2164.291,258.964L2164.291,258.964
		c0-3.913,3.174-7.086,7.088-7.086h17.008c3.914,0,7.087,3.173,7.087,7.086l0,0v21.262h-2.835v-8.503l-2.834-0.001V256.13h-19.844
		v15.592l-2.834,0.001v8.503h-2.836V258.964z"/>
	<path fill="none" stroke="#000000" stroke-width="1.4173" stroke-miterlimit="10" d="M2198.748,258.964L2198.748,258.964
		c0-3.913,3.174-7.086,7.088-7.086h17.008c3.914,0,7.087,3.173,7.087,7.086l0,0v21.262h-2.835v-8.503l-2.834-0.001V256.13h-19.844
		v15.592l-2.834,0.001v8.503h-2.836V258.964z"/>
	<path fill="none" stroke="#000000" stroke-width="1.4173" stroke-miterlimit="10" d="M2237.834,271.722v8.503h-2.836v-21.262l0,0
		c0-3.913,3.174-7.086,7.088-7.086h17.008c3.914,0,7.087,3.173,7.087,7.086l0,0v21.262h-2.835v-8.503H2237.834z"/>
</g>
<g>
	<g>
		<path fill="none" stroke="#000000" stroke-width="1.4173" stroke-miterlimit="10" d="M2268.334,180.122h-25.512v11.338h28.348
			v31.051h-28.348v11.471h25.512c7.828,0,14.175-6.346,14.175-14.173v-25.514C2282.509,186.469,2276.162,180.122,2268.334,180.122z"
			/>
		<circle fill="none" stroke="#ED1C24" stroke-width="1.4173" stroke-miterlimit="10" cx="2249.908" cy="185.791" r="2.834"/>
		<circle fill="none" stroke="#ED1C24" stroke-width="1.4173" stroke-miterlimit="10" cx="2264.082" cy="185.791" r="2.835"/>
		<circle fill="none" stroke="#ED1C24" stroke-width="1.4173" stroke-miterlimit="10" cx="2249.908" cy="228.311" r="2.834"/>
		<circle fill="none" stroke="#ED1C24" stroke-width="1.4173" stroke-miterlimit="10" cx="2264.082" cy="228.312" r="2.835"/>
		<circle fill="none" stroke="#ED1C24" stroke-width="1.4173" stroke-miterlimit="10" cx="2276.839" cy="214.138" r="2.834"/>
		<circle fill="none" stroke="#ED1C24" stroke-width="1.4173" stroke-miterlimit="10" cx="2276.841" cy="199.964" r="2.834"/>
	</g>
	<path fill="none" stroke="#000000" stroke-width="1.4173" stroke-miterlimit="10" d="M2164.291,199.964L2164.291,199.964
		c0-3.912,3.174-7.086,7.088-7.086h17.008c3.914,0,7.087,3.174,7.087,7.086l0,0v21.262h-2.835v-8.503l-2.834-0.001V197.13h-19.844
		v15.592l-2.834,0.001v8.503h-2.836V199.964z"/>
	<path fill="none" stroke="#000000" stroke-width="1.4173" stroke-miterlimit="10" d="M2198.748,199.964L2198.748,199.964
		c0-3.912,3.174-7.086,7.088-7.086h17.008c3.914,0,7.087,3.174,7.087,7.086l0,0v21.262h-2.835v-8.503l-2.834-0.001V197.13h-19.844
		v15.592l-2.834,0.001v8.503h-2.836V199.964z"/>
	<path fill="none" stroke="#000000" stroke-width="1.4173" stroke-miterlimit="10" d="M2237.834,212.722v8.503h-2.836v-21.262l0,0
		c0-3.912,3.174-7.086,7.088-7.086h17.008c3.914,0,7.087,3.174,7.087,7.086l0,0v21.262h-2.835v-8.503H2237.834z"/>
</g>
<g>
	<circle fill="none" stroke="#000000" stroke-width="1.4173" stroke-miterlimit="10" cx="2186.131" cy="591.146" r="32"/>
	<circle fill="none" stroke="#ED1C24" stroke-width="1.4173" stroke-miterlimit="10" cx="2186.131" cy="591.146" r="22"/>
	<circle fill="none" stroke="#ED1C24" stroke-width="1.4173" stroke-miterlimit="10" cx="2186.131" cy="591.146" r="9.453"/>
</g>
<path fill="none" stroke="#000000" stroke-width="1.4173" stroke-miterlimit="10" d="M1793.302,449.415l-119.138,13.727V652.54
	l119.138,13.74l222.75-13.75V463.165L1793.302,449.415z M1736.514,628.719h-8.504v-8.504h8.504V628.719z M1736.514,495.489h-8.504
	v-8.504h8.504V495.489z M2007.675,505.542l0.712,2.746l-24.694,6.396l-0.712-2.744L2007.675,505.542z M1853.254,454.386h2.834
	v25.512h-2.834V454.386z M1827.741,661.31h-2.835v-25.513h2.835V661.31z M1827.741,479.896h-2.835v-25.513h2.835V479.896z
	 M1856.088,661.31h-2.834v-25.513h2.834V661.31z M1904.277,587.612h-51.022v-8.504h51.022V587.612z M1904.277,536.588h-51.022
	v-8.504h51.022V536.588z M2007.675,610.152l-24.694-6.397l0.712-2.743l24.694,6.396L2007.675,610.152z M2014.785,582.713
	l-24.695-6.398l0.711-2.744l24.695,6.398L2014.785,582.713z M1990.801,542.125l-0.711-2.744l24.695-6.397l0.711,2.745
	L1990.801,542.125z"/>
<path fill="none" stroke="#000000" stroke-width="1.4173" stroke-miterlimit="10" d="M2291.225,573.055
	c-5.282,0-9.709,3.619-10.968,8.51h6.725v-1.417h8.504v8.504h-8.504v-1.417h-6.722c1.263,4.885,5.687,8.498,10.966,8.498
	c6.264,0,11.34-5.076,11.34-11.338S2297.489,573.055,2291.225,573.055z"/>
<path fill="none" stroke="#000000" stroke-width="1.4173" stroke-miterlimit="10" d="M2291.225,599.472
	c-5.282,0-9.709,3.619-10.968,8.51h6.725v-1.417h8.504v8.504h-8.504v-1.417h-6.722c1.263,4.886,5.687,8.498,10.966,8.498
	c6.264,0,11.34-5.076,11.34-11.338S2297.489,599.472,2291.225,599.472z"/>
<g>
	<path fill="none" stroke="#000000" stroke-width="1.4173" stroke-miterlimit="10" d="M2291.225,530.788
		c-10.176,0-18.425,8.248-18.425,18.424c0,10.177,8.249,18.427,18.425,18.427c10.177,0,18.427-8.25,18.427-18.427
		C2309.65,539.036,2301.4,530.788,2291.225,530.788z M2295.485,553.469h-8.504v-8.506h8.504V553.469z"/>
	<polygon fill="none" stroke="#ED1C24" stroke-width="1.4173" stroke-miterlimit="10" points="2289.809,536.784 2288.39,534.329 
		2289.809,531.874 2292.643,531.874 2294.061,534.329 2292.643,536.784 	"/>
	<polygon fill="none" stroke="#ED1C24" stroke-width="1.4173" stroke-miterlimit="10" points="2292.643,561.637 2294.061,564.093 
		2292.643,566.547 2289.809,566.547 2288.39,564.093 2289.809,561.637 	"/>
	<polygon fill="none" stroke="#ED1C24" stroke-width="1.4173" stroke-miterlimit="10" points="2281.172,556.65 2279.756,559.106 
		2276.92,559.105 2275.504,556.651 2276.92,554.196 2279.756,554.196 	"/>
	<polygon fill="none" stroke="#ED1C24" stroke-width="1.4173" stroke-miterlimit="10" points="2301.28,541.771 2302.698,539.314 
		2305.531,539.314 2306.949,541.77 2305.531,544.226 2302.698,544.225 	"/>
	<polygon fill="none" stroke="#ED1C24" stroke-width="1.4173" stroke-miterlimit="10" points="2302.698,554.196 2305.533,554.194 
		2306.949,556.651 2305.531,559.104 2302.698,559.105 2301.28,556.649 	"/>
	<polygon fill="none" stroke="#ED1C24" stroke-width="1.4173" stroke-miterlimit="10" points="2279.756,544.225 2276.922,544.223 
		2275.504,541.77 2276.92,539.313 2279.756,539.313 2281.172,541.769 	"/>
</g>
<g>
	<path fill="none" stroke="#000000" stroke-width="1.4173" stroke-miterlimit="10" d="M2333.93,530.788
		c-10.176,0-18.425,8.248-18.425,18.424c0,10.177,8.249,18.427,18.425,18.427s18.426-8.25,18.426-18.427
		C2352.355,539.036,2344.105,530.788,2333.93,530.788z M2338.189,553.469h-8.504v-8.506h8.504V553.469z"/>
	<polygon fill="none" stroke="#ED1C24" stroke-width="1.4173" stroke-miterlimit="10" points="2332.513,536.784 2331.095,534.329 
		2332.513,531.874 2335.347,531.874 2336.765,534.329 2335.347,536.784 	"/>
	<polygon fill="none" stroke="#ED1C24" stroke-width="1.4173" stroke-miterlimit="10" points="2335.347,561.637 2336.765,564.093 
		2335.347,566.547 2332.513,566.547 2331.095,564.093 2332.513,561.637 	"/>
	<polygon fill="none" stroke="#ED1C24" stroke-width="1.4173" stroke-miterlimit="10" points="2323.877,556.65 2322.461,559.106 
		2319.625,559.105 2318.209,556.651 2319.625,554.196 2322.461,554.196 	"/>
	<polygon fill="none" stroke="#ED1C24" stroke-width="1.4173" stroke-miterlimit="10" points="2343.985,541.771 2345.403,539.314 
		2348.237,539.314 2349.655,541.77 2348.237,544.226 2345.403,544.225 	"/>
	<polygon fill="none" stroke="#ED1C24" stroke-width="1.4173" stroke-miterlimit="10" points="2345.403,554.196 2348.239,554.194 
		2349.655,556.651 2348.237,559.104 2345.403,559.105 2343.985,556.649 	"/>
	<polygon fill="none" stroke="#ED1C24" stroke-width="1.4173" stroke-miterlimit="10" points="2322.461,544.225 2319.627,544.223 
		2318.209,541.77 2319.625,539.313 2322.461,539.313 2323.877,541.769 	"/>
</g>
<circle fill="none" stroke="#000000" stroke-width="1.4173" stroke-miterlimit="10" cx="2291.225" cy="640.298" r="11.339"/>
<path fill="none" stroke="#000000" stroke-width="1.4173" stroke-miterlimit="10" d="M2333.745,573.055
	c-5.282,0-9.71,3.619-10.968,8.51h6.725v-1.417h8.504v8.504h-8.504v-1.417h-6.723c1.262,4.885,5.688,8.498,10.967,8.498
	c6.264,0,11.34-5.076,11.34-11.338S2340.007,573.055,2333.745,573.055z"/>
<path fill="none" stroke="#000000" stroke-width="1.4173" stroke-miterlimit="10" d="M2333.745,599.472
	c-5.282,0-9.71,3.619-10.968,8.51h6.725v-1.417h8.504v8.504h-8.504v-1.417h-6.723c1.262,4.886,5.688,8.498,10.967,8.498
	c6.264,0,11.34-5.076,11.34-11.338S2340.007,599.472,2333.745,599.472z"/>
<circle fill="none" stroke="#000000" stroke-width="1.4173" stroke-miterlimit="10" cx="2333.745" cy="640.298" r="11.339"/>
<path fill="none" stroke="#000000" stroke-width="1.4173" stroke-miterlimit="10" d="M364.868,432.405v124.067h85.041v8.504h-85.041
	v42.521h85.041V616h-85.041v124.073c78.677-7.155,140.313-73.291,140.313-153.835C505.184,505.696,443.545,439.563,364.868,432.405z
	"/>
<path fill="none" stroke="#000000" stroke-width="1.4173" stroke-miterlimit="10" d="M515.104,433.018v123.456h79.373v8.504h-79.373
	V607.5h79.373v8.504h-79.373v123.463c75.949-9.737,134.646-74.624,134.646-153.227C649.75,507.641,591.055,442.756,515.104,433.018z
	"/>
<path fill="none" stroke="#000000" stroke-width="1.4173" stroke-miterlimit="10" d="M665.341,434.356v122.116h70.868v8.504h-70.868
	v42.521h70.868V616h-70.868v122.123c71.78-13.313,126.144-76.244,126.144-151.884C791.484,510.601,737.121,447.67,665.341,434.356z"
	/>
<path fill="none" stroke="#000000" stroke-width="1.4173" stroke-miterlimit="10" d="M801.404,435.518v120.956h65.199v8.504h-65.199
	V607.5h65.199v8.504h-65.199v120.962c68.955-15.496,120.474-77.089,120.474-150.726
	C921.877,512.606,870.359,451.014,801.404,435.518z"/>
<rect x="2372.02" y="543.92" fill="none" stroke="#000000" stroke-width="1.4173" stroke-miterlimit="10" width="8.504" height="34.018"/>
<rect x="2386.194" y="543.92" fill="none" stroke="#000000" stroke-width="1.4173" stroke-miterlimit="10" width="8.504" height="34.018"/>
<g>
	<g>
		<polygon fill="none" stroke="#000000" stroke-width="1.4173" stroke-miterlimit="10" points="1741.273,173.058 1743.584,38.204 
			1966.03,38.717 1993.002,141.463 1775.182,141.463 1749.75,173.058 		"/>
		<g>
			<polygon fill="none" stroke="#ED1C24" stroke-width="1.4173" stroke-miterlimit="10" points="1789.707,105.086 1768.385,120.579 
				1776.53,95.511 1755.205,80.021 1781.563,80.021 1789.707,54.955 1797.852,80.021 1824.207,80.021 1802.884,95.511 
				1811.029,120.579 			"/>
			<polygon fill="none" stroke="#ED1C24" stroke-width="1.4173" stroke-miterlimit="10" points="1789.707,65.587 1795.463,83.307 
				1814.094,83.307 1799.021,94.256 1804.779,111.975 1789.707,101.023 1774.635,111.975 1780.393,94.256 1765.32,83.307 
				1783.949,83.307 			"/>
		</g>
	</g>
	<g>
		<path fill="none" stroke="#000000" stroke-width="1.4173" stroke-miterlimit="10" d="M1734.332,38.204h-113.791l-32.107,134.341
			h149.495L1734.332,38.204z M1725.986,92.467h-14.834c-1.935,0-3.5-1.566-3.5-3.5c0-1.933,1.565-3.5,3.5-3.5h14.834
			c1.933,0,3.5,1.567,3.5,3.5C1729.486,90.9,1727.918,92.467,1725.986,92.467z"/>
		<g>
			<path fill="none" stroke="#ED1C24" stroke-width="1.4173" stroke-miterlimit="10" d="M1683.434,78.804
				c-2.104,0-3.048-1.195-3.048-2.381c0-1.981,2.21-2.563,2.938-2.754c1.29-0.315,1.522-0.537,1.548-0.562
				c0.063-0.118,0.125-0.67,0.162-1.033c0.176-1.275,0.418-7.271,0.418-13.875l0.006-1.896c0.006-1.352,0.012-2.741-0.035-3.324
				c-0.301-0.063-0.59-0.11-0.84-0.152c-0.324-0.053-0.597-0.102-0.771-0.146c-1.447-0.306-2.472-1.36-2.472-2.612
				c0-1.351,1.24-2.199,2.472-2.44c0.313-0.075,0.729-0.17,1.157-0.268c1.519-0.341,3.599-0.812,4.402-1.291
				c0.038-0.021,0.075-0.043,0.114-0.063c0.563-0.281,1.914-0.911,2.813-0.987c0.078-0.011,0.156-0.016,0.227-0.016
				c1.158,0,2.139,1.024,2.139,2.24c0,0.189-0.012,0.578-0.028,1.153c-0.032,1.05-0.086,2.756-0.116,5.043
				c-0.048,3.413-0.048,11.738,0,17.468v0.15c0,0.853,0,1.814,0.105,2.051c0.046,0.021,0.386,0.194,1.66,0.505
				c1.507,0.401,2.492,1.508,2.492,2.761c0,1.373-1.26,2.331-3.055,2.331c-0.313,0-0.938-0.027-1.691-0.064
				c-1.123-0.058-2.521-0.126-3.613-0.126c-2.573,0-4.764,0.149-5.938,0.231C1683.957,78.783,1683.598,78.804,1683.434,78.804z"/>
			<path fill="none" stroke="#ED1C24" stroke-width="1.4173" stroke-miterlimit="10" d="M1683.77,75.373
				c2.726-0.67,2.822-1.34,3.014-3.107c0.188-1.391,0.429-7.604,0.429-14.063c0-3.014,0.053-5.116-0.09-5.786
				c-0.049-0.382-0.339-0.912-0.72-1.006c-0.813-0.236-1.771-0.335-2.153-0.434c-0.67-0.141-1.147-0.524-1.147-0.907
				c0-0.335,0.575-0.623,1.051-0.717c2.012-0.479,4.834-1.004,6.123-1.771c0.86-0.431,1.865-0.813,2.199-0.813
				c0.19-0.05,0.435,0.189,0.435,0.477c0,0.528-0.099,2.679-0.146,6.173c-0.047,3.396-0.047,11.813,0,17.506
				c0,3.206-0.047,3.635,3.109,4.4c0.522,0.142,1.146,0.525,1.146,1.052c0,0.382-0.764,0.573-1.293,0.573
				c-0.766,0-3.438-0.191-5.309-0.191c-3.636,0-6.457,0.288-6.982,0.288c-0.671,0-1.289-0.188-1.289-0.622
				C1682.145,75.991,1682.67,75.661,1683.77,75.373z"/>
			<path fill="none" stroke="#ED1C24" stroke-width="1.4173" stroke-miterlimit="10" d="M1713.141,79.139
				c-8.35,0-12.178-8.798-12.178-16.972c0-9.306,3.674-13.564,6.756-15.5c1.705-1.018,3.672-1.563,5.574-1.563
				c8.239,0,11.992,8.624,11.992,16.637c0,7.478-2.396,13.367-6.408,15.76c-1.602,1.019-3.666,1.643-5.49,1.643L1713.141,79.139z
				 M1712.668,50.105c-0.388,0-0.814,0.684-1.035,1.089c-0.707,1.333-1.557,4.144-1.557,9.876c0,8.414,2.186,13.068,3.693,13.068
				c0.385,0,0.766-0.555,0.911-0.847c0.662-1.287,1.441-4.228,1.441-11.024c0-7.988-1.901-11.25-2.566-11.764
				c-0.038-0.028-0.073-0.059-0.105-0.09C1713.182,50.172,1713.109,50.105,1712.668,50.105z"/>
			<path fill="none" stroke="#ED1C24" stroke-width="1.4173" stroke-miterlimit="10" d="M1723.527,61.742
				c0,7.795-2.584,12.481-5.549,14.25c-1.436,0.91-3.254,1.438-4.785,1.39c-8.078,0-10.471-9.52-10.471-15.213
				c0-7.649,2.582-11.907,5.931-14.012c1.29-0.768,2.916-1.294,4.641-1.294C1721.184,46.863,1723.527,56.144,1723.527,61.742z
				 M1710.086,50.357c-0.859,1.624-1.771,4.687-1.771,10.713c0,7.604,1.867,14.827,5.455,14.827c1.53,0,2.34-1.528,2.483-1.818
				c0.813-1.576,1.627-4.782,1.627-11.812c0-8.323-2.008-12.199-3.252-13.156c-0.522-0.476-1.004-0.764-1.963-0.764
				C1711.52,48.348,1710.709,49.208,1710.086,50.357z"/>
		</g>
	</g>
</g>
<g>
	<g>
		<polygon fill="none" stroke="#000000" stroke-width="1.4173" stroke-miterlimit="10" points="1424.121,173.058 1421.811,38.204 
			1199.365,38.717 1172.395,141.463 1390.215,141.463 1415.645,173.058 		"/>
		<g>
			<polygon fill="none" stroke="#ED1C24" stroke-width="1.4173" stroke-miterlimit="10" points="1375.688,105.086 1397.011,120.579 
				1388.865,95.511 1410.189,80.021 1383.832,80.021 1375.688,54.955 1367.545,80.021 1341.188,80.021 1362.512,95.511 
				1354.365,120.579 			"/>
			<polygon fill="none" stroke="#ED1C24" stroke-width="1.4173" stroke-miterlimit="10" points="1375.688,65.587 1369.932,83.307 
				1351.302,83.307 1366.373,94.256 1360.615,111.975 1375.688,101.023 1390.761,111.975 1385.004,94.256 1400.074,83.307 
				1381.445,83.307 			"/>
		</g>
	</g>
	<g>
		<path fill="none" stroke="#000000" stroke-width="1.4173" stroke-miterlimit="10" d="M1544.854,38.204h-113.791l-3.597,134.341
			h149.495L1544.854,38.204z M1454.241,92.467h-14.833c-1.934,0-3.5-1.566-3.5-3.5c0-1.933,1.566-3.5,3.5-3.5h14.833
			c1.935,0,3.5,1.567,3.5,3.5C1457.741,90.9,1456.176,92.467,1454.241,92.467z"/>
		<g>
			<path fill="none" stroke="#ED1C24" stroke-width="1.4173" stroke-miterlimit="10" d="M1443.156,78.804
				c-2.106,0-3.049-1.195-3.049-2.381c0-1.981,2.209-2.563,2.938-2.754c1.29-0.315,1.522-0.537,1.548-0.562
				c0.063-0.118,0.124-0.67,0.162-1.033c0.176-1.275,0.418-7.271,0.418-13.875l0.005-1.896c0.007-1.352,0.013-2.741-0.032-3.324
				c-0.303-0.063-0.592-0.11-0.843-0.152c-0.323-0.053-0.596-0.102-0.771-0.146c-1.447-0.306-2.473-1.36-2.473-2.612
				c0-1.351,1.24-2.199,2.473-2.44c0.313-0.075,0.729-0.17,1.156-0.268c1.52-0.341,3.599-0.812,4.403-1.291
				c0.039-0.021,0.076-0.043,0.114-0.063c0.563-0.281,1.913-0.911,2.813-0.987c0.078-0.011,0.156-0.016,0.226-0.016
				c1.159,0,2.14,1.024,2.14,2.24c0,0.189-0.012,0.578-0.029,1.153c-0.033,1.05-0.084,2.756-0.115,5.043
				c-0.047,3.413-0.047,11.738,0,17.468v0.15c0,0.853,0,1.814,0.105,2.051c0.046,0.021,0.385,0.194,1.661,0.505
				c1.506,0.401,2.49,1.508,2.49,2.761c0,1.373-1.259,2.331-3.054,2.331c-0.313,0-0.938-0.027-1.692-0.064
				c-1.121-0.058-2.521-0.126-3.612-0.126c-2.572,0-4.764,0.149-5.938,0.231C1443.682,78.783,1443.321,78.804,1443.156,78.804z"/>
			<path fill="none" stroke="#ED1C24" stroke-width="1.4173" stroke-miterlimit="10" d="M1443.491,75.373
				c2.726-0.67,2.821-1.34,3.013-3.107c0.189-1.391,0.429-7.604,0.429-14.063c0-3.014,0.054-5.116-0.09-5.786
				c-0.048-0.382-0.339-0.912-0.719-1.006c-0.813-0.236-1.771-0.335-2.154-0.434c-0.669-0.141-1.147-0.524-1.147-0.907
				c0-0.335,0.576-0.623,1.053-0.717c2.011-0.479,4.834-1.004,6.122-1.771c0.86-0.431,1.864-0.813,2.198-0.813
				c0.191-0.05,0.437,0.189,0.437,0.477c0,0.528-0.101,2.679-0.146,6.173c-0.049,3.396-0.049,11.813,0,17.506
				c0,3.206-0.049,3.635,3.107,4.4c0.523,0.142,1.146,0.525,1.146,1.052c0,0.382-0.765,0.573-1.293,0.573
				c-0.766,0-3.439-0.191-5.309-0.191c-3.637,0-6.458,0.288-6.982,0.288c-0.67,0-1.289-0.188-1.289-0.622
				C1441.866,75.991,1442.395,75.661,1443.491,75.373z"/>
			<path fill="none" stroke="#ED1C24" stroke-width="1.4173" stroke-miterlimit="10" d="M1472.864,79.139
				c-8.351,0-12.177-8.798-12.177-16.972c0-9.306,3.672-13.564,6.754-15.5c1.705-1.018,3.673-1.563,5.574-1.563
				c8.239,0,11.992,8.624,11.992,16.637c0,7.478-2.396,13.367-6.408,15.76c-1.6,1.019-3.666,1.643-5.49,1.643L1472.864,79.139z
				 M1472.393,50.105c-0.388,0-0.813,0.684-1.035,1.089c-0.707,1.333-1.557,4.144-1.557,9.876c0,8.414,2.186,13.068,3.693,13.068
				c0.387,0,0.766-0.555,0.91-0.847c0.662-1.287,1.441-4.228,1.441-11.024c0-7.988-1.9-11.25-2.566-11.764
				c-0.036-0.028-0.072-0.059-0.104-0.09C1472.905,50.172,1472.832,50.105,1472.393,50.105z"/>
			<path fill="none" stroke="#ED1C24" stroke-width="1.4173" stroke-miterlimit="10" d="M1483.25,61.742
				c0,7.795-2.584,12.481-5.549,14.25c-1.436,0.91-3.254,1.438-4.785,1.39c-8.077,0-10.471-9.52-10.471-15.213
				c0-7.649,2.582-11.907,5.932-14.012c1.29-0.768,2.916-1.294,4.641-1.294C1480.906,46.863,1483.25,56.144,1483.25,61.742z
				 M1469.811,50.357c-0.858,1.624-1.77,4.687-1.77,10.713c0,7.604,1.865,14.827,5.453,14.827c1.529,0,2.34-1.528,2.484-1.818
				c0.813-1.576,1.625-4.782,1.625-11.812c0-8.323-2.008-12.199-3.252-13.156c-0.521-0.476-1.004-0.764-1.961-0.764
				C1471.242,48.348,1470.434,49.208,1469.811,50.357z"/>
		</g>
	</g>
</g>
<text transform="matrix(1 0 0 1 2312.6328 429.5708)" font-family="'MyriadPro-Regular'" font-size="21.8862">Red : to be engraved</text>
<text transform="matrix(1 0 0 1 2312.6328 455.8364)" font-family="'MyriadPro-Regular'" font-size="21.8862">Black : to be cut</text>
<text transform="matrix(1 0 0 1 2312.6328 482.0981)" font-family="'MyriadPro-Regular'" font-size="21.8862">scaled for 3mm planks</text>
<path fill="none" stroke="#000000" stroke-width="1.4173" stroke-miterlimit="10" d="M1884.221,169.867v102.044h65.01v8.504h-65.01
	v42.52h65.01v8.504h-65.01v102.049l212.599-11.34V181.205L1884.221,169.867z M2032.435,189.153l8.49,0.458l-0.916,16.982
	l-8.49-0.458L2032.435,189.153z M1942.196,418.859l-0.916-16.98l8.49-0.457l0.916,16.979L1942.196,418.859z M1949.771,201.749
	l-8.489-0.457l0.916-16.981l8.489,0.458L1949.771,201.749z M2032.435,414.013l-0.916-16.98l8.49-0.457l0.916,16.98L2032.435,414.013
	z M2062.803,331.439h-28.347v-8.504h28.347V331.439z M2062.803,280.415h-28.347v-8.504h28.347V280.415z"/>
</svg>
