  0
SECTION
  2
HEADER
  9
$ACADVER
  1
AC1015
  9
$ACADMAINTVER
 70
     6
  9
$DWGCODEPAGE
  3
ANSI_1252
  9
$INSBASE
 10
0.0
 20
0.0
 30
0.0
  9
$EXTMIN
 10
0.0
 20
0.0
 30
0.0
  9
$EXTMAX
 10
500.0
 20
400.0
 30
0.0
  9
$LIMMIN
 10
0.0
 20
0.0
  9
$LIMMAX
 10
500.0
 20
400.0
  9
$ORTHOMODE
 70
     0
  9
$REGENMODE
 70
     1
  9
$FILLMODE
 70
     1
  9
$QTEXTMODE
 70
     0
  9
$MIRRTEXT
 70
     1
  9
$LTSCALE
 40
1.0
  9
$ATTMODE
 70
     1
  9
$TEXTSIZE
 40
3.5
  9
$TRACEWID
 40
1.0
  9
$TEXTSTYLE
  7
Standard
  9
$CLAYER
  8
0
  9
$CELTYPE
  6
ByLayer
  9
$CECOLOR
 62
   256
  9
$CELTSCALE
 40
1.0
  9
$DISPSILH
 70
     0
  9
$DIMSCALE
 40
1.0
  9
$DIMASZ
 40
3.302
  9
$DIMEXO
 40
1.0
  9
$DIMDLI
 40
3.75
  9
$DIMRND
 40
0.0
  9
$DIMDLE
 40
0.0
  9
$DIMEXE
 40
1.0
  9
$DIMTP
 40
0.0
  9
$DIMTM
 40
0.0
  9
$DIMTXT
 40
3.5
  9
$DIMCEN
 40
2.5
  9
$DIMTSZ
 40
0.0
  9
$DIMTOL
 70
     0
  9
$DIMLIM
 70
     0
  9
$DIMTIH
 70
     1
  9
$DIMTOH
 70
     1
  9
$DIMSE1
 70
     0
  9
$DIMSE2
 70
     0
  9
$DIMTAD
 70
     1
  9
$DIMZIN
 70
     0
  9
$DIMBLK
  1

  9
$DIMASO
 70
     1
  9
$DIMSHO
 70
     1
  9
$DIMPOST
  1

  9
$DIMAPOST
  1

  9
$DIMALT
 70
     0
  9
$DIMALTD
 70
     3
  9
$DIMALTF
 40
0.0393700787
  9
$DIMLFAC
 40
1.0
  9
$DIMTOFL
 70
     1
  9
$DIMTVP
 40
0.0
  9
$DIMTIX
 70
     0
  9
$DIMSOXD
 70
     0
  9
$DIMSAH
 70
     0
  9
$DIMBLK1
  1

  9
$DIMBLK2
  1

  9
$DIMSTYLE
  2
ISO-25
  9
$DIMCLRD
 70
     0
  9
$DIMCLRE
 70
     0
  9
$DIMCLRT
 70
     0
  9
$DIMTFAC
 40
1.0
  9
$DIMGAP
 40
1.524
  9
$DIMJUST
 70
     0
  9
$DIMSD1
 70
     0
  9
$DIMSD2
 70
     0
  9
$DIMTOLJ
 70
     0
  9
$DIMTZIN
 70
     0
  9
$DIMALTZ
 70
     0
  9
$DIMALTTZ
 70
     0
  9
$DIMUPT
 70
     0
  9
$DIMDEC
 70
     2
  9
$DIMTDEC
 70
     2
  9
$DIMALTU
 70
     2
  9
$DIMALTTD
 70
     3
  9
$DIMTXSTY
  7
Standard
  9
$DIMAUNIT
 70
     0
  9
$DIMADEC
 70
     2
  9
$DIMALTRND
 40
0.0
  9
$DIMAZIN
 70
     0
  9
$DIMDSEP
 70
    44
  9
$DIMATFIT
 70
     3
  9
$DIMFRAC
 70
     0
  9
$DIMLDRBLK
  1

  9
$DIMLUNIT
 70
     2
  9
$DIMLWD
 70
    -2
  9
$DIMLWE
 70
    -2
  9
$DIMTMOVE
 70
     0
  9
$LUNITS
 70
     2
  9
$LUPREC
 70
     2
  9
$SKETCHINC
 40
1.0
  9
$FILLETRAD
 40
10.0
  9
$AUNITS
 70
     0
  9
$AUPREC
 70
     2
  9
$MENU
  1
.
  9
$ELEVATION
 40
0.0
  9
$PELEVATION
 40
0.0
  9
$THICKNESS
 40
0.0
  9
$LIMCHECK
 70
     0
  9
$CHAMFERA
 40
0.0
  9
$CHAMFERB
 40
0.0
  9
$CHAMFERC
 40
0.0
  9
$CHAMFERD
 40
0.0
  9
$SKPOLY
 70
     0
  9
$TDCREATE
 40
2458170.588572165
  9
$TDUCREATE
 40
2458170.296905498
  9
$TDUPDATE
 40
2458170.588573438
  9
$TDUUPDATE
 40
2458170.296906771
  9
$TDINDWG
 40
0.0000000116
  9
$TDUSRTIMER
 40
0.0000000116
  9
$USRTIMER
 70
     1
  9
$ANGBASE
 50
0.0
  9
$ANGDIR
 70
     0
  9
$PDMODE
 70
     0
  9
$PDSIZE
 40
-1.0
  9
$PLINEWID
 40
0.0
  9
$SPLFRAME
 70
     0
  9
$SPLINETYPE
 70
     6
  9
$SPLINESEGS
 70
     8
  9
$HANDSEED
  5
314
  9
$SURFTAB1
 70
     6
  9
$SURFTAB2
 70
     6
  9
$SURFTYPE
 70
     6
  9
$SURFU
 70
     6
  9
$SURFV
 70
     6
  9
$UCSBASE
  2

  9
$UCSNAME
  2

  9
$UCSORG
 10
0.0
 20
0.0
 30
0.0
  9
$UCSXDIR
 10
1.0
 20
0.0
 30
0.0
  9
$UCSYDIR
 10
0.0
 20
1.0
 30
0.0
  9
$UCSORTHOREF
  2

  9
$UCSORTHOVIEW
 70
     0
  9
$UCSORGTOP
 10
0.0
 20
0.0
 30
0.0
  9
$UCSORGBOTTOM
 10
0.0
 20
0.0
 30
0.0
  9
$UCSORGLEFT
 10
0.0
 20
0.0
 30
0.0
  9
$UCSORGRIGHT
 10
0.0
 20
0.0
 30
0.0
  9
$UCSORGFRONT
 10
0.0
 20
0.0
 30
0.0
  9
$UCSORGBACK
 10
0.0
 20
0.0
 30
0.0
  9
$PUCSBASE
  2

  9
$PUCSNAME
  2

  9
$PUCSORG
 10
0.0
 20
0.0
 30
0.0
  9
$PUCSXDIR
 10
1.0
 20
0.0
 30
0.0
  9
$PUCSYDIR
 10
0.0
 20
1.0
 30
0.0
  9
$PUCSORTHOREF
  2

  9
$PUCSORTHOVIEW
 70
     0
  9
$PUCSORGTOP
 10
0.0
 20
0.0
 30
0.0
  9
$PUCSORGBOTTOM
 10
0.0
 20
0.0
 30
0.0
  9
$PUCSORGLEFT
 10
0.0
 20
0.0
 30
0.0
  9
$PUCSORGRIGHT
 10
0.0
 20
0.0
 30
0.0
  9
$PUCSORGFRONT
 10
0.0
 20
0.0
 30
0.0
  9
$PUCSORGBACK
 10
0.0
 20
0.0
 30
0.0
  9
$USERI1
 70
     0
  9
$USERI2
 70
     0
  9
$USERI3
 70
     0
  9
$USERI4
 70
     0
  9
$USERI5
 70
     0
  9
$USERR1
 40
0.0
  9
$USERR2
 40
0.0
  9
$USERR3
 40
0.0
  9
$USERR4
 40
0.0
  9
$USERR5
 40
0.0
  9
$WORLDVIEW
 70
     1
  9
$SHADEDGE
 70
     3
  9
$SHADEDIF
 70
    70
  9
$TILEMODE
 70
     1
  9
$MAXACTVP
 70
    64
  9
$PINSBASE
 10
0.0
 20
0.0
 30
0.0
  9
$PLIMCHECK
 70
     0
  9
$PEXTMIN
 10
1.0000000000E+20
 20
1.0000000000E+20
 30
1.0000000000E+20
  9
$PEXTMAX
 10
-1.0000000000E+20
 20
-1.0000000000E+20
 30
-1.0000000000E+20
  9
$PLIMMIN
 10
0.0
 20
0.0
  9
$PLIMMAX
 10
420.0
 20
297.0
  9
$UNITMODE
 70
     0
  9
$VISRETAIN
 70
     1
  9
$PLINEGEN
 70
     0
  9
$PSLTSCALE
 70
     1
  9
$TREEDEPTH
 70
  3020
  9
$CMLSTYLE
  2
Standard
  9
$CMLJUST
 70
     0
  9
$CMLSCALE
 40
20.0
  9
$PROXYGRAPHICS
 70
     1
  9
$MEASUREMENT
 70
     1
  9
$CELWEIGHT
370
    -1
  9
$ENDCAPS
280
     0
  9
$JOINSTYLE
280
     0
  9
$LWDISPLAY
290
     1
  9
$INSUNITS
 70
     4
  9
$HYPERLINKBASE
  1

  9
$STYLESHEET
  1

  9
$XEDIT
290
     1
  9
$CEPSNTYPE
380
     0
  9
$PSTYLEMODE
290
     1
  9
$FINGERPRINTGUID
  2
{FD6439D2-244B-45A2-B113-FFECA9D20B2A}
  9
$VERSIONGUID
  2
{FAEB1C32-E019-11D5-929B-00C0DF256EC4}
  9
$EXTNAMES
290
     1
  9
$PSVPSCALE
 40
0.0
  9
$OLESTARTUP
290
     0
  0
ENDSEC
  0
SECTION
  2
CLASSES
  0
CLASS
  1
ACDBDICTIONARYWDFLT
  2
AcDbDictionaryWithDefault
  3
ObjectDBX Classes
 90
        0
280
     0
281
     0
  0
CLASS
  1
VISUALSTYLE
  2
AcDbVisualStyle
  3
ObjectDBX Classes
 90
     4095
280
     0
281
     0
  0
CLASS
  1
MATERIAL
  2
AcDbMaterial
  3
ObjectDBX Classes
 90
     1153
280
     0
281
     0
  0
CLASS
  1
SCALE
  2
AcDbScale
  3
ObjectDBX Classes
 90
     1153
280
     0
281
     0
  0
CLASS
  1
TABLESTYLE
  2
AcDbTableStyle
  3
ObjectDBX Classes
 90
     4095
280
     0
281
     0
  0
CLASS
  1
MLEADERSTYLE
  2
AcDbMLeaderStyle
  3
ACDB_MLEADERSTYLE_CLASS
 90
     4095
280
     0
281
     0
  0
CLASS
  1
SUN
  2
AcDbSun
  3
SCENEOE
 90
     1153
280
     0
281
     0
  0
CLASS
  1
ACDBPLACEHOLDER
  2
AcDbPlaceHolder
  3
ObjectDBX Classes
 90
        0
280
     0
281
     0
  0
CLASS
  1
LAYOUT
  2
AcDbLayout
  3
ObjectDBX Classes
 90
        0
280
     0
281
     0
  0
ENDSEC
  0
SECTION
  2
TABLES
  0
TABLE
  2
VPORT
  5
8
330
0
100
AcDbSymbolTable
 70
     1
  0
VPORT
  5
29
330
8
100
AcDbSymbolTableRecord
100
AcDbViewportTableRecord
  2
*Active
 70
     0
 10
0.0
 20
0.0
 11
1.0
 21
1.0
 12
250.0
 22
200.0
 13
0.0
 23
0.0
 14
10.0
 24
10.0
 15
10.0
 25
10.0
 16
0.0
 26
0.0
 36
1.0
 17
0.0
 27
0.0
 37
0.0
 40
400.0
 41
1.25
 42
50.0
 43
0.0
 44
0.0
 50
0.0
 51
0.0
 71
     0
 72
  2000
 73
     1
 74
     3
 75
     0
 76
     0
 77
     0
 78
     0
281
     0
 65
     1
110
0.0
120
0.0
130
0.0
111
1.0
121
0.0
131
0.0
112
0.0
122
1.0
132
0.0
 79
     0
146
0.0
  0
ENDTAB
  0
TABLE
  2
LTYPE
  5
5
330
0
100
AcDbSymbolTable
 70
     6
  0
LTYPE
  5
14
330
5
100
AcDbSymbolTableRecord
100
AcDbLinetypeTableRecord
  2
ByBlock
 70
     0
  3

 72
    65
 73
     0
 40
0.0
  0
LTYPE
  5
15
330
5
100
AcDbSymbolTableRecord
100
AcDbLinetypeTableRecord
  2
ByLayer
 70
     0
  3

 72
    65
 73
     0
 40
0.0
  0
LTYPE
  5
16
330
5
100
AcDbSymbolTableRecord
100
AcDbLinetypeTableRecord
  2
Continuous
 70
     0
  3
Solid line
 72
    65
 73
     0
 40
0.0
  0
LTYPE
  5
6E
330
5
100
AcDbSymbolTableRecord
100
AcDbLinetypeTableRecord
  2
HIDDEN
 70
     0
  3
Hidden __ __ __ __ __ __ __ __ __ __ __ __ __ __
 72
    65
 73
     2
 40
1.905
 49
1.27
 74
     0
 49
-0.635
 74
     0
  0
LTYPE
  5
6F
330
5
100
AcDbSymbolTableRecord
100
AcDbLinetypeTableRecord
  2
PHANTOM
 70
     0
  3
Phantom ______  __  __  ______  __  __  ______
 72
    65
 73
     6
 40
12.7
 49
6.35
 74
     0
 49
-1.27
 74
     0
 49
1.27
 74
     0
 49
-1.27
 74
     0
 49
1.27
 74
     0
 49
-1.27
 74
     0
  0
LTYPE
  5
70
330
5
100
AcDbSymbolTableRecord
100
AcDbLinetypeTableRecord
  2
CENTER
 70
     0
  3
Center ____ _ ____ _ ____ _ ____ _ ____ _ ____
 72
    65
 73
     4
 40
10.16
 49
6.35
 74
     0
 49
-1.27
 74
     0
 49
1.27
 74
     0
 49
-1.27
 74
     0
  0
LTYPE
  5
71
330
5
100
AcDbSymbolTableRecord
100
AcDbLinetypeTableRecord
  2
CENTERX2
 70
     0
  3
Center (2x) ________  __  ________  __  _____
 72
    65
 73
     4
 40
20.32
 49
12.7
 74
     0
 49
-2.54
 74
     0
 49
2.54
 74
     0
 49
-2.54
 74
     0
  0
LTYPE
  5
72
330
5
100
AcDbSymbolTableRecord
100
AcDbLinetypeTableRecord
  2
DOT2
 70
     0
  3
Dot (.5x) ........................................
 72
    65
 73
     2
 40
0.635
 49
0.0
 74
     0
 49
-0.635
 74
     0
  0
ENDTAB
  0
TABLE
  2
LAYER
  5
2
330
0
100
AcDbSymbolTable
 70
     1
  0
LAYER
  5
10
330
2
100
AcDbSymbolTableRecord
100
AcDbLayerTableRecord
  2
0
 70
     0
 62
     7
  6
Continuous
370
    -3
390
F
  0
ENDTAB
  0
TABLE
  2
STYLE
  5
3
330
0
100
AcDbSymbolTable
 70
     1
  0
STYLE
  5
11
330
3
100
AcDbSymbolTableRecord
100
AcDbTextStyleTableRecord
  2
Standard
 70
     0
 40
0.0
 41
1.0
 50
0.0
 71
     0
 42
3.5
  3
txt
  4

  0
ENDTAB
  0
TABLE
  2
VIEW
  5
6
330
0
100
AcDbSymbolTable
 70
     0
  0
ENDTAB
  0
TABLE
  2
UCS
  5
7
330
0
100
AcDbSymbolTable
 70
     0
  0
ENDTAB
  0
TABLE
  2
APPID
  5
9
330
0
100
AcDbSymbolTable
 70
     1
  0
APPID
  5
12
330
9
100
AcDbSymbolTableRecord
100
AcDbRegAppTableRecord
  2
ACAD
 70
     0
  0
ENDTAB
  0
TABLE
  2
DIMSTYLE
  5
A
330
0
100
AcDbSymbolTable
 70
     1
100
AcDbDimStyleTable
  0
DIMSTYLE
105
27
330
A
100
AcDbSymbolTableRecord
100
AcDbDimStyleTableRecord
  2
ISO-25
 70
     0
 41
2.5
 42
0.625
 43
3.75
 44
1.25
 73
     0
 74
     0
 77
     1
 78
     8
140
2.5
141
2.5
143
0.0393700787
147
0.625
171
     3
172
     1
178
     0
271
     2
272
     2
274
     3
278
    44
283
     0
284
     8
340
11
  0
ENDTAB
  0
TABLE
  2
BLOCK_RECORD
  5
1
330
0
100
AcDbSymbolTable
 70
     1
  0
BLOCK_RECORD
  5
1F
330
1
100
AcDbSymbolTableRecord
100
AcDbBlockTableRecord
  2
*Model_Space
340
22
  0
BLOCK_RECORD
  5
1B
330
1
100
AcDbSymbolTableRecord
100
AcDbBlockTableRecord
  2
*Paper_Space
340
1E
  0
BLOCK_RECORD
  5
23
330
1
100
AcDbSymbolTableRecord
100
AcDbBlockTableRecord
  2
*Paper_Space0
340
26
  0
ENDTAB
  0
ENDSEC
  0
SECTION
  2
BLOCKS
  0
BLOCK
  5
20
330
1F
100
AcDbEntity
  8
0
100
AcDbBlockBegin
  2
*Model_Space
 70
     0
 10
0.0
 20
0.0
 30
0.0
  3
*Model_Space
  1

  0
ENDBLK
  5
21
330
1F
100
AcDbEntity
  8
0
100
AcDbBlockEnd
  0
BLOCK
  5
1C
330
1B
100
AcDbEntity
 67
     1
  8
0
100
AcDbBlockBegin
  2
*Paper_Space
 70
     0
 10
0.0
 20
0.0
 30
0.0
  3
*Paper_Space
  1

  0
ENDBLK
  5
1D
330
1B
100
AcDbEntity
 67
     1
  8
0
100
AcDbBlockEnd
  0
BLOCK
  5
24
330
23
100
AcDbEntity
  8
0
100
AcDbBlockBegin
  2
*Paper_Space0
 70
     0
 10
0.0
 20
0.0
 30
0.0
  3
*Paper_Space0
  1

  0
ENDBLK
  5
25
330
23
100
AcDbEntity
  8
0
100
AcDbBlockEnd
  0
ENDSEC
  0
SECTION
  2
ENTITIES
  0
LINE
  5
73
330
1F
100
AcDbEntity
  8
0
  6
Continuous
 62
     7
370
    25
100
AcDbLine
 10
265.3735801364
 20
235.5509749869
 30
0.0
 11
265.3735801364
 21
384.0504340151
 31
0.0
  0
LINE
  5
74
330
1F
100
AcDbEntity
  8
0
  6
Continuous
 62
     7
370
    25
100
AcDbLine
 10
25.3727212335
 20
235.5509749869
 30
0.0
 11
265.3735801364
 21
235.5509749869
 31
0.0
  0
LINE
  5
75
330
1F
100
AcDbEntity
  8
0
  6
Continuous
 62
     7
370
    25
100
AcDbLine
 10
25.3727212335
 20
384.0504340151
 30
0.0
 11
25.3727212335
 21
235.5509749869
 31
0.0
  0
LINE
  5
76
330
1F
100
AcDbEntity
  8
0
  6
Continuous
 62
     7
370
    25
100
AcDbLine
 10
265.3735801364
 20
384.0504340151
 30
0.0
 11
25.3727212335
 21
384.0504340151
 31
0.0
  0
LINE
  5
77
330
1F
100
AcDbEntity
  8
0
  6
Continuous
 62
     7
370
    25
100
AcDbLine
 10
43.9436808015
 20
339.0531833538
 30
0.0
 11
43.9436808015
 21
340.5533484438
 31
0.0
  0
LINE
  5
78
330
1F
100
AcDbEntity
  8
0
  6
Continuous
 62
     7
370
    25
100
AcDbLine
 10
43.9436808015
 20
340.5533484438
 30
0.0
 11
30.442178228
 21
340.5533484438
 31
0.0
  0
LINE
  5
79
330
1F
100
AcDbEntity
  8
0
  6
Continuous
 62
     7
370
    25
100
AcDbLine
 10
30.442178228
 20
340.5533484438
 30
0.0
 11
30.442178228
 21
339.0531833538
 31
0.0
  0
LINE
  5
7A
330
1F
100
AcDbEntity
  8
0
  6
Continuous
 62
     7
370
    25
100
AcDbLine
 10
30.442178228
 20
339.0531833538
 30
0.0
 11
43.9436808015
 21
339.0531833538
 31
0.0
  0
LINE
  5
7B
330
1F
100
AcDbEntity
  8
0
  6
Continuous
 62
     7
370
    25
100
AcDbLine
 10
43.9436808015
 20
324.050480991
 30
0.0
 11
43.9436808015
 21
325.5516807804
 31
0.0
  0
LINE
  5
7C
330
1F
100
AcDbEntity
  8
0
  6
Continuous
 62
     7
370
    25
100
AcDbLine
 10
43.9436808015
 20
325.5516807804
 30
0.0
 11
30.442178228
 21
325.5516807804
 31
0.0
  0
LINE
  5
7D
330
1F
100
AcDbEntity
  8
0
  6
Continuous
 62
     7
370
    25
100
AcDbLine
 10
30.442178228
 20
325.5516807804
 30
0.0
 11
30.442178228
 21
324.050480991
 31
0.0
  0
LINE
  5
7E
330
1F
100
AcDbEntity
  8
0
  6
Continuous
 62
     7
370
    25
100
AcDbLine
 10
30.442178228
 20
324.050480991
 30
0.0
 11
43.9436808015
 21
324.050480991
 31
0.0
  0
LINE
  5
7F
330
1F
100
AcDbEntity
  8
0
  6
Continuous
 62
     7
370
    25
100
AcDbLine
 10
105.4412200833
 20
357.0500179449
 30
0.0
 11
115.3718810315
 21
357.0500179449
 31
0.0
  0
LINE
  5
80
330
1F
100
AcDbEntity
  8
0
  6
Continuous
 62
     7
370
    25
100
AcDbLine
 10
115.3718810315
 20
357.0500179449
 30
0.0
 11
115.3718810315
 21
361.5505188027
 31
0.0
  0
LINE
  5
81
330
1F
100
AcDbEntity
  8
0
  6
Continuous
 62
     7
370
    25
100
AcDbLine
 10
115.3718810315
 20
361.5505188027
 30
0.0
 11
105.4412200833
 21
361.5505188027
 31
0.0
  0
LINE
  5
82
330
1F
100
AcDbEntity
  8
0
  6
Continuous
 62
     7
370
    25
100
AcDbLine
 10
105.4412200833
 20
361.5505188027
 30
0.0
 11
105.4412200833
 21
357.0500179449
 31
0.0
  0
LINE
  5
83
330
1F
100
AcDbEntity
  8
0
  6
Continuous
 62
     7
370
    25
100
AcDbLine
 10
175.3718368495
 20
357.0500179449
 30
0.0
 11
205.3715549196
 21
357.0500179449
 31
0.0
  0
LINE
  5
84
330
1F
100
AcDbEntity
  8
0
  6
Continuous
 62
     7
370
    25
100
AcDbLine
 10
205.3715549196
 20
357.0500179449
 30
0.0
 11
205.3715549196
 21
361.5505188027
 31
0.0
  0
LINE
  5
85
330
1F
100
AcDbEntity
  8
0
  6
Continuous
 62
     7
370
    25
100
AcDbLine
 10
205.3715549196
 20
361.5505188027
 30
0.0
 11
175.3718368495
 21
361.5505188027
 31
0.0
  0
LINE
  5
86
330
1F
100
AcDbEntity
  8
0
  6
Continuous
 62
     7
370
    25
100
AcDbLine
 10
175.3718368495
 20
361.5505188027
 30
0.0
 11
175.3718368495
 21
357.0500179449
 31
0.0
  0
LINE
  5
87
330
1F
100
AcDbEntity
  8
0
  6
Continuous
 62
     7
370
    25
100
AcDbLine
 10
115.3718810315
 20
258.05192583
 30
0.0
 11
115.3718810315
 21
262.5524266878
 31
0.0
  0
LINE
  5
88
330
1F
100
AcDbEntity
  8
0
  6
Continuous
 62
     7
370
    25
100
AcDbLine
 10
115.3718810315
 20
262.5524266878
 30
0.0
 11
105.4412200833
 21
262.5524266878
 31
0.0
  0
LINE
  5
89
330
1F
100
AcDbEntity
  8
0
  6
Continuous
 62
     7
370
    25
100
AcDbLine
 10
105.4412200833
 20
262.5524266878
 30
0.0
 11
105.4412200833
 21
258.05192583
 31
0.0
  0
LINE
  5
8A
330
1F
100
AcDbEntity
  8
0
  6
Continuous
 62
     7
370
    25
100
AcDbLine
 10
105.4412200833
 20
258.05192583
 30
0.0
 11
115.3718810315
 21
258.05192583
 31
0.0
  0
LINE
  5
8B
330
1F
100
AcDbEntity
  8
0
  6
Continuous
 62
     7
370
    25
100
AcDbLine
 10
205.3736224557
 20
258.05192583
 30
0.0
 11
205.3736224557
 21
262.5524266878
 31
0.0
  0
LINE
  5
8C
330
1F
100
AcDbEntity
  8
0
  6
Continuous
 62
     7
370
    25
100
AcDbLine
 10
205.3736224557
 20
262.5524266878
 30
0.0
 11
175.3733865703
 21
262.5524266878
 31
0.0
  0
LINE
  5
8D
330
1F
100
AcDbEntity
  8
0
  6
Continuous
 62
     7
370
    25
100
AcDbLine
 10
175.3733865703
 20
262.5524266878
 30
0.0
 11
175.3733865703
 21
258.05192583
 31
0.0
  0
LINE
  5
8E
330
1F
100
AcDbEntity
  8
0
  6
Continuous
 62
     7
370
    25
100
AcDbLine
 10
175.3733865703
 20
258.05192583
 30
0.0
 11
205.3736224557
 21
258.05192583
 31
0.0
  0
CIRCLE
  5
8F
330
1F
100
AcDbEntity
  8
0
  6
Continuous
 62
     7
370
    25
100
AcDbCircle
 10
159.2564600318
 20
258.4449445318
 30
0.0
 40
1.5
  0
CIRCLE
  5
90
330
1F
100
AcDbEntity
  8
0
  6
Continuous
 62
     7
370
    25
100
AcDbCircle
 10
219.6302954243
 20
278.061592788
 30
0.0
 40
1.5
  0
CIRCLE
  5
91
330
1F
100
AcDbEntity
  8
0
  6
Continuous
 62
     7
370
    25
100
AcDbCircle
 10
219.6302954243
 20
341.5424000356
 30
0.0
 40
1.5
  0
CIRCLE
  5
92
330
1F
100
AcDbEntity
  8
0
  6
Continuous
 62
     7
370
    25
100
AcDbCircle
 10
159.2564600318
 20
361.1590482917
 30
0.0
 40
1.5
  0
CIRCLE
  5
93
330
1F
100
AcDbEntity
  8
0
  6
Continuous
 62
     7
370
    25
100
AcDbCircle
 10
121.9433777281
 20
309.8019964118
 30
0.0
 40
1.5
  0
CIRCLE
  5
94
330
1F
100
AcDbEntity
  8
0
  6
Continuous
 62
     7
370
    25
100
AcDbCircle
 10
201.8887359693
 20
328.6524025784
 30
0.0
 40
1.5
  0
CIRCLE
  5
95
330
1F
100
AcDbEntity
  8
0
  6
Continuous
 62
     7
370
    25
100
AcDbCircle
 10
201.8887359693
 20
290.9515902452
 30
0.0
 40
1.5
  0
CIRCLE
  5
96
330
1F
100
AcDbEntity
  8
0
  6
Continuous
 62
     7
370
    25
100
AcDbCircle
 10
166.0331327302
 20
279.3013985325
 30
0.0
 40
1.5
  0
CIRCLE
  5
97
330
1F
100
AcDbEntity
  8
0
  6
Continuous
 62
     7
370
    25
100
AcDbCircle
 10
143.8731512413
 20
309.8019964118
 30
0.0
 40
1.5
  0
LINE
  5
98
330
1F
100
AcDbEntity
  8
0
  6
Continuous
 62
     7
370
    25
100
AcDbLine
 10
177.61768026
 20
334.0154192665
 30
0.0
 11
181.8377598907
 21
325.5372676322
 31
0.0
  0
ARC
  5
99
330
1F
100
AcDbEntity
  8
0
  6
Continuous
 62
     7
370
    25
100
AcDbCircle
 10
166.3252449878
 20
325.1272437059
 30
0.0
 40
14.37075926235435
100
AcDbArc
 50
38.2059699698
 51
205.9435436502
  0
LINE
  5
9A
330
1F
100
AcDbEntity
  8
0
  6
Continuous
 62
     7
370
    25
100
AcDbLine
 10
155.7695744346
 20
310.4246829426
 30
0.0
 11
153.4026907543
 21
318.8402480701
 31
0.0
  0
LINE
  5
9B
330
1F
100
AcDbEntity
  8
0
  6
Continuous
 62
     7
370
    25
100
AcDbLine
 10
150.979377308
 20
311.1431424295
 30
0.0
 11
155.7695744346
 21
310.4246829426
 31
0.0
  0
ARC
  5
9C
330
1F
100
AcDbEntity
  8
0
  6
Continuous
 62
     7
370
    25
100
AcDbCircle
 10
175.9433777281
 20
309.8019964118
 30
0.0
 40
25.00000000000003
100
AcDbArc
 50
176.9248436326
 51
66.0680249748
  0
LINE
  5
9D
330
1F
100
AcDbEntity
  8
0
  6
Continuous
 62
     7
370
    25
100
AcDbLine
 10
181.8377598907
 20
325.5372676322
 30
0.0
 11
186.0846727873
 21
332.6526894489
 31
0.0
  0
CIRCLE
  5
9E
330
1F
100
AcDbEntity
  8
0
  6
Continuous
 62
     7
370
    25
100
AcDbCircle
 10
151.9854702998
 20
315.061218999
 30
0.0
 40
1.5
  0
CIRCLE
  5
9F
330
1F
100
AcDbEntity
  8
0
  6
Continuous
 62
     7
370
    25
100
AcDbCircle
 10
181.6845097462
 20
333.5805887497
 30
0.0
 40
1.499999999999972
  0
LINE
  5
A0
330
1F
100
AcDbEntity
  8
0
  6
Continuous
 62
     7
370
    25
100
AcDbLine
 10
287.9427477121
 20
328.2782584387
 30
0.0
 11
285.5758640319
 21
336.6938233334
 31
0.0
  0
CIRCLE
  5
A1
330
1F
100
AcDbEntity
  8
0
  6
Continuous
 62
     7
370
    25
100
AcDbCircle
 10
284.1586434885
 20
332.9147949159
 30
0.0
 40
1.5
  0
CIRCLE
  5
A2
330
1F
100
AcDbEntity
  8
0
  6
Continuous
 62
     7
370
    25
100
AcDbCircle
 10
313.8576829349
 20
351.4341646666
 30
0.0
 40
1.5
  0
LINE
  5
A3
330
1F
100
AcDbEntity
  8
0
  6
Continuous
 62
     7
370
    25
100
AcDbLine
 10
274.8566988259
 20
330.2409741986
 30
0.0
 11
287.9427477121
 21
328.2782584387
 31
0.0
  0
ARC
  5
A4
330
1F
100
AcDbEntity
  8
0
  6
Continuous
 62
     7
370
    25
100
AcDbCircle
 10
306.6366104266
 20
330.1935081434
 30
0.0
 40
31.7799464067804
100
AcDbArc
 50
59.9468749798
 51
179.9144233201
  0
LINE
  5
A5
330
1F
100
AcDbEntity
  8
0
  6
Continuous
 62
     7
370
    25
100
AcDbLine
 10
314.0109345652
 20
343.3908438269
 30
0.0
 11
322.552095294
 21
357.7010035474
 31
0.0
  0
LINE
  5
A6
330
1F
100
AcDbEntity
  8
0
  6
Continuous
 62
     7
370
    25
100
AcDbLine
 10
309.7908523734
 20
351.8689945299
 30
0.0
 11
314.0109345652
 21
343.3908438269
 31
0.0
  0
ARC
  5
A7
330
1F
100
AcDbEntity
  8
0
  6
Continuous
 62
     7
370
    25
100
AcDbCircle
 10
298.4984181764
 20
342.9808196228
 30
0.0
 40
14.3707592623544
100
AcDbArc
 50
38.2059699698
 51
205.9435436502
  0
LINE
  5
A8
330
1F
100
AcDbEntity
  8
0
  6
Continuous
 62
     7
370
    25
100
AcDbLine
 10
295.8291218404
 20
305.5078933699
 30
0.0
 11
293.4622381601
 21
313.9234582645
 31
0.0
  0
CIRCLE
  5
A9
330
1F
100
AcDbEntity
  8
0
  6
Continuous
 62
     7
370
    25
100
AcDbCircle
 10
292.0450176167
 20
310.144429847
 30
0.0
 40
1.5
  0
CIRCLE
  5
AA
330
1F
100
AcDbEntity
  8
0
  6
Continuous
 62
     7
370
    25
100
AcDbCircle
 10
321.7440570631
 20
328.6637995977
 30
0.0
 40
1.5
  0
LINE
  5
AB
330
1F
100
AcDbEntity
  8
0
  6
Continuous
 62
     7
370
    25
100
AcDbLine
 10
282.7430729542
 20
307.4706091297
 30
0.0
 11
295.8291218404
 21
305.5078933699
 31
0.0
  0
ARC
  5
AC
330
1F
100
AcDbEntity
  8
0
  6
Continuous
 62
     7
370
    25
100
AcDbCircle
 10
314.5229845549
 20
307.4231430745
 30
0.0
 40
31.7799464067804
100
AcDbArc
 50
59.9468749798
 51
179.9144233201
  0
LINE
  5
AD
330
1F
100
AcDbEntity
  8
0
  6
Continuous
 62
     7
370
    25
100
AcDbLine
 10
321.8973086934
 20
320.620478758
 30
0.0
 11
330.4384694222
 21
334.9306384785
 31
0.0
  0
LINE
  5
AE
330
1F
100
AcDbEntity
  8
0
  6
Continuous
 62
     7
370
    25
100
AcDbLine
 10
317.6772265017
 20
329.098629461
 30
0.0
 11
321.8973086934
 21
320.620478758
 31
0.0
  0
ARC
  5
AF
330
1F
100
AcDbEntity
  8
0
  6
Continuous
 62
     7
370
    25
100
AcDbCircle
 10
306.3847923046
 20
320.2104545539
 30
0.0
 40
14.37075926235435
100
AcDbArc
 50
38.2059699698
 51
205.9435436502
  0
LINE
  5
B0
330
1F
100
AcDbEntity
  8
0
  6
Continuous
 62
     7
370
    25
100
AcDbLine
 10
294.6524707206
 20
275.5032898156
 30
0.0
 11
292.2855870404
 21
283.9188547103
 31
0.0
  0
CIRCLE
  5
B1
330
1F
100
AcDbEntity
  8
0
  6
Continuous
 62
     7
370
    25
100
AcDbCircle
 10
290.8683664969
 20
280.1398262928
 30
0.0
 40
1.5
  0
CIRCLE
  5
B2
330
1F
100
AcDbEntity
  8
0
  6
Continuous
 62
     7
370
    25
100
AcDbCircle
 10
320.5674059433
 20
298.6591960434
 30
0.0
 40
1.5
  0
LINE
  5
B3
330
1F
100
AcDbEntity
  8
0
  6
Continuous
 62
     7
370
    25
100
AcDbLine
 10
281.5664218344
 20
277.4660055755
 30
0.0
 11
294.6524707206
 21
275.5032898156
 31
0.0
  0
ARC
  5
B4
330
1F
100
AcDbEntity
  8
0
  6
Continuous
 62
     7
370
    25
100
AcDbCircle
 10
313.3463334351
 20
277.4185395203
 30
0.0
 40
31.7799464067804
100
AcDbArc
 50
59.9468749798
 51
179.9144233201
  0
LINE
  5
B5
330
1F
100
AcDbEntity
  8
0
  6
Continuous
 62
     7
370
    25
100
AcDbLine
 10
320.7206575737
 20
290.6158752037
 30
0.0
 11
329.2618183024
 21
304.9260349242
 31
0.0
  0
LINE
  5
B6
330
1F
100
AcDbEntity
  8
0
  6
Continuous
 62
     7
370
    25
100
AcDbLine
 10
316.5005753819
 20
299.0940259067
 30
0.0
 11
320.7206575737
 21
290.6158752037
 31
0.0
  0
ARC
  5
B7
330
1F
100
AcDbEntity
  8
0
  6
Continuous
 62
     7
370
    25
100
AcDbCircle
 10
305.2081411849
 20
290.2058509996
 30
0.0
 40
14.37075926235437
100
AcDbArc
 50
38.2059699698
 51
205.9435436502
  0
LINE
  5
B8
330
1F
100
AcDbEntity
  8
0
  6
Continuous
 62
     7
370
    25
100
AcDbLine
 10
295.2407962805
 20
241.968732902
 30
0.0
 11
292.8739126002
 21
250.3842977967
 31
0.0
  0
CIRCLE
  5
B9
330
1F
100
AcDbEntity
  8
0
  6
Continuous
 62
     7
370
    25
100
AcDbCircle
 10
291.4566920568
 20
246.6052693792
 30
0.0
 40
1.5
  0
CIRCLE
  5
BA
330
1F
100
AcDbEntity
  8
0
  6
Continuous
 62
     7
370
    25
100
AcDbCircle
 10
321.1557315032
 20
265.1246391298
 30
0.0
 40
1.5
  0
LINE
  5
BB
330
1F
100
AcDbEntity
  8
0
  6
Continuous
 62
     7
370
    25
100
AcDbLine
 10
282.1547473943
 20
243.9314486619
 30
0.0
 11
295.2407962805
 21
241.968732902
 31
0.0
  0
ARC
  5
BC
330
1F
100
AcDbEntity
  8
0
  6
Continuous
 62
     7
370
    25
100
AcDbCircle
 10
313.934658995
 20
243.8839826067
 30
0.0
 40
31.77994640678037
100
AcDbArc
 50
59.9468749798
 51
179.9144233201
  0
LINE
  5
BD
330
1F
100
AcDbEntity
  8
0
  6
Continuous
 62
     7
370
    25
100
AcDbLine
 10
321.3089831335
 20
257.0813182901
 30
0.0
 11
329.8501438623
 21
271.3914780106
 31
0.0
  0
LINE
  5
BE
330
1F
100
AcDbEntity
  8
0
  6
Continuous
 62
     7
370
    25
100
AcDbLine
 10
317.0889009418
 20
265.5594689932
 30
0.0
 11
321.3089831335
 21
257.0813182901
 31
0.0
  0
ARC
  5
BF
330
1F
100
AcDbEntity
  8
0
  6
Continuous
 62
     7
370
    25
100
AcDbCircle
 10
305.7964667448
 20
256.671294086
 30
0.0
 40
14.37075926235437
100
AcDbArc
 50
38.2059699698
 51
205.9435436502
  0
LINE
  5
C0
330
1F
100
AcDbEntity
  8
0
  6
Continuous
 62
     7
370
    25
100
AcDbLine
 10
335.8352599127
 20
340.2191014032
 30
0.0
 11
333.4683762325
 21
348.6346662979
 31
0.0
  0
CIRCLE
  5
C1
330
1F
100
AcDbEntity
  8
0
  6
Continuous
 62
     7
370
    25
100
AcDbCircle
 10
332.051155689
 20
344.8556378804
 30
0.0
 40
1.5
  0
CIRCLE
  5
C2
330
1F
100
AcDbEntity
  8
0
  6
Continuous
 62
     7
370
    25
100
AcDbCircle
 10
361.7501951354
 20
363.375007631
 30
0.0
 40
1.5
  0
LINE
  5
C3
330
1F
100
AcDbEntity
  8
0
  6
Continuous
 62
     7
370
    25
100
AcDbLine
 10
322.7492110265
 20
342.1818171631
 30
0.0
 11
335.8352599127
 21
340.2191014032
 31
0.0
  0
ARC
  5
C4
330
1F
100
AcDbEntity
  8
0
  6
Continuous
 62
     7
370
    25
100
AcDbCircle
 10
354.5291226272
 20
342.1343511079
 30
0.0
 40
31.77994640678045
100
AcDbArc
 50
59.9468749798
 51
179.9144233201
  0
LINE
  5
C5
330
1F
100
AcDbEntity
  8
0
  6
Continuous
 62
     7
370
    25
100
AcDbLine
 10
361.9034467658
 20
355.3316867913
 30
0.0
 11
370.4446074946
 21
369.6418465118
 31
0.0
  0
LINE
  5
C6
330
1F
100
AcDbEntity
  8
0
  6
Continuous
 62
     7
370
    25
100
AcDbLine
 10
357.683364574
 20
363.8098374944
 30
0.0
 11
361.9034467658
 21
355.3316867913
 31
0.0
  0
ARC
  5
C7
330
1F
100
AcDbEntity
  8
0
  6
Continuous
 62
     7
370
    25
100
AcDbCircle
 10
346.390930377
 20
354.9216625872
 30
0.0
 40
14.37075926235442
100
AcDbArc
 50
38.2059699698
 51
205.9435436502
  0
LINE
  5
C8
330
1F
100
AcDbEntity
  8
0
  6
Continuous
 62
     7
370
    25
100
AcDbLine
 10
340.5418643918
 20
310.8028234088
 30
0.0
 11
338.1749807116
 21
319.2183883035
 31
0.0
  0
CIRCLE
  5
C9
330
1F
100
AcDbEntity
  8
0
  6
Continuous
 62
     7
370
    25
100
AcDbCircle
 10
336.7577601681
 20
315.439359886
 30
0.0
 40
1.5
  0
CIRCLE
  5
CA
330
1F
100
AcDbEntity
  8
0
  6
Continuous
 62
     7
370
    25
100
AcDbCircle
 10
366.4567996145
 20
333.9587296366
 30
0.0
 40
1.5
  0
LINE
  5
CB
330
1F
100
AcDbEntity
  8
0
  6
Continuous
 62
     7
370
    25
100
AcDbLine
 10
327.4558155056
 20
312.7655391687
 30
0.0
 11
340.5418643918
 21
310.8028234088
 31
0.0
  0
ARC
  5
CC
330
1F
100
AcDbEntity
  8
0
  6
Continuous
 62
     7
370
    25
100
AcDbCircle
 10
359.2357271063
 20
312.7180731135
 30
0.0
 40
31.77994640678035
100
AcDbArc
 50
59.9468749798
 51
179.9144233201
  0
LINE
  5
CD
330
1F
100
AcDbEntity
  8
0
  6
Continuous
 62
     7
370
    25
100
AcDbLine
 10
366.6100512449
 20
325.915408797
 30
0.0
 11
375.1512119737
 21
340.2255685174
 31
0.0
  0
LINE
  5
CE
330
1F
100
AcDbEntity
  8
0
  6
Continuous
 62
     7
370
    25
100
AcDbLine
 10
362.3899690531
 20
334.3935595
 30
0.0
 11
366.6100512449
 21
325.915408797
 31
0.0
  0
ARC
  5
CF
330
1F
100
AcDbEntity
  8
0
  6
Continuous
 62
     7
370
    25
100
AcDbCircle
 10
351.0975348561
 20
325.5053845928
 30
0.0
 40
14.3707592623544
100
AcDbArc
 50
38.2059699698
 51
205.9435436502
  0
LINE
  5
D0
330
1F
100
AcDbEntity
  8
0
  6
Continuous
 62
     7
370
    25
100
AcDbLine
 10
341.1301899517
 20
279.6215687348
 30
0.0
 11
338.7633062715
 21
288.0371336295
 31
0.0
  0
CIRCLE
  5
D1
330
1F
100
AcDbEntity
  8
0
  6
Continuous
 62
     7
370
    25
100
AcDbCircle
 10
337.346085728
 20
284.258105212
 30
0.0
 40
1.5
  0
CIRCLE
  5
D2
330
1F
100
AcDbEntity
  8
0
  6
Continuous
 62
     7
370
    25
100
AcDbCircle
 10
367.0451251744
 20
302.7774749626
 30
0.0
 40
1.5
  0
LINE
  5
D3
330
1F
100
AcDbEntity
  8
0
  6
Continuous
 62
     7
370
    25
100
AcDbLine
 10
328.0441410655
 20
281.5842844947
 30
0.0
 11
341.1301899517
 21
279.6215687348
 31
0.0
  0
ARC
  5
D4
330
1F
100
AcDbEntity
  8
0
  6
Continuous
 62
     7
370
    25
100
AcDbCircle
 10
359.8240526662
 20
281.5368184395
 30
0.0
 40
31.77994640678037
100
AcDbArc
 50
59.9468749798
 51
179.9144233201
  0
LINE
  5
D5
330
1F
100
AcDbEntity
  8
0
  6
Continuous
 62
     7
370
    25
100
AcDbLine
 10
367.1983768048
 20
294.7341541229
 30
0.0
 11
375.7395375335
 21
309.0443138434
 31
0.0
  0
LINE
  5
D6
330
1F
100
AcDbEntity
  8
0
  6
Continuous
 62
     7
370
    25
100
AcDbLine
 10
362.978294613
 20
303.212304826
 30
0.0
 11
367.1983768048
 21
294.7341541229
 31
0.0
  0
ARC
  5
D7
330
1F
100
AcDbEntity
  8
0
  6
Continuous
 62
     7
370
    25
100
AcDbCircle
 10
351.685860416
 20
294.3241299188
 30
0.0
 40
14.37075926235437
100
AcDbArc
 50
38.2059699698
 51
205.9435436502
  0
LINE
  5
D8
330
1F
100
AcDbEntity
  8
0
  6
Continuous
 62
     7
370
    25
100
AcDbLine
 10
338.1885621522
 20
245.4986862613
 30
0.0
 11
335.821678472
 21
253.914251156
 31
0.0
  0
CIRCLE
  5
D9
330
1F
100
AcDbEntity
  8
0
  6
Continuous
 62
     7
370
    25
100
AcDbCircle
 10
334.4044579286
 20
250.1352227385
 30
0.0
 40
1.500000000000028
  0
CIRCLE
  5
DA
330
1F
100
AcDbEntity
  8
0
  6
Continuous
 62
     7
370
    25
100
AcDbCircle
 10
364.103497375
 20
268.6545924891
 30
0.0
 40
1.5
  0
LINE
  5
DB
330
1F
100
AcDbEntity
  8
0
  6
Continuous
 62
     7
370
    25
100
AcDbLine
 10
325.1025132661
 20
247.4614020212
 30
0.0
 11
338.1885621522
 21
245.4986862613
 31
0.0
  0
ARC
  5
DC
330
1F
100
AcDbEntity
  8
0
  6
Continuous
 62
     7
370
    25
100
AcDbCircle
 10
356.8824248668
 20
247.413935966
 30
0.0
 40
31.77994640678043
100
AcDbArc
 50
59.9468749798
 51
179.9144233201
  0
LINE
  5
DD
330
1F
100
AcDbEntity
  8
0
  6
Continuous
 62
     7
370
    25
100
AcDbLine
 10
364.2567490053
 20
260.6112716495
 30
0.0
 11
372.7979097341
 21
274.92143137
 31
0.0
  0
LINE
  5
DE
330
1F
100
AcDbEntity
  8
0
  6
Continuous
 62
     7
370
    25
100
AcDbLine
 10
360.0366668136
 20
269.0894223525
 30
0.0
 11
364.2567490053
 21
260.6112716495
 31
0.0
  0
ARC
  5
DF
330
1F
100
AcDbEntity
  8
0
  6
Continuous
 62
     7
370
    25
100
AcDbCircle
 10
348.7442326165
 20
260.2012474453
 30
0.0
 40
14.37075926235441
100
AcDbArc
 50
38.2059699698
 51
205.9435436502
  0
ARC
  5
E0
330
1F
100
AcDbEntity
  8
0
  6
Continuous
 62
     7
370
    25
100
AcDbCircle
 10
166.3959406958
 20
326.7646556278
 30
0.0
 40
2.299999999999986
100
AcDbArc
 50
47.966483062
 51
132.033516938
  0
LINE
  5
E1
330
1F
100
AcDbEntity
  8
0
  6
Continuous
 62
     7
370
    25
100
AcDbLine
 10
164.8559406958
 20
328.4729881482
 30
0.0
 11
164.8559406958
 21
325.0563231075
 31
0.0
  0
ARC
  5
E2
330
1F
100
AcDbEntity
  8
0
  6
Continuous
 62
     7
370
    25
100
AcDbCircle
 10
166.3959406958
 20
326.7646556278
 30
0.0
 40
2.299999999999986
100
AcDbArc
 50
227.966483062
 51
312.033516938
  0
LINE
  5
E3
330
1F
100
AcDbEntity
  8
0
  6
Continuous
 62
     7
370
    25
100
AcDbLine
 10
167.9359406958
 20
325.0563231075
 30
0.0
 11
167.9359406958
 21
328.4729881482
 31
0.0
  0
LINE
  5
E4
330
1F
100
AcDbEntity
  8
0
  6
Continuous
 62
     7
370
    25
100
AcDbLine
 10
173.7625754767
 20
329.0464093523
 30
0.0
 11
173.2123024594
 21
328.835546332
 31
0.0
  0
LINE
  5
E5
330
1F
100
AcDbEntity
  8
0
  6
Continuous
 62
     7
370
    25
100
AcDbLine
 10
174.3558963421
 20
329.1665715431
 30
0.0
 11
173.7625754767
 21
329.0464093523
 31
0.0
  0
LINE
  5
E6
330
1F
100
AcDbEntity
  8
0
  6
Continuous
 62
     7
370
    25
100
AcDbLine
 10
175.0020527956
 20
329.1832132817
 30
0.0
 11
174.3558963421
 21
329.1665715431
 31
0.0
  0
LINE
  5
E7
330
1F
100
AcDbEntity
  8
0
  6
Continuous
 62
     7
370
    25
100
AcDbLine
 10
175.6038203464
 20
329.0930289782
 30
0.0
 11
175.0020527956
 21
329.1832132817
 31
0.0
  0
LINE
  5
E8
330
1F
100
AcDbEntity
  8
0
  6
Continuous
 62
     7
370
    25
100
AcDbLine
 10
176.1729260733
 20
328.9065497253
 30
0.0
 11
175.6038203464
 21
329.0930289782
 31
0.0
  0
LINE
  5
E9
330
1F
100
AcDbEntity
  8
0
  6
Continuous
 62
     7
370
    25
100
AcDbLine
 10
176.7326146986
 20
328.6094240578
 30
0.0
 11
176.1729260733
 21
328.9065497253
 31
0.0
  0
LINE
  5
EA
330
1F
100
AcDbEntity
  8
0
  6
Continuous
 62
     7
370
    25
100
AcDbLine
 10
176.7764325153
 20
328.3443358442
 30
0.0
 11
176.7326146986
 21
328.6094240578
 31
0.0
  0
LINE
  5
EB
330
1F
100
AcDbEntity
  8
0
  6
Continuous
 62
     7
370
    25
100
AcDbLine
 10
176.8134531801
 20
327.9146556278
 30
0.0
 11
176.7764325153
 21
328.3443358442
 31
0.0
  0
LINE
  5
EC
330
1F
100
AcDbEntity
  8
0
  6
Continuous
 62
     7
370
    25
100
AcDbLine
 10
176.3794441786
 20
327.4765626476
 30
0.0
 11
176.8134531801
 21
327.9146556278
 31
0.0
  0
LINE
  5
ED
330
1F
100
AcDbEntity
  8
0
  6
Continuous
 62
     7
370
    25
100
AcDbLine
 10
175.8867747343
 20
327.1258195403
 30
0.0
 11
176.3794441786
 21
327.4765626476
 31
0.0
  0
LINE
  5
EE
330
1F
100
AcDbEntity
  8
0
  6
Continuous
 62
     7
370
    25
100
AcDbLine
 10
175.33191332
 20
327.0156135107
 30
0.0
 11
175.8867747343
 21
327.1258195403
 31
0.0
  0
LINE
  5
EF
330
1F
100
AcDbEntity
  8
0
  6
Continuous
 62
     7
370
    25
100
AcDbLine
 10
174.7100566075
 20
326.8392918189
 30
0.0
 11
175.33191332
 21
327.0156135107
 31
0.0
  0
LINE
  5
F0
330
1F
100
AcDbEntity
  8
0
  6
Continuous
 62
     7
370
    25
100
AcDbLine
 10
174.1078498323
 20
326.7775212656
 30
0.0
 11
174.7100566075
 21
326.8392918189
 31
0.0
  0
LINE
  5
F1
330
1F
100
AcDbEntity
  8
0
  6
Continuous
 62
     7
370
    25
100
AcDbLine
 10
173.5197617362
 20
326.8151510168
 30
0.0
 11
174.1078498323
 21
326.7775212656
 31
0.0
  0
ARC
  5
F2
330
1F
100
AcDbEntity
  8
0
  6
Continuous
 62
     7
370
    25
100
AcDbCircle
 10
166.3959406958
 20
326.7646556278
 30
0.0
 40
7.124000000000027
100
AcDbArc
 50
346.899397122
 51
0.4061197218
  0
LINE
  5
F3
330
1F
100
AcDbEntity
  8
0
  6
Continuous
 62
     7
370
    25
100
AcDbLine
 10
173.9165104187
 20
325.057394928
 30
0.0
 11
173.3345284965
 21
325.1499187043
 31
0.0
  0
LINE
  5
F4
330
1F
100
AcDbEntity
  8
0
  6
Continuous
 62
     7
370
    25
100
AcDbLine
 10
174.4904224561
 20
324.8647980051
 30
0.0
 11
173.9165104187
 21
325.057394928
 31
0.0
  0
LINE
  5
F5
330
1F
100
AcDbEntity
  8
0
  6
Continuous
 62
     7
370
    25
100
AcDbLine
 10
175.058331229
 20
324.5561319468
 30
0.0
 11
174.4904224561
 21
324.8647980051
 31
0.0
  0
LINE
  5
F6
330
1F
100
AcDbEntity
  8
0
  6
Continuous
 62
     7
370
    25
100
AcDbLine
 10
175.5343850633
 20
324.1771462734
 30
0.0
 11
175.058331229
 21
324.5561319468
 31
0.0
  0
LINE
  5
F7
330
1F
100
AcDbEntity
  8
0
  6
Continuous
 62
     7
370
    25
100
AcDbLine
 10
175.9340054539
 20
323.7310976397
 30
0.0
 11
175.5343850633
 21
324.1771462734
 31
0.0
  0
LINE
  5
F8
330
1F
100
AcDbEntity
  8
0
  6
Continuous
 62
     7
370
    25
100
AcDbLine
 10
176.2701471879
 20
323.1939349509
 30
0.0
 11
175.9340054539
 21
323.7310976397
 31
0.0
  0
LINE
  5
F9
330
1F
100
AcDbEntity
  8
0
  6
Continuous
 62
     7
370
    25
100
AcDbLine
 10
176.1755504234
 20
322.9424529153
 30
0.0
 11
176.2701471879
 21
323.1939349509
 31
0.0
  0
LINE
  5
FA
330
1F
100
AcDbEntity
  8
0
  6
Continuous
 62
     7
370
    25
100
AcDbLine
 10
175.9927711514
 20
322.5518286
 30
0.0
 11
176.1755504234
 21
322.9424529153
 31
0.0
  0
LINE
  5
FB
330
1F
100
AcDbEntity
  8
0
  6
Continuous
 62
     7
370
    25
100
AcDbLine
 10
175.3978618406
 20
322.3894334507
 30
0.0
 11
175.9927711514
 21
322.5518286
 31
0.0
  0
LINE
  5
FC
330
1F
100
AcDbEntity
  8
0
  6
Continuous
 62
     7
370
    25
100
AcDbLine
 10
174.7958260324
 20
322.3320157317
 30
0.0
 11
175.3978618406
 21
322.3894334507
 31
0.0
  0
LINE
  5
FD
330
1F
100
AcDbEntity
  8
0
  6
Continuous
 62
     7
370
    25
100
AcDbLine
 10
174.2601989373
 20
322.5140052177
 30
0.0
 11
174.7958260324
 21
322.3320157317
 31
0.0
  0
LINE
  5
FE
330
1F
100
AcDbEntity
  8
0
  6
Continuous
 62
     7
370
    25
100
AcDbLine
 10
173.6334943809
 20
322.6722345095
 30
0.0
 11
174.2601989373
 21
322.5140052177
 31
0.0
  0
LINE
  5
FF
330
1F
100
AcDbEntity
  8
0
  6
Continuous
 62
     7
370
    25
100
AcDbLine
 10
173.0810827385
 20
322.9198430287
 30
0.0
 11
173.6334943809
 21
322.6722345095
 31
0.0
  0
LINE
  5
100
330
1F
100
AcDbEntity
  8
0
  6
Continuous
 62
     7
370
    25
100
AcDbLine
 10
172.5905983833
 20
323.2464753972
 30
0.0
 11
173.0810827385
 21
322.9198430287
 31
0.0
  0
ARC
  5
101
330
1F
100
AcDbEntity
  8
0
  6
Continuous
 62
     7
370
    25
100
AcDbCircle
 10
166.3959406958
 20
326.7646556278
 30
0.0
 40
7.123999999999993
100
AcDbArc
 50
316.899397122
 51
330.4061197218
  0
LINE
  5
102
330
1F
100
AcDbEntity
  8
0
  6
Continuous
 62
     7
370
    25
100
AcDbLine
 10
172.0553147768
 20
321.5258396295
 30
0.0
 11
171.5975655359
 21
321.8969585313
 31
0.0
  0
LINE
  5
103
330
1F
100
AcDbEntity
  8
0
  6
Continuous
 62
     7
370
    25
100
AcDbLine
 10
172.4560387193
 20
321.0720897828
 30
0.0
 11
172.0553147768
 21
321.5258396295
 31
0.0
  0
LINE
  5
104
330
1F
100
AcDbEntity
  8
0
  6
Continuous
 62
     7
370
    25
100
AcDbLine
 10
172.7935291145
 20
320.5208227486
 30
0.0
 11
172.4560387193
 21
321.0720897828
 31
0.0
  0
LINE
  5
105
330
1F
100
AcDbEntity
  8
0
  6
Continuous
 62
     7
370
    25
100
AcDbLine
 10
173.016310992
 20
319.9545846107
 30
0.0
 11
172.7935291145
 21
320.5208227486
 31
0.0
  0
LINE
  5
106
330
1F
100
AcDbEntity
  8
0
  6
Continuous
 62
     7
370
    25
100
AcDbLine
 10
173.1393680852
 20
319.3684849673
 30
0.0
 11
173.016310992
 21
319.9545846107
 31
0.0
  0
LINE
  5
107
330
1F
100
AcDbEntity
  8
0
  6
Continuous
 62
     7
370
    25
100
AcDbLine
 10
173.1618940217
 20
318.7352175658
 30
0.0
 11
173.1393680852
 21
319.3684849673
 31
0.0
  0
LINE
  5
108
330
1F
100
AcDbEntity
  8
0
  6
Continuous
 62
     7
370
    25
100
AcDbLine
 10
172.9542298028
 20
318.5647261166
 30
0.0
 11
173.1618940217
 21
318.7352175658
 31
0.0
  0
LINE
  5
109
330
1F
100
AcDbEntity
  8
0
  6
Continuous
 62
     7
370
    25
100
AcDbLine
 10
172.6006261523
 20
318.3178251722
 30
0.0
 11
172.9542298028
 21
318.5647261166
 31
0.0
  0
LINE
  5
10A
330
1F
100
AcDbEntity
  8
0
  6
Continuous
 62
     7
370
    25
100
AcDbLine
 10
172.0042220015
 20
318.4746415029
 30
0.0
 11
172.6006261523
 21
318.3178251722
 31
0.0
  0
LINE
  5
10B
330
1F
100
AcDbEntity
  8
0
  6
Continuous
 62
     7
370
    25
100
AcDbLine
 10
171.4541348382
 20
318.7259342037
 30
0.0
 11
172.0042220015
 21
318.4746415029
 31
0.0
  0
LINE
  5
10C
330
1F
100
AcDbEntity
  8
0
  6
Continuous
 62
     7
370
    25
100
AcDbLine
 10
171.0812629098
 20
319.1513552693
 30
0.0
 11
171.4541348382
 21
318.7259342037
 31
0.0
  0
LINE
  5
10D
330
1F
100
AcDbEntity
  8
0
  6
Continuous
 62
     7
370
    25
100
AcDbLine
 10
170.6176354891
 20
319.6017381338
 30
0.0
 11
171.0812629098
 21
319.1513552693
 31
0.0
  0
LINE
  5
10E
330
1F
100
AcDbEntity
  8
0
  6
Continuous
 62
     7
370
    25
100
AcDbLine
 10
170.2630372331
 20
320.0923792229
 30
0.0
 11
170.6176354891
 21
319.6017381338
 31
0.0
  0
LINE
  5
10F
330
1F
100
AcDbEntity
  8
0
  6
Continuous
 62
     7
370
    25
100
AcDbLine
 10
170.0015815057
 20
320.6204933293
 30
0.0
 11
170.2630372331
 21
320.0923792229
 31
0.0
  0
ARC
  5
110
330
1F
100
AcDbEntity
  8
0
  6
Continuous
 62
     7
370
    25
100
AcDbCircle
 10
166.3959406958
 20
326.7646556278
 30
0.0
 40
7.123999999999999
100
AcDbArc
 50
286.899397122
 51
300.4061197218
  0
LINE
  5
111
330
1F
100
AcDbEntity
  8
0
  6
Continuous
 62
     7
370
    25
100
AcDbLine
 10
168.6776944203
 20
319.398020847
 30
0.0
 11
168.4668314
 21
319.9482938643
 31
0.0
  0
LINE
  5
112
330
1F
100
AcDbEntity
  8
0
  6
Continuous
 62
     7
370
    25
100
AcDbLine
 10
168.7978566111
 20
318.8046999816
 30
0.0
 11
168.6776944203
 21
319.398020847
 31
0.0
  0
LINE
  5
113
330
1F
100
AcDbEntity
  8
0
  6
Continuous
 62
     7
370
    25
100
AcDbLine
 10
168.8144983497
 20
318.1585435281
 30
0.0
 11
168.7978566111
 21
318.8046999816
 31
0.0
  0
LINE
  5
114
330
1F
100
AcDbEntity
  8
0
  6
Continuous
 62
     7
370
    25
100
AcDbLine
 10
168.7243140462
 20
317.5567759773
 30
0.0
 11
168.8144983497
 21
318.1585435281
 31
0.0
  0
LINE
  5
115
330
1F
100
AcDbEntity
  8
0
  6
Continuous
 62
     7
370
    25
100
AcDbLine
 10
168.5378347933
 20
316.9876702504
 30
0.0
 11
168.7243140462
 21
317.5567759773
 31
0.0
  0
LINE
  5
116
330
1F
100
AcDbEntity
  8
0
  6
Continuous
 62
     7
370
    25
100
AcDbLine
 10
168.2407091258
 20
316.4279816251
 30
0.0
 11
168.5378347933
 21
316.9876702504
 31
0.0
  0
LINE
  5
117
330
1F
100
AcDbEntity
  8
0
  6
Continuous
 62
     7
370
    25
100
AcDbLine
 10
167.9756209122
 20
316.3841638084
 30
0.0
 11
168.2407091258
 21
316.4279816251
 31
0.0
  0
LINE
  5
118
330
1F
100
AcDbEntity
  8
0
  6
Continuous
 62
     7
370
    25
100
AcDbLine
 10
167.5459406958
 20
316.3471431436
 30
0.0
 11
167.9756209122
 21
316.3841638084
 31
0.0
  0
LINE
  5
119
330
1F
100
AcDbEntity
  8
0
  6
Continuous
 62
     7
370
    25
100
AcDbLine
 10
167.1078477156
 20
316.7811521451
 30
0.0
 11
167.5459406958
 21
316.3471431436
 31
0.0
  0
LINE
  5
11A
330
1F
100
AcDbEntity
  8
0
  6
Continuous
 62
     7
370
    25
100
AcDbLine
 10
166.7571046083
 20
317.2738215894
 30
0.0
 11
167.1078477156
 21
316.7811521451
 31
0.0
  0
LINE
  5
11B
330
1F
100
AcDbEntity
  8
0
  6
Continuous
 62
     7
370
    25
100
AcDbLine
 10
166.6468985787
 20
317.8286830037
 30
0.0
 11
166.7571046083
 21
317.2738215894
 31
0.0
  0
LINE
  5
11C
330
1F
100
AcDbEntity
  8
0
  6
Continuous
 62
     7
370
    25
100
AcDbLine
 10
166.4705768869
 20
318.4505397162
 30
0.0
 11
166.6468985787
 21
317.8286830037
 31
0.0
  0
LINE
  5
11D
330
1F
100
AcDbEntity
  8
0
  6
Continuous
 62
     7
370
    25
100
AcDbLine
 10
166.4088063336
 20
319.0527464914
 30
0.0
 11
166.4705768869
 21
318.4505397162
 31
0.0
  0
LINE
  5
11E
330
1F
100
AcDbEntity
  8
0
  6
Continuous
 62
     7
370
    25
100
AcDbLine
 10
166.4464360848
 20
319.6408345874
 30
0.0
 11
166.4088063336
 21
319.0527464914
 31
0.0
  0
ARC
  5
11F
330
1F
100
AcDbEntity
  8
0
  6
Continuous
 62
     7
370
    25
100
AcDbCircle
 10
166.3959406958
 20
326.7646556278
 30
0.0
 40
7.124000000000125
100
AcDbArc
 50
256.899397122
 51
270.4061197218
  0
LINE
  5
120
330
1F
100
AcDbEntity
  8
0
  6
Continuous
 62
     7
370
    25
100
AcDbLine
 10
164.688679996
 20
319.244085905
 30
0.0
 11
164.7812037723
 21
319.8260678272
 31
0.0
  0
LINE
  5
121
330
1F
100
AcDbEntity
  8
0
  6
Continuous
 62
     7
370
    25
100
AcDbLine
 10
164.4960830731
 20
318.6701738676
 30
0.0
 11
164.688679996
 21
319.244085905
 31
0.0
  0
LINE
  5
122
330
1F
100
AcDbEntity
  8
0
  6
Continuous
 62
     7
370
    25
100
AcDbLine
 10
164.1874170148
 20
318.1022650947
 30
0.0
 11
164.4960830731
 21
318.6701738676
 31
0.0
  0
LINE
  5
123
330
1F
100
AcDbEntity
  8
0
  6
Continuous
 62
     7
370
    25
100
AcDbLine
 10
163.8084313414
 20
317.6262112604
 30
0.0
 11
164.1874170148
 21
318.1022650947
 31
0.0
  0
LINE
  5
124
330
1F
100
AcDbEntity
  8
0
  6
Continuous
 62
     7
370
    25
100
AcDbLine
 10
163.3623827077
 20
317.2265908698
 30
0.0
 11
163.8084313414
 21
317.6262112604
 31
0.0
  0
LINE
  5
125
330
1F
100
AcDbEntity
  8
0
  6
Continuous
 62
     7
370
    25
100
AcDbLine
 10
162.8252200189
 20
316.8904491358
 30
0.0
 11
163.3623827077
 21
317.2265908698
 31
0.0
  0
LINE
  5
126
330
1F
100
AcDbEntity
  8
0
  6
Continuous
 62
     7
370
    25
100
AcDbLine
 10
162.5737379833
 20
316.9850459002
 30
0.0
 11
162.8252200189
 21
316.8904491358
 31
0.0
  0
LINE
  5
127
330
1F
100
AcDbEntity
  8
0
  6
Continuous
 62
     7
370
    25
100
AcDbLine
 10
162.183113668
 20
317.1678251723
 30
0.0
 11
162.5737379833
 21
316.9850459002
 31
0.0
  0
LINE
  5
128
330
1F
100
AcDbEntity
  8
0
  6
Continuous
 62
     7
370
    25
100
AcDbLine
 10
162.0207185187
 20
317.7627344831
 30
0.0
 11
162.183113668
 21
317.1678251723
 31
0.0
  0
LINE
  5
129
330
1F
100
AcDbEntity
  8
0
  6
Continuous
 62
     7
370
    25
100
AcDbLine
 10
161.9633007997
 20
318.3647702912
 30
0.0
 11
162.0207185187
 21
317.7627344831
 31
0.0
  0
LINE
  5
12A
330
1F
100
AcDbEntity
  8
0
  6
Continuous
 62
     7
370
    25
100
AcDbLine
 10
162.1452902857
 20
318.9003973864
 30
0.0
 11
161.9633007997
 21
318.3647702912
 31
0.0
  0
LINE
  5
12B
330
1F
100
AcDbEntity
  8
0
  6
Continuous
 62
     7
370
    25
100
AcDbLine
 10
162.3035195775
 20
319.5271019428
 30
0.0
 11
162.1452902857
 21
318.9003973864
 31
0.0
  0
LINE
  5
12C
330
1F
100
AcDbEntity
  8
0
  6
Continuous
 62
     7
370
    25
100
AcDbLine
 10
162.5511280967
 20
320.0795135852
 30
0.0
 11
162.3035195775
 21
319.5271019428
 31
0.0
  0
LINE
  5
12D
330
1F
100
AcDbEntity
  8
0
  6
Continuous
 62
     7
370
    25
100
AcDbLine
 10
162.8777604652
 20
320.5699979404
 30
0.0
 11
162.5511280967
 21
320.0795135852
 31
0.0
  0
ARC
  5
12E
330
1F
100
AcDbEntity
  8
0
  6
Continuous
 62
     7
370
    25
100
AcDbCircle
 10
166.3959406958
 20
326.7646556278
 30
0.0
 40
7.123999999999937
100
AcDbArc
 50
226.899397122
 51
240.4061197218
  0
LINE
  5
12F
330
1F
100
AcDbEntity
  8
0
  6
Continuous
 62
     7
370
    25
100
AcDbLine
 10
161.1571246975
 20
321.1052815469
 30
0.0
 11
161.5282435993
 21
321.5630307878
 31
0.0
  0
LINE
  5
130
330
1F
100
AcDbEntity
  8
0
  6
Continuous
 62
     7
370
    25
100
AcDbLine
 10
160.7033748508
 20
320.7045576044
 30
0.0
 11
161.1571246975
 21
321.1052815469
 31
0.0
  0
LINE
  5
131
330
1F
100
AcDbEntity
  8
0
  6
Continuous
 62
     7
370
    25
100
AcDbLine
 10
160.1521078166
 20
320.3670672092
 30
0.0
 11
160.7033748508
 21
320.7045576044
 31
0.0
  0
LINE
  5
132
330
1F
100
AcDbEntity
  8
0
  6
Continuous
 62
     7
370
    25
100
AcDbLine
 10
159.5858696787
 20
320.1442853317
 30
0.0
 11
160.1521078166
 21
320.3670672092
 31
0.0
  0
LINE
  5
133
330
1F
100
AcDbEntity
  8
0
  6
Continuous
 62
     7
370
    25
100
AcDbLine
 10
158.9997700353
 20
320.0212282385
 30
0.0
 11
159.5858696787
 21
320.1442853317
 31
0.0
  0
LINE
  5
134
330
1F
100
AcDbEntity
  8
0
  6
Continuous
 62
     7
370
    25
100
AcDbLine
 10
158.3665026338
 20
319.998702302
 30
0.0
 11
158.9997700353
 21
320.0212282385
 31
0.0
  0
LINE
  5
135
330
1F
100
AcDbEntity
  8
0
  6
Continuous
 62
     7
370
    25
100
AcDbLine
 10
158.1960111846
 20
320.2063665209
 30
0.0
 11
158.3665026338
 21
319.998702302
 31
0.0
  0
LINE
  5
136
330
1F
100
AcDbEntity
  8
0
  6
Continuous
 62
     7
370
    25
100
AcDbLine
 10
157.9491102402
 20
320.5599701714
 30
0.0
 11
158.1960111846
 21
320.2063665209
 31
0.0
  0
LINE
  5
137
330
1F
100
AcDbEntity
  8
0
  6
Continuous
 62
     7
370
    25
100
AcDbLine
 10
158.1059265709
 20
321.1563743222
 30
0.0
 11
157.9491102402
 21
320.5599701714
 31
0.0
  0
LINE
  5
138
330
1F
100
AcDbEntity
  8
0
  6
Continuous
 62
     7
370
    25
100
AcDbLine
 10
158.3572192717
 20
321.7064614855
 30
0.0
 11
158.1059265709
 21
321.1563743222
 31
0.0
  0
LINE
  5
139
330
1F
100
AcDbEntity
  8
0
  6
Continuous
 62
     7
370
    25
100
AcDbLine
 10
158.7826403373
 20
322.0793334139
 30
0.0
 11
158.3572192717
 21
321.7064614855
 31
0.0
  0
LINE
  5
13A
330
1F
100
AcDbEntity
  8
0
  6
Continuous
 62
     7
370
    25
100
AcDbLine
 10
159.2330232018
 20
322.5429608345
 30
0.0
 11
158.7826403373
 21
322.0793334139
 31
0.0
  0
LINE
  5
13B
330
1F
100
AcDbEntity
  8
0
  6
Continuous
 62
     7
370
    25
100
AcDbLine
 10
159.7236642909
 20
322.8975590905
 30
0.0
 11
159.2330232018
 21
322.5429608345
 31
0.0
  0
LINE
  5
13C
330
1F
100
AcDbEntity
  8
0
  6
Continuous
 62
     7
370
    25
100
AcDbLine
 10
160.2517783973
 20
323.159014818
 30
0.0
 11
159.7236642909
 21
322.8975590905
 31
0.0
  0
ARC
  5
13D
330
1F
100
AcDbEntity
  8
0
  6
Continuous
 62
     7
370
    25
100
AcDbCircle
 10
166.3959406958
 20
326.7646556278
 30
0.0
 40
7.123999999999937
100
AcDbArc
 50
196.899397122
 51
210.4061197218
  0
LINE
  5
13E
330
1F
100
AcDbEntity
  8
0
  6
Continuous
 62
     7
370
    25
100
AcDbLine
 10
159.029305915
 20
324.4829019034
 30
0.0
 11
159.5795789323
 21
324.6937649237
 31
0.0
  0
LINE
  5
13F
330
1F
100
AcDbEntity
  8
0
  6
Continuous
 62
     7
370
    25
100
AcDbLine
 10
158.4359850496
 20
324.3627397126
 30
0.0
 11
159.029305915
 21
324.4829019034
 31
0.0
  0
LINE
  5
140
330
1F
100
AcDbEntity
  8
0
  6
Continuous
 62
     7
370
    25
100
AcDbLine
 10
157.7898285961
 20
324.3460979739
 30
0.0
 11
158.4359850496
 21
324.3627397126
 31
0.0
  0
LINE
  5
141
330
1F
100
AcDbEntity
  8
0
  6
Continuous
 62
     7
370
    25
100
AcDbLine
 10
157.1880610453
 20
324.4362822775
 30
0.0
 11
157.7898285961
 21
324.3460979739
 31
0.0
  0
LINE
  5
142
330
1F
100
AcDbEntity
  8
0
  6
Continuous
 62
     7
370
    25
100
AcDbLine
 10
156.6189553184
 20
324.6227615304
 30
0.0
 11
157.1880610453
 21
324.4362822775
 31
0.0
  0
LINE
  5
143
330
1F
100
AcDbEntity
  8
0
  6
Continuous
 62
     7
370
    25
100
AcDbLine
 10
156.0592666931
 20
324.9198871979
 30
0.0
 11
156.6189553184
 21
324.6227615304
 31
0.0
  0
LINE
  5
144
330
1F
100
AcDbEntity
  8
0
  6
Continuous
 62
     7
370
    25
100
AcDbLine
 10
156.0154488764
 20
325.1849754115
 30
0.0
 11
156.0592666931
 21
324.9198871979
 31
0.0
  0
LINE
  5
145
330
1F
100
AcDbEntity
  8
0
  6
Continuous
 62
     7
370
    25
100
AcDbLine
 10
155.9784282116
 20
325.6146556279
 30
0.0
 11
156.0154488764
 21
325.1849754115
 31
0.0
  0
LINE
  5
146
330
1F
100
AcDbEntity
  8
0
  6
Continuous
 62
     7
370
    25
100
AcDbLine
 10
156.4124372131
 20
326.0527486081
 30
0.0
 11
155.9784282116
 21
325.6146556279
 31
0.0
  0
LINE
  5
147
330
1F
100
AcDbEntity
  8
0
  6
Continuous
 62
     7
370
    25
100
AcDbLine
 10
156.9051066574
 20
326.4034917154
 30
0.0
 11
156.4124372131
 21
326.0527486081
 31
0.0
  0
LINE
  5
148
330
1F
100
AcDbEntity
  8
0
  6
Continuous
 62
     7
370
    25
100
AcDbLine
 10
157.4599680717
 20
326.5136977449
 30
0.0
 11
156.9051066574
 21
326.4034917154
 31
0.0
  0
LINE
  5
149
330
1F
100
AcDbEntity
  8
0
  6
Continuous
 62
     7
370
    25
100
AcDbLine
 10
158.0818247842
 20
326.6900194368
 30
0.0
 11
157.4599680717
 21
326.5136977449
 31
0.0
  0
LINE
  5
14A
330
1F
100
AcDbEntity
  8
0
  6
Continuous
 62
     7
370
    25
100
AcDbLine
 10
158.6840315594
 20
326.7517899901
 30
0.0
 11
158.0818247842
 21
326.6900194368
 31
0.0
  0
LINE
  5
14B
330
1F
100
AcDbEntity
  8
0
  6
Continuous
 62
     7
370
    25
100
AcDbLine
 10
159.2721196554
 20
326.7141602389
 30
0.0
 11
158.6840315594
 21
326.7517899901
 31
0.0
  0
ARC
  5
14C
330
1F
100
AcDbEntity
  8
0
  6
Continuous
 62
     7
370
    25
100
AcDbCircle
 10
166.3959406958
 20
326.7646556278
 30
0.0
 40
7.123999999999959
100
AcDbArc
 50
166.899397122
 51
180.4061197218
  0
LINE
  5
14D
330
1F
100
AcDbEntity
  8
0
  6
Continuous
 62
     7
370
    25
100
AcDbLine
 10
158.875370973
 20
328.4719163277
 30
0.0
 11
159.4573528952
 21
328.3793925514
 31
0.0
  0
LINE
  5
14E
330
1F
100
AcDbEntity
  8
0
  6
Continuous
 62
     7
370
    25
100
AcDbLine
 10
158.3014589356
 20
328.6645132506
 30
0.0
 11
158.875370973
 21
328.4719163277
 31
0.0
  0
LINE
  5
14F
330
1F
100
AcDbEntity
  8
0
  6
Continuous
 62
     7
370
    25
100
AcDbLine
 10
157.7335501627
 20
328.9731793089
 30
0.0
 11
158.3014589356
 21
328.6645132506
 31
0.0
  0
LINE
  5
150
330
1F
100
AcDbEntity
  8
0
  6
Continuous
 62
     7
370
    25
100
AcDbLine
 10
157.2574963284
 20
329.3521649822
 30
0.0
 11
157.7335501627
 21
328.9731793089
 31
0.0
  0
LINE
  5
151
330
1F
100
AcDbEntity
  8
0
  6
Continuous
 62
     7
370
    25
100
AcDbLine
 10
156.8578759378
 20
329.798213616
 30
0.0
 11
157.2574963284
 21
329.3521649822
 31
0.0
  0
LINE
  5
152
330
1F
100
AcDbEntity
  8
0
  6
Continuous
 62
     7
370
    25
100
AcDbLine
 10
156.5217342038
 20
330.3353763048
 30
0.0
 11
156.8578759378
 21
329.798213616
 31
0.0
  0
LINE
  5
153
330
1F
100
AcDbEntity
  8
0
  6
Continuous
 62
     7
370
    25
100
AcDbLine
 10
156.6163309682
 20
330.5868583404
 30
0.0
 11
156.5217342038
 21
330.3353763048
 31
0.0
  0
LINE
  5
154
330
1F
100
AcDbEntity
  8
0
  6
Continuous
 62
     7
370
    25
100
AcDbLine
 10
156.7991102403
 20
330.9774826557
 30
0.0
 11
156.6163309682
 21
330.5868583404
 31
0.0
  0
LINE
  5
155
330
1F
100
AcDbEntity
  8
0
  6
Continuous
 62
     7
370
    25
100
AcDbLine
 10
157.3940195511
 20
331.139877805
 30
0.0
 11
156.7991102403
 21
330.9774826557
 31
0.0
  0
LINE
  5
156
330
1F
100
AcDbEntity
  8
0
  6
Continuous
 62
     7
370
    25
100
AcDbLine
 10
157.9960553592
 20
331.197295524
 30
0.0
 11
157.3940195511
 21
331.139877805
 31
0.0
  0
LINE
  5
157
330
1F
100
AcDbEntity
  8
0
  6
Continuous
 62
     7
370
    25
100
AcDbLine
 10
158.5316824544
 20
331.015306038
 30
0.0
 11
157.9960553592
 21
331.197295524
 31
0.0
  0
LINE
  5
158
330
1F
100
AcDbEntity
  8
0
  6
Continuous
 62
     7
370
    25
100
AcDbLine
 10
159.1583870108
 20
330.8570767462
 30
0.0
 11
158.5316824544
 21
331.015306038
 31
0.0
  0
LINE
  5
159
330
1F
100
AcDbEntity
  8
0
  6
Continuous
 62
     7
370
    25
100
AcDbLine
 10
159.7107986532
 20
330.609468227
 30
0.0
 11
159.1583870108
 21
330.8570767462
 31
0.0
  0
LINE
  5
15A
330
1F
100
AcDbEntity
  8
0
  6
Continuous
 62
     7
370
    25
100
AcDbLine
 10
160.2012830084
 20
330.2828358584
 30
0.0
 11
159.7107986532
 21
330.609468227
 31
0.0
  0
ARC
  5
15B
330
1F
100
AcDbEntity
  8
0
  6
Continuous
 62
     7
370
    25
100
AcDbCircle
 10
166.3959406958
 20
326.7646556278
 30
0.0
 40
7.123999999999917
100
AcDbArc
 50
136.899397122
 51
150.4061197218
  0
LINE
  5
15C
330
1F
100
AcDbEntity
  8
0
  6
Continuous
 62
     7
370
    25
100
AcDbLine
 10
160.7365666149
 20
332.0034716262
 30
0.0
 11
161.1943158558
 21
331.6323527244
 31
0.0
  0
LINE
  5
15D
330
1F
100
AcDbEntity
  8
0
  6
Continuous
 62
     7
370
    25
100
AcDbLine
 10
160.3358426724
 20
332.4572214729
 30
0.0
 11
160.7365666149
 21
332.0034716262
 31
0.0
  0
LINE
  5
15E
330
1F
100
AcDbEntity
  8
0
  6
Continuous
 62
     7
370
    25
100
AcDbLine
 10
159.9983522772
 20
333.0084885071
 30
0.0
 11
160.3358426724
 21
332.4572214729
 31
0.0
  0
LINE
  5
15F
330
1F
100
AcDbEntity
  8
0
  6
Continuous
 62
     7
370
    25
100
AcDbLine
 10
159.7755703997
 20
333.574726645
 30
0.0
 11
159.9983522772
 21
333.0084885071
 31
0.0
  0
LINE
  5
160
330
1F
100
AcDbEntity
  8
0
  6
Continuous
 62
     7
370
    25
100
AcDbLine
 10
159.6525133065
 20
334.1608262884
 30
0.0
 11
159.7755703997
 21
333.574726645
 31
0.0
  0
LINE
  5
161
330
1F
100
AcDbEntity
  8
0
  6
Continuous
 62
     7
370
    25
100
AcDbLine
 10
159.62998737
 20
334.7940936899
 30
0.0
 11
159.6525133065
 21
334.1608262884
 31
0.0
  0
LINE
  5
162
330
1F
100
AcDbEntity
  8
0
  6
Continuous
 62
     7
370
    25
100
AcDbLine
 10
159.8376515889
 20
334.9645851391
 30
0.0
 11
159.62998737
 21
334.7940936899
 31
0.0
  0
LINE
  5
163
330
1F
100
AcDbEntity
  8
0
  6
Continuous
 62
     7
370
    25
100
AcDbLine
 10
160.1912552394
 20
335.2114860835
 30
0.0
 11
159.8376515889
 21
334.9645851391
 31
0.0
  0
LINE
  5
164
330
1F
100
AcDbEntity
  8
0
  6
Continuous
 62
     7
370
    25
100
AcDbLine
 10
160.7876593902
 20
335.0546697528
 30
0.0
 11
160.1912552394
 21
335.2114860835
 31
0.0
  0
LINE
  5
165
330
1F
100
AcDbEntity
  8
0
  6
Continuous
 62
     7
370
    25
100
AcDbLine
 10
161.3377465535
 20
334.803377052
 30
0.0
 11
160.7876593902
 21
335.0546697528
 31
0.0
  0
LINE
  5
166
330
1F
100
AcDbEntity
  8
0
  6
Continuous
 62
     7
370
    25
100
AcDbLine
 10
161.7106184819
 20
334.3779559864
 30
0.0
 11
161.3377465535
 21
334.803377052
 31
0.0
  0
LINE
  5
167
330
1F
100
AcDbEntity
  8
0
  6
Continuous
 62
     7
370
    25
100
AcDbLine
 10
162.1742459025
 20
333.9275731219
 30
0.0
 11
161.7106184819
 21
334.3779559864
 31
0.0
  0
LINE
  5
168
330
1F
100
AcDbEntity
  8
0
  6
Continuous
 62
     7
370
    25
100
AcDbLine
 10
162.5288441585
 20
333.4369320328
 30
0.0
 11
162.1742459025
 21
333.9275731219
 31
0.0
  0
LINE
  5
169
330
1F
100
AcDbEntity
  8
0
  6
Continuous
 62
     7
370
    25
100
AcDbLine
 10
162.790299886
 20
332.9088179264
 30
0.0
 11
162.5288441585
 21
333.4369320328
 31
0.0
  0
ARC
  5
16A
330
1F
100
AcDbEntity
  8
0
  6
Continuous
 62
     7
370
    25
100
AcDbCircle
 10
166.3959406958
 20
326.7646556278
 30
0.0
 40
7.123999999999937
100
AcDbArc
 50
106.899397122
 51
120.4061197218
  0
LINE
  5
16B
330
1F
100
AcDbEntity
  8
0
  6
Continuous
 62
     7
370
    25
100
AcDbLine
 10
164.1141869714
 20
334.1312904087
 30
0.0
 11
164.3250499917
 21
333.5810173914
 31
0.0
  0
LINE
  5
16C
330
1F
100
AcDbEntity
  8
0
  6
Continuous
 62
     7
370
    25
100
AcDbLine
 10
163.9940247806
 20
334.7246112741
 30
0.0
 11
164.1141869714
 21
334.1312904087
 31
0.0
  0
LINE
  5
16D
330
1F
100
AcDbEntity
  8
0
  6
Continuous
 62
     7
370
    25
100
AcDbLine
 10
163.9773830419
 20
335.3707677276
 30
0.0
 11
163.9940247806
 21
334.7246112741
 31
0.0
  0
LINE
  5
16E
330
1F
100
AcDbEntity
  8
0
  6
Continuous
 62
     7
370
    25
100
AcDbLine
 10
164.0675673455
 20
335.9725352784
 30
0.0
 11
163.9773830419
 21
335.3707677276
 31
0.0
  0
LINE
  5
16F
330
1F
100
AcDbEntity
  8
0
  6
Continuous
 62
     7
370
    25
100
AcDbLine
 10
164.2540465984
 20
336.5416410053
 30
0.0
 11
164.0675673455
 21
335.9725352784
 31
0.0
  0
LINE
  5
170
330
1F
100
AcDbEntity
  8
0
  6
Continuous
 62
     7
370
    25
100
AcDbLine
 10
164.5511722659
 20
337.1013296306
 30
0.0
 11
164.2540465984
 21
336.5416410053
 31
0.0
  0
LINE
  5
171
330
1F
100
AcDbEntity
  8
0
  6
Continuous
 62
     7
370
    25
100
AcDbLine
 10
164.8162604795
 20
337.1451474473
 30
0.0
 11
164.5511722659
 21
337.1013296306
 31
0.0
  0
LINE
  5
172
330
1F
100
AcDbEntity
  8
0
  6
Continuous
 62
     7
370
    25
100
AcDbLine
 10
165.2459406959
 20
337.1821681121
 30
0.0
 11
164.8162604795
 21
337.1451474473
 31
0.0
  0
LINE
  5
173
330
1F
100
AcDbEntity
  8
0
  6
Continuous
 62
     7
370
    25
100
AcDbLine
 10
165.6840336761
 20
336.7481591106
 30
0.0
 11
165.2459406959
 21
337.1821681121
 31
0.0
  0
LINE
  5
174
330
1F
100
AcDbEntity
  8
0
  6
Continuous
 62
     7
370
    25
100
AcDbLine
 10
166.0347767834
 20
336.2554896663
 30
0.0
 11
165.6840336761
 21
336.7481591106
 31
0.0
  0
LINE
  5
175
330
1F
100
AcDbEntity
  8
0
  6
Continuous
 62
     7
370
    25
100
AcDbLine
 10
166.1449828129
 20
335.700628252
 30
0.0
 11
166.0347767834
 21
336.2554896663
 31
0.0
  0
LINE
  5
176
330
1F
100
AcDbEntity
  8
0
  6
Continuous
 62
     7
370
    25
100
AcDbLine
 10
166.3213045048
 20
335.0787715395
 30
0.0
 11
166.1449828129
 21
335.700628252
 31
0.0
  0
LINE
  5
177
330
1F
100
AcDbEntity
  8
0
  6
Continuous
 62
     7
370
    25
100
AcDbLine
 10
166.3830750581
 20
334.4765647643
 30
0.0
 11
166.3213045048
 21
335.0787715395
 31
0.0
  0
LINE
  5
178
330
1F
100
AcDbEntity
  8
0
  6
Continuous
 62
     7
370
    25
100
AcDbLine
 10
166.3454453069
 20
333.8884766682
 30
0.0
 11
166.3830750581
 21
334.4765647643
 31
0.0
  0
ARC
  5
179
330
1F
100
AcDbEntity
  8
0
  6
Continuous
 62
     7
370
    25
100
AcDbCircle
 10
166.3959406958
 20
326.7646556278
 30
0.0
 40
7.123999999999959
100
AcDbArc
 50
76.899397122
 51
90.4061197218
  0
LINE
  5
17A
330
1F
100
AcDbEntity
  8
0
  6
Continuous
 62
     7
370
    25
100
AcDbLine
 10
168.1032013957
 20
334.2852253507
 30
0.0
 11
168.0106776194
 21
333.7032434285
 31
0.0
  0
LINE
  5
17B
330
1F
100
AcDbEntity
  8
0
  6
Continuous
 62
     7
370
    25
100
AcDbLine
 10
168.2957983186
 20
334.8591373881
 30
0.0
 11
168.1032013957
 21
334.2852253507
 31
0.0
  0
LINE
  5
17C
330
1F
100
AcDbEntity
  8
0
  6
Continuous
 62
     7
370
    25
100
AcDbLine
 10
168.6044643769
 20
335.427046161
 30
0.0
 11
168.2957983186
 21
334.8591373881
 31
0.0
  0
LINE
  5
17D
330
1F
100
AcDbEntity
  8
0
  6
Continuous
 62
     7
370
    25
100
AcDbLine
 10
168.9834500502
 20
335.9030999953
 30
0.0
 11
168.6044643769
 21
335.427046161
 31
0.0
  0
LINE
  5
17E
330
1F
100
AcDbEntity
  8
0
  6
Continuous
 62
     7
370
    25
100
AcDbLine
 10
169.429498684
 20
336.3027203859
 30
0.0
 11
168.9834500502
 21
335.9030999953
 31
0.0
  0
LINE
  5
17F
330
1F
100
AcDbEntity
  8
0
  6
Continuous
 62
     7
370
    25
100
AcDbLine
 10
169.9666613728
 20
336.6388621199
 30
0.0
 11
169.429498684
 21
336.3027203859
 31
0.0
  0
LINE
  5
180
330
1F
100
AcDbEntity
  8
0
  6
Continuous
 62
     7
370
    25
100
AcDbLine
 10
170.2181434084
 20
336.5442653554
 30
0.0
 11
169.9666613728
 21
336.6388621199
 31
0.0
  0
LINE
  5
181
330
1F
100
AcDbEntity
  8
0
  6
Continuous
 62
     7
370
    25
100
AcDbLine
 10
170.6087677237
 20
336.3614860834
 30
0.0
 11
170.2181434084
 21
336.5442653554
 31
0.0
  0
LINE
  5
182
330
1F
100
AcDbEntity
  8
0
  6
Continuous
 62
     7
370
    25
100
AcDbLine
 10
170.771162873
 20
335.7665767726
 30
0.0
 11
170.6087677237
 21
336.3614860834
 31
0.0
  0
LINE
  5
183
330
1F
100
AcDbEntity
  8
0
  6
Continuous
 62
     7
370
    25
100
AcDbLine
 10
170.828580592
 20
335.1645409644
 30
0.0
 11
170.771162873
 21
335.7665767726
 31
0.0
  0
LINE
  5
184
330
1F
100
AcDbEntity
  8
0
  6
Continuous
 62
     7
370
    25
100
AcDbLine
 10
170.646591106
 20
334.6289138693
 30
0.0
 11
170.828580592
 21
335.1645409644
 31
0.0
  0
LINE
  5
185
330
1F
100
AcDbEntity
  8
0
  6
Continuous
 62
     7
370
    25
100
AcDbLine
 10
170.4883618142
 20
334.0022093129
 30
0.0
 11
170.646591106
 21
334.6289138693
 31
0.0
  0
LINE
  5
186
330
1F
100
AcDbEntity
  8
0
  6
Continuous
 62
     7
370
    25
100
AcDbLine
 10
170.240753295
 20
333.4497976705
 30
0.0
 11
170.4883618142
 21
334.0022093129
 31
0.0
  0
LINE
  5
187
330
1F
100
AcDbEntity
  8
0
  6
Continuous
 62
     7
370
    25
100
AcDbLine
 10
169.9141209264
 20
332.9593133153
 30
0.0
 11
170.240753295
 21
333.4497976705
 31
0.0
  0
ARC
  5
188
330
1F
100
AcDbEntity
  8
0
  6
Continuous
 62
     7
370
    25
100
AcDbCircle
 10
166.3959406958
 20
326.7646556278
 30
0.0
 40
7.123999999999997
100
AcDbArc
 50
46.899397122
 51
60.4061197218
  0
LINE
  5
189
330
1F
100
AcDbEntity
  8
0
  6
Continuous
 62
     7
370
    25
100
AcDbLine
 10
171.6347566942
 20
332.4240297088
 30
0.0
 11
171.2636377924
 21
331.9662804679
 31
0.0
  0
LINE
  5
18A
330
1F
100
AcDbEntity
  8
0
  6
Continuous
 62
     7
370
    25
100
AcDbLine
 10
172.0885065409
 20
332.8247536513
 30
0.0
 11
171.6347566942
 21
332.4240297088
 31
0.0
  0
LINE
  5
18B
330
1F
100
AcDbEntity
  8
0
  6
Continuous
 62
     7
370
    25
100
AcDbLine
 10
172.6397735751
 20
333.1622440465
 30
0.0
 11
172.0885065409
 21
332.8247536513
 31
0.0
  0
LINE
  5
18C
330
1F
100
AcDbEntity
  8
0
  6
Continuous
 62
     7
370
    25
100
AcDbLine
 10
173.206011713
 20
333.385025924
 30
0.0
 11
172.6397735751
 21
333.1622440465
 31
0.0
  0
LINE
  5
18D
330
1F
100
AcDbEntity
  8
0
  6
Continuous
 62
     7
370
    25
100
AcDbLine
 10
173.7921113564
 20
333.5080830172
 30
0.0
 11
173.206011713
 21
333.385025924
 31
0.0
  0
LINE
  5
18E
330
1F
100
AcDbEntity
  8
0
  6
Continuous
 62
     7
370
    25
100
AcDbLine
 10
174.4253787579
 20
333.5306089537
 30
0.0
 11
173.7921113564
 21
333.5080830172
 31
0.0
  0
LINE
  5
18F
330
1F
100
AcDbEntity
  8
0
  6
Continuous
 62
     7
370
    25
100
AcDbLine
 10
174.5958702071
 20
333.3229447348
 30
0.0
 11
174.4253787579
 21
333.5306089537
 31
0.0
  0
LINE
  5
190
330
1F
100
AcDbEntity
  8
0
  6
Continuous
 62
     7
370
    25
100
AcDbLine
 10
174.8427711515
 20
332.9693410843
 30
0.0
 11
174.5958702071
 21
333.3229447348
 31
0.0
  0
LINE
  5
191
330
1F
100
AcDbEntity
  8
0
  6
Continuous
 62
     7
370
    25
100
AcDbLine
 10
174.6859548208
 20
332.3729369335
 30
0.0
 11
174.8427711515
 21
332.9693410843
 31
0.0
  0
LINE
  5
192
330
1F
100
AcDbEntity
  8
0
  6
Continuous
 62
     7
370
    25
100
AcDbLine
 10
174.43466212
 20
331.8228497702
 30
0.0
 11
174.6859548208
 21
332.3729369335
 31
0.0
  0
LINE
  5
193
330
1F
100
AcDbEntity
  8
0
  6
Continuous
 62
     7
370
    25
100
AcDbLine
 10
174.0092410544
 20
331.4499778418
 30
0.0
 11
174.43466212
 21
331.8228497702
 31
0.0
  0
LINE
  5
194
330
1F
100
AcDbEntity
  8
0
  6
Continuous
 62
     7
370
    25
100
AcDbLine
 10
173.5588581899
 20
330.9863504211
 30
0.0
 11
174.0092410544
 21
331.4499778418
 31
0.0
  0
LINE
  5
195
330
1F
100
AcDbEntity
  8
0
  6
Continuous
 62
     7
370
    25
100
AcDbLine
 10
173.0682171008
 20
330.6317521651
 30
0.0
 11
173.5588581899
 21
330.9863504211
 31
0.0
  0
LINE
  5
196
330
1F
100
AcDbEntity
  8
0
  6
Continuous
 62
     7
370
    25
100
AcDbLine
 10
172.5401029944
 20
330.3702964377
 30
0.0
 11
173.0682171008
 21
330.6317521651
 31
0.0
  0
ARC
  5
197
330
1F
100
AcDbEntity
  8
0
  6
Continuous
 62
     7
370
    25
100
AcDbCircle
 10
166.3959406958
 20
326.7646556278
 30
0.0
 40
7.124000000000009
100
AcDbArc
 50
16.899397122
 51
30.4061197218
  0
ARC
  5
198
330
1F
100
AcDbEntity
  8
0
  6
Continuous
 62
     7
370
    25
100
AcDbCircle
 10
166.073466416
 20
303.224033197
 30
0.0
 40
2.300000000000028
100
AcDbArc
 50
47.966483062
 51
132.033516938
  0
LINE
  5
199
330
1F
100
AcDbEntity
  8
0
  6
Continuous
 62
     7
370
    25
100
AcDbLine
 10
164.533466416
 20
304.9323657174
 30
0.0
 11
164.533466416
 21
301.5157006767
 31
0.0
  0
ARC
  5
19A
330
1F
100
AcDbEntity
  8
0
  6
Continuous
 62
     7
370
    25
100
AcDbCircle
 10
166.073466416
 20
303.224033197
 30
0.0
 40
2.299999999999986
100
AcDbArc
 50
227.966483062
 51
312.033516938
  0
LINE
  5
19B
330
1F
100
AcDbEntity
  8
0
  6
Continuous
 62
     7
370
    25
100
AcDbLine
 10
167.613466416
 20
301.5157006767
 30
0.0
 11
167.613466416
 21
304.9323657174
 31
0.0
  0
LINE
  5
19C
330
1F
100
AcDbEntity
  8
0
  6
Continuous
 62
     7
370
    25
100
AcDbLine
 10
173.4401011968
 20
305.5057869215
 30
0.0
 11
172.8898281795
 21
305.2949239012
 31
0.0
  0
LINE
  5
19D
330
1F
100
AcDbEntity
  8
0
  6
Continuous
 62
     7
370
    25
100
AcDbLine
 10
174.0334220622
 20
305.6259491123
 30
0.0
 11
173.4401011968
 21
305.5057869215
 31
0.0
  0
LINE
  5
19E
330
1F
100
AcDbEntity
  8
0
  6
Continuous
 62
     7
370
    25
100
AcDbLine
 10
174.6795785157
 20
305.6425908509
 30
0.0
 11
174.0334220622
 21
305.6259491123
 31
0.0
  0
LINE
  5
19F
330
1F
100
AcDbEntity
  8
0
  6
Continuous
 62
     7
370
    25
100
AcDbLine
 10
175.2813460665
 20
305.5524065474
 30
0.0
 11
174.6795785157
 21
305.6425908509
 31
0.0
  0
LINE
  5
1A0
330
1F
100
AcDbEntity
  8
0
  6
Continuous
 62
     7
370
    25
100
AcDbLine
 10
175.8504517934
 20
305.3659272945
 30
0.0
 11
175.2813460665
 21
305.5524065474
 31
0.0
  0
LINE
  5
1A1
330
1F
100
AcDbEntity
  8
0
  6
Continuous
 62
     7
370
    25
100
AcDbLine
 10
176.4101404188
 20
305.068801627
 30
0.0
 11
175.8504517934
 21
305.3659272945
 31
0.0
  0
LINE
  5
1A2
330
1F
100
AcDbEntity
  8
0
  6
Continuous
 62
     7
370
    25
100
AcDbLine
 10
176.4539582354
 20
304.8037134134
 30
0.0
 11
176.4101404188
 21
305.068801627
 31
0.0
  0
LINE
  5
1A3
330
1F
100
AcDbEntity
  8
0
  6
Continuous
 62
     7
370
    25
100
AcDbLine
 10
176.4909789002
 20
304.374033197
 30
0.0
 11
176.4539582354
 21
304.8037134134
 31
0.0
  0
LINE
  5
1A4
330
1F
100
AcDbEntity
  8
0
  6
Continuous
 62
     7
370
    25
100
AcDbLine
 10
176.0569698988
 20
303.9359402168
 30
0.0
 11
176.4909789002
 21
304.374033197
 31
0.0
  0
LINE
  5
1A5
330
1F
100
AcDbEntity
  8
0
  6
Continuous
 62
     7
370
    25
100
AcDbLine
 10
175.5643004544
 20
303.5851971095
 30
0.0
 11
176.0569698988
 21
303.9359402168
 31
0.0
  0
LINE
  5
1A6
330
1F
100
AcDbEntity
  8
0
  6
Continuous
 62
     7
370
    25
100
AcDbLine
 10
175.0094390401
 20
303.4749910799
 30
0.0
 11
175.5643004544
 21
303.5851971095
 31
0.0
  0
LINE
  5
1A7
330
1F
100
AcDbEntity
  8
0
  6
Continuous
 62
     7
370
    25
100
AcDbLine
 10
174.3875823277
 20
303.2986693881
 30
0.0
 11
175.0094390401
 21
303.4749910799
 31
0.0
  0
LINE
  5
1A8
330
1F
100
AcDbEntity
  8
0
  6
Continuous
 62
     7
370
    25
100
AcDbLine
 10
173.7853755524
 20
303.2368988348
 30
0.0
 11
174.3875823277
 21
303.2986693881
 31
0.0
  0
LINE
  5
1A9
330
1F
100
AcDbEntity
  8
0
  6
Continuous
 62
     7
370
    25
100
AcDbLine
 10
173.1972874564
 20
303.274528586
 30
0.0
 11
173.7853755524
 21
303.2368988348
 31
0.0
  0
ARC
  5
1AA
330
1F
100
AcDbEntity
  8
0
  6
Continuous
 62
     7
370
    25
100
AcDbCircle
 10
166.073466416
 20
303.224033197
 30
0.0
 40
7.124000000000012
100
AcDbArc
 50
346.899397122
 51
0.4061197218
  0
LINE
  5
1AB
330
1F
100
AcDbEntity
  8
0
  6
Continuous
 62
     7
370
    25
100
AcDbLine
 10
173.5940361388
 20
301.5167724972
 30
0.0
 11
173.0120542167
 21
301.6092962735
 31
0.0
  0
LINE
  5
1AC
330
1F
100
AcDbEntity
  8
0
  6
Continuous
 62
     7
370
    25
100
AcDbLine
 10
174.1679481762
 20
301.3241755743
 30
0.0
 11
173.5940361388
 21
301.5167724972
 31
0.0
  0
LINE
  5
1AD
330
1F
100
AcDbEntity
  8
0
  6
Continuous
 62
     7
370
    25
100
AcDbLine
 10
174.7358569491
 20
301.015509516
 30
0.0
 11
174.1679481762
 21
301.3241755743
 31
0.0
  0
LINE
  5
1AE
330
1F
100
AcDbEntity
  8
0
  6
Continuous
 62
     7
370
    25
100
AcDbLine
 10
175.2119107835
 20
300.6365238426
 30
0.0
 11
174.7358569491
 21
301.015509516
 31
0.0
  0
LINE
  5
1AF
330
1F
100
AcDbEntity
  8
0
  6
Continuous
 62
     7
370
    25
100
AcDbLine
 10
175.611531174
 20
300.1904752089
 30
0.0
 11
175.2119107835
 21
300.6365238426
 31
0.0
  0
LINE
  5
1B0
330
1F
100
AcDbEntity
  8
0
  6
Continuous
 62
     7
370
    25
100
AcDbLine
 10
175.947672908
 20
299.6533125201
 30
0.0
 11
175.611531174
 21
300.1904752089
 31
0.0
  0
LINE
  5
1B1
330
1F
100
AcDbEntity
  8
0
  6
Continuous
 62
     7
370
    25
100
AcDbLine
 10
175.8530761436
 20
299.4018304845
 30
0.0
 11
175.947672908
 21
299.6533125201
 31
0.0
  0
LINE
  5
1B2
330
1F
100
AcDbEntity
  8
0
  6
Continuous
 62
     7
370
    25
100
AcDbLine
 10
175.6702968716
 20
299.0112061692
 30
0.0
 11
175.8530761436
 21
299.4018304845
 31
0.0
  0
LINE
  5
1B3
330
1F
100
AcDbEntity
  8
0
  6
Continuous
 62
     7
370
    25
100
AcDbLine
 10
175.0753875607
 20
298.8488110199
 30
0.0
 11
175.6702968716
 21
299.0112061692
 31
0.0
  0
LINE
  5
1B4
330
1F
100
AcDbEntity
  8
0
  6
Continuous
 62
     7
370
    25
100
AcDbLine
 10
174.4733517526
 20
298.7913933009
 30
0.0
 11
175.0753875607
 21
298.8488110199
 31
0.0
  0
LINE
  5
1B5
330
1F
100
AcDbEntity
  8
0
  6
Continuous
 62
     7
370
    25
100
AcDbLine
 10
173.9377246574
 20
298.9733827869
 30
0.0
 11
174.4733517526
 21
298.7913933009
 31
0.0
  0
LINE
  5
1B6
330
1F
100
AcDbEntity
  8
0
  6
Continuous
 62
     7
370
    25
100
AcDbLine
 10
173.311020101
 20
299.1316120787
 30
0.0
 11
173.9377246574
 21
298.9733827869
 31
0.0
  0
LINE
  5
1B7
330
1F
100
AcDbEntity
  8
0
  6
Continuous
 62
     7
370
    25
100
AcDbLine
 10
172.7586084586
 20
299.3792205979
 30
0.0
 11
173.311020101
 21
299.1316120787
 31
0.0
  0
LINE
  5
1B8
330
1F
100
AcDbEntity
  8
0
  6
Continuous
 62
     7
370
    25
100
AcDbLine
 10
172.2681241034
 20
299.7058529664
 30
0.0
 11
172.7586084586
 21
299.3792205979
 31
0.0
  0
ARC
  5
1B9
330
1F
100
AcDbEntity
  8
0
  6
Continuous
 62
     7
370
    25
100
AcDbCircle
 10
166.073466416
 20
303.224033197
 30
0.0
 40
7.123999999999997
100
AcDbArc
 50
316.899397122
 51
330.4061197218
  0
LINE
  5
1BA
330
1F
100
AcDbEntity
  8
0
  6
Continuous
 62
     7
370
    25
100
AcDbLine
 10
171.7328404969
 20
297.9852171987
 30
0.0
 11
171.275091256
 21
298.3563361005
 31
0.0
  0
LINE
  5
1BB
330
1F
100
AcDbEntity
  8
0
  6
Continuous
 62
     7
370
    25
100
AcDbLine
 10
172.1335644395
 20
297.531467352
 30
0.0
 11
171.7328404969
 21
297.9852171987
 31
0.0
  0
LINE
  5
1BC
330
1F
100
AcDbEntity
  8
0
  6
Continuous
 62
     7
370
    25
100
AcDbLine
 10
172.4710548346
 20
296.9802003178
 30
0.0
 11
172.1335644395
 21
297.531467352
 31
0.0
  0
LINE
  5
1BD
330
1F
100
AcDbEntity
  8
0
  6
Continuous
 62
     7
370
    25
100
AcDbLine
 10
172.6938367121
 20
296.4139621799
 30
0.0
 11
172.4710548346
 21
296.9802003178
 31
0.0
  0
LINE
  5
1BE
330
1F
100
AcDbEntity
  8
0
  6
Continuous
 62
     7
370
    25
100
AcDbLine
 10
172.8168938053
 20
295.8278625365
 30
0.0
 11
172.6938367121
 21
296.4139621799
 31
0.0
  0
LINE
  5
1BF
330
1F
100
AcDbEntity
  8
0
  6
Continuous
 62
     7
370
    25
100
AcDbLine
 10
172.8394197418
 20
295.194595135
 30
0.0
 11
172.8168938053
 21
295.8278625365
 31
0.0
  0
LINE
  5
1C0
330
1F
100
AcDbEntity
  8
0
  6
Continuous
 62
     7
370
    25
100
AcDbLine
 10
172.6317555229
 20
295.0241036858
 30
0.0
 11
172.8394197418
 21
295.194595135
 31
0.0
  0
LINE
  5
1C1
330
1F
100
AcDbEntity
  8
0
  6
Continuous
 62
     7
370
    25
100
AcDbLine
 10
172.2781518724
 20
294.7772027414
 30
0.0
 11
172.6317555229
 21
295.0241036858
 31
0.0
  0
LINE
  5
1C2
330
1F
100
AcDbEntity
  8
0
  6
Continuous
 62
     7
370
    25
100
AcDbLine
 10
171.6817477216
 20
294.9340190721
 30
0.0
 11
172.2781518724
 21
294.7772027414
 31
0.0
  0
LINE
  5
1C3
330
1F
100
AcDbEntity
  8
0
  6
Continuous
 62
     7
370
    25
100
AcDbLine
 10
171.1316605583
 20
295.1853117729
 30
0.0
 11
171.6817477216
 21
294.9340190721
 31
0.0
  0
LINE
  5
1C4
330
1F
100
AcDbEntity
  8
0
  6
Continuous
 62
     7
370
    25
100
AcDbLine
 10
170.7587886299
 20
295.6107328385
 30
0.0
 11
171.1316605583
 21
295.1853117729
 31
0.0
  0
LINE
  5
1C5
330
1F
100
AcDbEntity
  8
0
  6
Continuous
 62
     7
370
    25
100
AcDbLine
 10
170.2951612093
 20
296.061115703
 30
0.0
 11
170.7587886299
 21
295.6107328385
 31
0.0
  0
LINE
  5
1C6
330
1F
100
AcDbEntity
  8
0
  6
Continuous
 62
     7
370
    25
100
AcDbLine
 10
169.9405629533
 20
296.5517567921
 30
0.0
 11
170.2951612093
 21
296.061115703
 31
0.0
  0
LINE
  5
1C7
330
1F
100
AcDbEntity
  8
0
  6
Continuous
 62
     7
370
    25
100
AcDbLine
 10
169.6791072258
 20
297.0798708985
 30
0.0
 11
169.9405629533
 21
296.5517567921
 31
0.0
  0
ARC
  5
1C8
330
1F
100
AcDbEntity
  8
0
  6
Continuous
 62
     7
370
    25
100
AcDbCircle
 10
166.073466416
 20
303.224033197
 30
0.0
 40
7.12399999999996
100
AcDbArc
 50
286.899397122
 51
300.4061197218
  0
LINE
  5
1C9
330
1F
100
AcDbEntity
  8
0
  6
Continuous
 62
     7
370
    25
100
AcDbLine
 10
168.3552201404
 20
295.8573984162
 30
0.0
 11
168.1443571201
 21
296.4076714335
 31
0.0
  0
LINE
  5
1CA
330
1F
100
AcDbEntity
  8
0
  6
Continuous
 62
     7
370
    25
100
AcDbLine
 10
168.4753823312
 20
295.2640775508
 30
0.0
 11
168.3552201404
 21
295.8573984162
 31
0.0
  0
LINE
  5
1CB
330
1F
100
AcDbEntity
  8
0
  6
Continuous
 62
     7
370
    25
100
AcDbLine
 10
168.4920240699
 20
294.6179210973
 30
0.0
 11
168.4753823312
 21
295.2640775508
 31
0.0
  0
LINE
  5
1CC
330
1F
100
AcDbEntity
  8
0
  6
Continuous
 62
     7
370
    25
100
AcDbLine
 10
168.4018397663
 20
294.0161535465
 30
0.0
 11
168.4920240699
 21
294.6179210973
 31
0.0
  0
LINE
  5
1CD
330
1F
100
AcDbEntity
  8
0
  6
Continuous
 62
     7
370
    25
100
AcDbLine
 10
168.2153605134
 20
293.4470478196
 30
0.0
 11
168.4018397663
 21
294.0161535465
 31
0.0
  0
LINE
  5
1CE
330
1F
100
AcDbEntity
  8
0
  6
Continuous
 62
     7
370
    25
100
AcDbLine
 10
167.9182348459
 20
292.8873591943
 30
0.0
 11
168.2153605134
 21
293.4470478196
 31
0.0
  0
LINE
  5
1CF
330
1F
100
AcDbEntity
  8
0
  6
Continuous
 62
     7
370
    25
100
AcDbLine
 10
167.6531466323
 20
292.8435413776
 30
0.0
 11
167.9182348459
 21
292.8873591943
 31
0.0
  0
LINE
  5
1D0
330
1F
100
AcDbEntity
  8
0
  6
Continuous
 62
     7
370
    25
100
AcDbLine
 10
167.2234664159
 20
292.8065207128
 30
0.0
 11
167.6531466323
 21
292.8435413776
 31
0.0
  0
LINE
  5
1D1
330
1F
100
AcDbEntity
  8
0
  6
Continuous
 62
     7
370
    25
100
AcDbLine
 10
166.7853734357
 20
293.2405297143
 30
0.0
 11
167.2234664159
 21
292.8065207128
 31
0.0
  0
LINE
  5
1D2
330
1F
100
AcDbEntity
  8
0
  6
Continuous
 62
     7
370
    25
100
AcDbLine
 10
166.4346303284
 20
293.7331991586
 30
0.0
 11
166.7853734357
 21
293.2405297143
 31
0.0
  0
LINE
  5
1D3
330
1F
100
AcDbEntity
  8
0
  6
Continuous
 62
     7
370
    25
100
AcDbLine
 10
166.3244242989
 20
294.2880605729
 30
0.0
 11
166.4346303284
 21
293.7331991586
 31
0.0
  0
LINE
  5
1D4
330
1F
100
AcDbEntity
  8
0
  6
Continuous
 62
     7
370
    25
100
AcDbLine
 10
166.148102607
 20
294.9099172854
 30
0.0
 11
166.3244242989
 21
294.2880605729
 31
0.0
  0
LINE
  5
1D5
330
1F
100
AcDbEntity
  8
0
  6
Continuous
 62
     7
370
    25
100
AcDbLine
 10
166.0863320537
 20
295.5121240606
 30
0.0
 11
166.148102607
 21
294.9099172854
 31
0.0
  0
LINE
  5
1D6
330
1F
100
AcDbEntity
  8
0
  6
Continuous
 62
     7
370
    25
100
AcDbLine
 10
166.1239618049
 20
296.1002121566
 30
0.0
 11
166.0863320537
 21
295.5121240606
 31
0.0
  0
ARC
  5
1D7
330
1F
100
AcDbEntity
  8
0
  6
Continuous
 62
     7
370
    25
100
AcDbCircle
 10
166.073466416
 20
303.224033197
 30
0.0
 40
7.124000000000125
100
AcDbArc
 50
256.899397122
 51
270.4061197218
  0
LINE
  5
1D8
330
1F
100
AcDbEntity
  8
0
  6
Continuous
 62
     7
370
    25
100
AcDbLine
 10
164.3662057161
 20
295.7034634742
 30
0.0
 11
164.4587294924
 21
296.2854453964
 31
0.0
  0
LINE
  5
1D9
330
1F
100
AcDbEntity
  8
0
  6
Continuous
 62
     7
370
    25
100
AcDbLine
 10
164.1736087932
 20
295.1295514368
 30
0.0
 11
164.3662057161
 21
295.7034634742
 31
0.0
  0
LINE
  5
1DA
330
1F
100
AcDbEntity
  8
0
  6
Continuous
 62
     7
370
    25
100
AcDbLine
 10
163.8649427349
 20
294.5616426639
 30
0.0
 11
164.1736087932
 21
295.1295514368
 31
0.0
  0
LINE
  5
1DB
330
1F
100
AcDbEntity
  8
0
  6
Continuous
 62
     7
370
    25
100
AcDbLine
 10
163.4859570616
 20
294.0855888296
 30
0.0
 11
163.8649427349
 21
294.5616426639
 31
0.0
  0
LINE
  5
1DC
330
1F
100
AcDbEntity
  8
0
  6
Continuous
 62
     7
370
    25
100
AcDbLine
 10
163.0399084278
 20
293.685968439
 30
0.0
 11
163.4859570616
 21
294.0855888296
 31
0.0
  0
LINE
  5
1DD
330
1F
100
AcDbEntity
  8
0
  6
Continuous
 62
     7
370
    25
100
AcDbLine
 10
162.502745739
 20
293.349826705
 30
0.0
 11
163.0399084278
 21
293.685968439
 31
0.0
  0
LINE
  5
1DE
330
1F
100
AcDbEntity
  8
0
  6
Continuous
 62
     7
370
    25
100
AcDbLine
 10
162.2512637034
 20
293.4444234694
 30
0.0
 11
162.502745739
 21
293.349826705
 31
0.0
  0
LINE
  5
1DF
330
1F
100
AcDbEntity
  8
0
  6
Continuous
 62
     7
370
    25
100
AcDbLine
 10
161.8606393881
 20
293.6272027415
 30
0.0
 11
162.2512637034
 21
293.4444234694
 31
0.0
  0
LINE
  5
1E0
330
1F
100
AcDbEntity
  8
0
  6
Continuous
 62
     7
370
    25
100
AcDbLine
 10
161.6982442388
 20
294.2221120523
 30
0.0
 11
161.8606393881
 21
293.6272027415
 31
0.0
  0
LINE
  5
1E1
330
1F
100
AcDbEntity
  8
0
  6
Continuous
 62
     7
370
    25
100
AcDbLine
 10
161.6408265198
 20
294.8241478604
 30
0.0
 11
161.6982442388
 21
294.2221120523
 31
0.0
  0
LINE
  5
1E2
330
1F
100
AcDbEntity
  8
0
  6
Continuous
 62
     7
370
    25
100
AcDbLine
 10
161.8228160058
 20
295.3597749556
 30
0.0
 11
161.6408265198
 21
294.8241478604
 31
0.0
  0
LINE
  5
1E3
330
1F
100
AcDbEntity
  8
0
  6
Continuous
 62
     7
370
    25
100
AcDbLine
 10
161.9810452976
 20
295.986479512
 30
0.0
 11
161.8228160058
 21
295.3597749556
 31
0.0
  0
LINE
  5
1E4
330
1F
100
AcDbEntity
  8
0
  6
Continuous
 62
     7
370
    25
100
AcDbLine
 10
162.2286538169
 20
296.5388911544
 30
0.0
 11
161.9810452976
 21
295.986479512
 31
0.0
  0
LINE
  5
1E5
330
1F
100
AcDbEntity
  8
0
  6
Continuous
 62
     7
370
    25
100
AcDbLine
 10
162.5552861854
 20
297.0293755096
 30
0.0
 11
162.2286538169
 21
296.5388911544
 31
0.0
  0
ARC
  5
1E6
330
1F
100
AcDbEntity
  8
0
  6
Continuous
 62
     7
370
    25
100
AcDbCircle
 10
166.073466416
 20
303.224033197
 30
0.0
 40
7.123999999999937
100
AcDbArc
 50
226.899397122
 51
240.4061197218
  0
LINE
  5
1E7
330
1F
100
AcDbEntity
  8
0
  6
Continuous
 62
     7
370
    25
100
AcDbLine
 10
160.8346504176
 20
297.5646591161
 30
0.0
 11
161.2057693194
 21
298.022408357
 31
0.0
  0
LINE
  5
1E8
330
1F
100
AcDbEntity
  8
0
  6
Continuous
 62
     7
370
    25
100
AcDbLine
 10
160.380900571
 20
297.1639351736
 30
0.0
 11
160.8346504176
 21
297.5646591161
 31
0.0
  0
LINE
  5
1E9
330
1F
100
AcDbEntity
  8
0
  6
Continuous
 62
     7
370
    25
100
AcDbLine
 10
159.8296335368
 20
296.8264447784
 30
0.0
 11
160.380900571
 21
297.1639351736
 31
0.0
  0
LINE
  5
1EA
330
1F
100
AcDbEntity
  8
0
  6
Continuous
 62
     7
370
    25
100
AcDbLine
 10
159.2633953988
 20
296.6036629009
 30
0.0
 11
159.8296335368
 21
296.8264447784
 31
0.0
  0
LINE
  5
1EB
330
1F
100
AcDbEntity
  8
0
  6
Continuous
 62
     7
370
    25
100
AcDbLine
 10
158.6772957554
 20
296.4806058077
 30
0.0
 11
159.2633953988
 21
296.6036629009
 31
0.0
  0
LINE
  5
1EC
330
1F
100
AcDbEntity
  8
0
  6
Continuous
 62
     7
370
    25
100
AcDbLine
 10
158.0440283539
 20
296.4580798712
 30
0.0
 11
158.6772957554
 21
296.4806058077
 31
0.0
  0
LINE
  5
1ED
330
1F
100
AcDbEntity
  8
0
  6
Continuous
 62
     7
370
    25
100
AcDbLine
 10
157.8735369047
 20
296.6657440901
 30
0.0
 11
158.0440283539
 21
296.4580798712
 31
0.0
  0
LINE
  5
1EE
330
1F
100
AcDbEntity
  8
0
  6
Continuous
 62
     7
370
    25
100
AcDbLine
 10
157.6266359603
 20
297.0193477406
 30
0.0
 11
157.8735369047
 21
296.6657440901
 31
0.0
  0
LINE
  5
1EF
330
1F
100
AcDbEntity
  8
0
  6
Continuous
 62
     7
370
    25
100
AcDbLine
 10
157.783452291
 20
297.6157518914
 30
0.0
 11
157.6266359603
 21
297.0193477406
 31
0.0
  0
LINE
  5
1F0
330
1F
100
AcDbEntity
  8
0
  6
Continuous
 62
     7
370
    25
100
AcDbLine
 10
158.0347449918
 20
298.1658390547
 30
0.0
 11
157.783452291
 21
297.6157518914
 31
0.0
  0
LINE
  5
1F1
330
1F
100
AcDbEntity
  8
0
  6
Continuous
 62
     7
370
    25
100
AcDbLine
 10
158.4601660574
 20
298.5387109831
 30
0.0
 11
158.0347449918
 21
298.1658390547
 31
0.0
  0
LINE
  5
1F2
330
1F
100
AcDbEntity
  8
0
  6
Continuous
 62
     7
370
    25
100
AcDbLine
 10
158.9105489219
 20
299.0023384037
 30
0.0
 11
158.4601660574
 21
298.5387109831
 31
0.0
  0
LINE
  5
1F3
330
1F
100
AcDbEntity
  8
0
  6
Continuous
 62
     7
370
    25
100
AcDbLine
 10
159.401190011
 20
299.3569366597
 30
0.0
 11
158.9105489219
 21
299.0023384037
 31
0.0
  0
LINE
  5
1F4
330
1F
100
AcDbEntity
  8
0
  6
Continuous
 62
     7
370
    25
100
AcDbLine
 10
159.9293041174
 20
299.6183923872
 30
0.0
 11
159.401190011
 21
299.3569366597
 31
0.0
  0
ARC
  5
1F5
330
1F
100
AcDbEntity
  8
0
  6
Continuous
 62
     7
370
    25
100
AcDbCircle
 10
166.073466416
 20
303.224033197
 30
0.0
 40
7.123999999999937
100
AcDbArc
 50
196.899397122
 51
210.4061197218
  0
LINE
  5
1F6
330
1F
100
AcDbEntity
  8
0
  6
Continuous
 62
     7
370
    25
100
AcDbLine
 10
158.7068316352
 20
300.9422794726
 30
0.0
 11
159.2571046524
 21
301.1531424929
 31
0.0
  0
LINE
  5
1F7
330
1F
100
AcDbEntity
  8
0
  6
Continuous
 62
     7
370
    25
100
AcDbLine
 10
158.1135107697
 20
300.8221172818
 30
0.0
 11
158.7068316352
 21
300.9422794726
 31
0.0
  0
LINE
  5
1F8
330
1F
100
AcDbEntity
  8
0
  6
Continuous
 62
     7
370
    25
100
AcDbLine
 10
157.4673543163
 20
300.8054755431
 30
0.0
 11
158.1135107697
 21
300.8221172818
 31
0.0
  0
LINE
  5
1F9
330
1F
100
AcDbEntity
  8
0
  6
Continuous
 62
     7
370
    25
100
AcDbLine
 10
156.8655867655
 20
300.8956598467
 30
0.0
 11
157.4673543163
 21
300.8054755431
 31
0.0
  0
LINE
  5
1FA
330
1F
100
AcDbEntity
  8
0
  6
Continuous
 62
     7
370
    25
100
AcDbLine
 10
156.2964810385
 20
301.0821390996
 30
0.0
 11
156.8655867655
 21
300.8956598467
 31
0.0
  0
LINE
  5
1FB
330
1F
100
AcDbEntity
  8
0
  6
Continuous
 62
     7
370
    25
100
AcDbLine
 10
155.7367924132
 20
301.3792647671
 30
0.0
 11
156.2964810385
 21
301.0821390996
 31
0.0
  0
LINE
  5
1FC
330
1F
100
AcDbEntity
  8
0
  6
Continuous
 62
     7
370
    25
100
AcDbLine
 10
155.6929745965
 20
301.6443529807
 30
0.0
 11
155.7367924132
 21
301.3792647671
 31
0.0
  0
LINE
  5
1FD
330
1F
100
AcDbEntity
  8
0
  6
Continuous
 62
     7
370
    25
100
AcDbLine
 10
155.6559539317
 20
302.0740331971
 30
0.0
 11
155.6929745965
 21
301.6443529807
 31
0.0
  0
LINE
  5
1FE
330
1F
100
AcDbEntity
  8
0
  6
Continuous
 62
     7
370
    25
100
AcDbLine
 10
156.0899629332
 20
302.5121261773
 30
0.0
 11
155.6559539317
 21
302.0740331971
 31
0.0
  0
LINE
  5
1FF
330
1F
100
AcDbEntity
  8
0
  6
Continuous
 62
     7
370
    25
100
AcDbLine
 10
156.5826323775
 20
302.8628692846
 30
0.0
 11
156.0899629332
 21
302.5121261773
 31
0.0
  0
LINE
  5
200
330
1F
100
AcDbEntity
  8
0
  6
Continuous
 62
     7
370
    25
100
AcDbLine
 10
157.1374937919
 20
302.9730753142
 30
0.0
 11
156.5826323775
 21
302.8628692846
 31
0.0
  0
LINE
  5
201
330
1F
100
AcDbEntity
  8
0
  6
Continuous
 62
     7
370
    25
100
AcDbLine
 10
157.7593505043
 20
303.149397006
 30
0.0
 11
157.1374937919
 21
302.9730753142
 31
0.0
  0
LINE
  5
202
330
1F
100
AcDbEntity
  8
0
  6
Continuous
 62
     7
370
    25
100
AcDbLine
 10
158.3615572796
 20
303.2111675593
 30
0.0
 11
157.7593505043
 21
303.149397006
 31
0.0
  0
LINE
  5
203
330
1F
100
AcDbEntity
  8
0
  6
Continuous
 62
     7
370
    25
100
AcDbLine
 10
158.9496453756
 20
303.1735378081
 30
0.0
 11
158.3615572796
 21
303.2111675593
 31
0.0
  0
ARC
  5
204
330
1F
100
AcDbEntity
  8
0
  6
Continuous
 62
     7
370
    25
100
AcDbCircle
 10
166.073466416
 20
303.224033197
 30
0.0
 40
7.123999999999959
100
AcDbArc
 50
166.899397122
 51
180.4061197218
  0
LINE
  5
205
330
1F
100
AcDbEntity
  8
0
  6
Continuous
 62
     7
370
    25
100
AcDbLine
 10
158.5528966932
 20
304.9312938969
 30
0.0
 11
159.1348786153
 21
304.8387701206
 31
0.0
  0
LINE
  5
206
330
1F
100
AcDbEntity
  8
0
  6
Continuous
 62
     7
370
    25
100
AcDbLine
 10
157.9789846557
 20
305.1238908198
 30
0.0
 11
158.5528966932
 21
304.9312938969
 31
0.0
  0
LINE
  5
207
330
1F
100
AcDbEntity
  8
0
  6
Continuous
 62
     7
370
    25
100
AcDbLine
 10
157.4110758829
 20
305.4325568781
 30
0.0
 11
157.9789846557
 21
305.1238908198
 31
0.0
  0
LINE
  5
208
330
1F
100
AcDbEntity
  8
0
  6
Continuous
 62
     7
370
    25
100
AcDbLine
 10
156.9350220485
 20
305.8115425514
 30
0.0
 11
157.4110758829
 21
305.4325568781
 31
0.0
  0
LINE
  5
209
330
1F
100
AcDbEntity
  8
0
  6
Continuous
 62
     7
370
    25
100
AcDbLine
 10
156.5354016579
 20
306.2575911852
 30
0.0
 11
156.9350220485
 21
305.8115425514
 31
0.0
  0
LINE
  5
20A
330
1F
100
AcDbEntity
  8
0
  6
Continuous
 62
     7
370
    25
100
AcDbLine
 10
156.1992599239
 20
306.794753874
 30
0.0
 11
156.5354016579
 21
306.2575911852
 31
0.0
  0
LINE
  5
20B
330
1F
100
AcDbEntity
  8
0
  6
Continuous
 62
     7
370
    25
100
AcDbLine
 10
156.2938566884
 20
307.0462359096
 30
0.0
 11
156.1992599239
 21
306.794753874
 31
0.0
  0
LINE
  5
20C
330
1F
100
AcDbEntity
  8
0
  6
Continuous
 62
     7
370
    25
100
AcDbLine
 10
156.4766359604
 20
307.4368602249
 30
0.0
 11
156.2938566884
 21
307.0462359096
 31
0.0
  0
LINE
  5
20D
330
1F
100
AcDbEntity
  8
0
  6
Continuous
 62
     7
370
    25
100
AcDbLine
 10
157.0715452712
 20
307.5992553742
 30
0.0
 11
156.4766359604
 21
307.4368602249
 31
0.0
  0
LINE
  5
20E
330
1F
100
AcDbEntity
  8
0
  6
Continuous
 62
     7
370
    25
100
AcDbLine
 10
157.6735810794
 20
307.6566730932
 30
0.0
 11
157.0715452712
 21
307.5992553742
 31
0.0
  0
LINE
  5
20F
330
1F
100
AcDbEntity
  8
0
  6
Continuous
 62
     7
370
    25
100
AcDbLine
 10
158.2092081745
 20
307.4746836072
 30
0.0
 11
157.6735810794
 21
307.6566730932
 31
0.0
  0
LINE
  5
210
330
1F
100
AcDbEntity
  8
0
  6
Continuous
 62
     7
370
    25
100
AcDbLine
 10
158.8359127309
 20
307.3164543154
 30
0.0
 11
158.2092081745
 21
307.4746836072
 31
0.0
  0
LINE
  5
211
330
1F
100
AcDbEntity
  8
0
  6
Continuous
 62
     7
370
    25
100
AcDbLine
 10
159.3883243733
 20
307.0688457962
 30
0.0
 11
158.8359127309
 21
307.3164543154
 31
0.0
  0
LINE
  5
212
330
1F
100
AcDbEntity
  8
0
  6
Continuous
 62
     7
370
    25
100
AcDbLine
 10
159.8788087285
 20
306.7422134276
 30
0.0
 11
159.3883243733
 21
307.0688457962
 31
0.0
  0
ARC
  5
213
330
1F
100
AcDbEntity
  8
0
  6
Continuous
 62
     7
370
    25
100
AcDbCircle
 10
166.073466416
 20
303.224033197
 30
0.0
 40
7.123999999999955
100
AcDbArc
 50
136.899397122
 51
150.4061197218
  0
LINE
  5
214
330
1F
100
AcDbEntity
  8
0
  6
Continuous
 62
     7
370
    25
100
AcDbLine
 10
160.414092335
 20
308.4628491954
 30
0.0
 11
160.871841576
 21
308.0917302936
 31
0.0
  0
LINE
  5
215
330
1F
100
AcDbEntity
  8
0
  6
Continuous
 62
     7
370
    25
100
AcDbLine
 10
160.0133683925
 20
308.9165990421
 30
0.0
 11
160.414092335
 21
308.4628491954
 31
0.0
  0
LINE
  5
216
330
1F
100
AcDbEntity
  8
0
  6
Continuous
 62
     7
370
    25
100
AcDbLine
 10
159.6758779973
 20
309.4678660763
 30
0.0
 11
160.0133683925
 21
308.9165990421
 31
0.0
  0
LINE
  5
217
330
1F
100
AcDbEntity
  8
0
  6
Continuous
 62
     7
370
    25
100
AcDbLine
 10
159.4530961199
 20
310.0341042142
 30
0.0
 11
159.6758779973
 21
309.4678660763
 31
0.0
  0
LINE
  5
218
330
1F
100
AcDbEntity
  8
0
  6
Continuous
 62
     7
370
    25
100
AcDbLine
 10
159.3300390266
 20
310.6202038576
 30
0.0
 11
159.4530961199
 21
310.0341042142
 31
0.0
  0
LINE
  5
219
330
1F
100
AcDbEntity
  8
0
  6
Continuous
 62
     7
370
    25
100
AcDbLine
 10
159.3075130901
 20
311.2534712591
 30
0.0
 11
159.3300390266
 21
310.6202038576
 31
0.0
  0
LINE
  5
21A
330
1F
100
AcDbEntity
  8
0
  6
Continuous
 62
     7
370
    25
100
AcDbLine
 10
159.515177309
 20
311.4239627083
 30
0.0
 11
159.3075130901
 21
311.2534712591
 31
0.0
  0
LINE
  5
21B
330
1F
100
AcDbEntity
  8
0
  6
Continuous
 62
     7
370
    25
100
AcDbLine
 10
159.8687809595
 20
311.6708636527
 30
0.0
 11
159.515177309
 21
311.4239627083
 31
0.0
  0
LINE
  5
21C
330
1F
100
AcDbEntity
  8
0
  6
Continuous
 62
     7
370
    25
100
AcDbLine
 10
160.4651851103
 20
311.514047322
 30
0.0
 11
159.8687809595
 21
311.6708636527
 31
0.0
  0
LINE
  5
21D
330
1F
100
AcDbEntity
  8
0
  6
Continuous
 62
     7
370
    25
100
AcDbLine
 10
161.0152722737
 20
311.2627546212
 30
0.0
 11
160.4651851103
 21
311.514047322
 31
0.0
  0
LINE
  5
21E
330
1F
100
AcDbEntity
  8
0
  6
Continuous
 62
     7
370
    25
100
AcDbLine
 10
161.388144202
 20
310.8373335556
 30
0.0
 11
161.0152722737
 21
311.2627546212
 31
0.0
  0
LINE
  5
21F
330
1F
100
AcDbEntity
  8
0
  6
Continuous
 62
     7
370
    25
100
AcDbLine
 10
161.8517716227
 20
310.3869506911
 30
0.0
 11
161.388144202
 21
310.8373335556
 31
0.0
  0
LINE
  5
220
330
1F
100
AcDbEntity
  8
0
  6
Continuous
 62
     7
370
    25
100
AcDbLine
 10
162.2063698787
 20
309.896309602
 30
0.0
 11
161.8517716227
 21
310.3869506911
 31
0.0
  0
LINE
  5
221
330
1F
100
AcDbEntity
  8
0
  6
Continuous
 62
     7
370
    25
100
AcDbLine
 10
162.4678256062
 20
309.3681954956
 30
0.0
 11
162.2063698787
 21
309.896309602
 31
0.0
  0
ARC
  5
222
330
1F
100
AcDbEntity
  8
0
  6
Continuous
 62
     7
370
    25
100
AcDbCircle
 10
166.073466416
 20
303.224033197
 30
0.0
 40
7.123999999999945
100
AcDbArc
 50
106.899397122
 51
120.4061197218
  0
LINE
  5
223
330
1F
100
AcDbEntity
  8
0
  6
Continuous
 62
     7
370
    25
100
AcDbLine
 10
163.7917126915
 20
310.5906679779
 30
0.0
 11
164.0025757118
 21
310.0403949606
 31
0.0
  0
LINE
  5
224
330
1F
100
AcDbEntity
  8
0
  6
Continuous
 62
     7
370
    25
100
AcDbLine
 10
163.6715505007
 20
311.1839888433
 30
0.0
 11
163.7917126915
 21
310.5906679779
 31
0.0
  0
LINE
  5
225
330
1F
100
AcDbEntity
  8
0
  6
Continuous
 62
     7
370
    25
100
AcDbLine
 10
163.6549087621
 20
311.8301452968
 30
0.0
 11
163.6715505007
 21
311.1839888433
 31
0.0
  0
LINE
  5
226
330
1F
100
AcDbEntity
  8
0
  6
Continuous
 62
     7
370
    25
100
AcDbLine
 10
163.7450930657
 20
312.4319128476
 30
0.0
 11
163.6549087621
 21
311.8301452968
 31
0.0
  0
LINE
  5
227
330
1F
100
AcDbEntity
  8
0
  6
Continuous
 62
     7
370
    25
100
AcDbLine
 10
163.9315723185
 20
313.0010185745
 30
0.0
 11
163.7450930657
 21
312.4319128476
 31
0.0
  0
LINE
  5
228
330
1F
100
AcDbEntity
  8
0
  6
Continuous
 62
     7
370
    25
100
AcDbLine
 10
164.228697986
 20
313.5607071998
 30
0.0
 11
163.9315723185
 21
313.0010185745
 31
0.0
  0
LINE
  5
229
330
1F
100
AcDbEntity
  8
0
  6
Continuous
 62
     7
370
    25
100
AcDbLine
 10
164.4937861997
 20
313.6045250165
 30
0.0
 11
164.228697986
 21
313.5607071998
 31
0.0
  0
LINE
  5
22A
330
1F
100
AcDbEntity
  8
0
  6
Continuous
 62
     7
370
    25
100
AcDbLine
 10
164.923466416
 20
313.6415456813
 30
0.0
 11
164.4937861997
 21
313.6045250165
 31
0.0
  0
LINE
  5
22B
330
1F
100
AcDbEntity
  8
0
  6
Continuous
 62
     7
370
    25
100
AcDbLine
 10
165.3615593962
 20
313.2075366798
 30
0.0
 11
164.923466416
 21
313.6415456813
 31
0.0
  0
LINE
  5
22C
330
1F
100
AcDbEntity
  8
0
  6
Continuous
 62
     7
370
    25
100
AcDbLine
 10
165.7123025036
 20
312.7148672355
 30
0.0
 11
165.3615593962
 21
313.2075366798
 31
0.0
  0
LINE
  5
22D
330
1F
100
AcDbEntity
  8
0
  6
Continuous
 62
     7
370
    25
100
AcDbLine
 10
165.8225085331
 20
312.1600058212
 30
0.0
 11
165.7123025036
 21
312.7148672355
 31
0.0
  0
LINE
  5
22E
330
1F
100
AcDbEntity
  8
0
  6
Continuous
 62
     7
370
    25
100
AcDbLine
 10
165.998830225
 20
311.5381491087
 30
0.0
 11
165.8225085331
 21
312.1600058212
 31
0.0
  0
LINE
  5
22F
330
1F
100
AcDbEntity
  8
0
  6
Continuous
 62
     7
370
    25
100
AcDbLine
 10
166.0606007783
 20
310.9359423335
 30
0.0
 11
165.998830225
 21
311.5381491087
 31
0.0
  0
LINE
  5
230
330
1F
100
AcDbEntity
  8
0
  6
Continuous
 62
     7
370
    25
100
AcDbLine
 10
166.022971027
 20
310.3478542375
 30
0.0
 11
166.0606007783
 21
310.9359423335
 31
0.0
  0
ARC
  5
231
330
1F
100
AcDbEntity
  8
0
  6
Continuous
 62
     7
370
    25
100
AcDbCircle
 10
166.073466416
 20
303.224033197
 30
0.0
 40
7.124000000000014
100
AcDbArc
 50
76.899397122
 51
90.4061197218
  0
LINE
  5
232
330
1F
100
AcDbEntity
  8
0
  6
Continuous
 62
     7
370
    25
100
AcDbLine
 10
167.7807271158
 20
310.7446029199
 30
0.0
 11
167.6882033395
 21
310.1626209977
 31
0.0
  0
LINE
  5
233
330
1F
100
AcDbEntity
  8
0
  6
Continuous
 62
     7
370
    25
100
AcDbLine
 10
167.9733240387
 20
311.3185149573
 30
0.0
 11
167.7807271158
 21
310.7446029199
 31
0.0
  0
LINE
  5
234
330
1F
100
AcDbEntity
  8
0
  6
Continuous
 62
     7
370
    25
100
AcDbLine
 10
168.281990097
 20
311.8864237302
 30
0.0
 11
167.9733240387
 21
311.3185149573
 31
0.0
  0
LINE
  5
235
330
1F
100
AcDbEntity
  8
0
  6
Continuous
 62
     7
370
    25
100
AcDbLine
 10
168.6609757704
 20
312.3624775645
 30
0.0
 11
168.281990097
 21
311.8864237302
 31
0.0
  0
LINE
  5
236
330
1F
100
AcDbEntity
  8
0
  6
Continuous
 62
     7
370
    25
100
AcDbLine
 10
169.1070244041
 20
312.7620979551
 30
0.0
 11
168.6609757704
 21
312.3624775645
 31
0.0
  0
LINE
  5
237
330
1F
100
AcDbEntity
  8
0
  6
Continuous
 62
     7
370
    25
100
AcDbLine
 10
169.6441870929
 20
313.0982396891
 30
0.0
 11
169.1070244041
 21
312.7620979551
 31
0.0
  0
LINE
  5
238
330
1F
100
AcDbEntity
  8
0
  6
Continuous
 62
     7
370
    25
100
AcDbLine
 10
169.8956691285
 20
313.0036429246
 30
0.0
 11
169.6441870929
 21
313.0982396891
 31
0.0
  0
LINE
  5
239
330
1F
100
AcDbEntity
  8
0
  6
Continuous
 62
     7
370
    25
100
AcDbLine
 10
170.2862934438
 20
312.8208636526
 30
0.0
 11
169.8956691285
 21
313.0036429246
 31
0.0
  0
LINE
  5
23A
330
1F
100
AcDbEntity
  8
0
  6
Continuous
 62
     7
370
    25
100
AcDbLine
 10
170.4486885931
 20
312.2259543418
 30
0.0
 11
170.2862934438
 21
312.8208636526
 31
0.0
  0
LINE
  5
23B
330
1F
100
AcDbEntity
  8
0
  6
Continuous
 62
     7
370
    25
100
AcDbLine
 10
170.5061063121
 20
311.6239185336
 30
0.0
 11
170.4486885931
 21
312.2259543418
 31
0.0
  0
LINE
  5
23C
330
1F
100
AcDbEntity
  8
0
  6
Continuous
 62
     7
370
    25
100
AcDbLine
 10
170.3241168262
 20
311.0882914385
 30
0.0
 11
170.5061063121
 21
311.6239185336
 31
0.0
  0
LINE
  5
23D
330
1F
100
AcDbEntity
  8
0
  6
Continuous
 62
     7
370
    25
100
AcDbLine
 10
170.1658875344
 20
310.4615868821
 30
0.0
 11
170.3241168262
 21
311.0882914385
 31
0.0
  0
LINE
  5
23E
330
1F
100
AcDbEntity
  8
0
  6
Continuous
 62
     7
370
    25
100
AcDbLine
 10
169.9182790151
 20
309.9091752397
 30
0.0
 11
170.1658875344
 21
310.4615868821
 31
0.0
  0
LINE
  5
23F
330
1F
100
AcDbEntity
  8
0
  6
Continuous
 62
     7
370
    25
100
AcDbLine
 10
169.5916466466
 20
309.4186908845
 30
0.0
 11
169.9182790151
 21
309.9091752397
 31
0.0
  0
ARC
  5
240
330
1F
100
AcDbEntity
  8
0
  6
Continuous
 62
     7
370
    25
100
AcDbCircle
 10
166.073466416
 20
303.224033197
 30
0.0
 40
7.124000000000031
100
AcDbArc
 50
46.899397122
 51
60.4061197218
  0
LINE
  5
241
330
1F
100
AcDbEntity
  8
0
  6
Continuous
 62
     7
370
    25
100
AcDbLine
 10
171.3122824143
 20
308.883407278
 30
0.0
 11
170.9411635125
 21
308.4256580371
 31
0.0
  0
LINE
  5
242
330
1F
100
AcDbEntity
  8
0
  6
Continuous
 62
     7
370
    25
100
AcDbLine
 10
171.766032261
 20
309.2841312205
 30
0.0
 11
171.3122824143
 21
308.883407278
 31
0.0
  0
LINE
  5
243
330
1F
100
AcDbEntity
  8
0
  6
Continuous
 62
     7
370
    25
100
AcDbLine
 10
172.3172992952
 20
309.6216216157
 30
0.0
 11
171.766032261
 21
309.2841312205
 31
0.0
  0
LINE
  5
244
330
1F
100
AcDbEntity
  8
0
  6
Continuous
 62
     7
370
    25
100
AcDbLine
 10
172.8835374332
 20
309.8444034932
 30
0.0
 11
172.3172992952
 21
309.6216216157
 31
0.0
  0
LINE
  5
245
330
1F
100
AcDbEntity
  8
0
  6
Continuous
 62
     7
370
    25
100
AcDbLine
 10
173.4696370766
 20
309.9674605864
 30
0.0
 11
172.8835374332
 21
309.8444034932
 31
0.0
  0
LINE
  5
246
330
1F
100
AcDbEntity
  8
0
  6
Continuous
 62
     7
370
    25
100
AcDbLine
 10
174.1029044781
 20
309.9899865229
 30
0.0
 11
173.4696370766
 21
309.9674605864
 31
0.0
  0
LINE
  5
247
330
1F
100
AcDbEntity
  8
0
  6
Continuous
 62
     7
370
    25
100
AcDbLine
 10
174.2733959273
 20
309.782322304
 30
0.0
 11
174.1029044781
 21
309.9899865229
 31
0.0
  0
LINE
  5
248
330
1F
100
AcDbEntity
  8
0
  6
Continuous
 62
     7
370
    25
100
AcDbLine
 10
174.5202968716
 20
309.4287186535
 30
0.0
 11
174.2733959273
 21
309.782322304
 31
0.0
  0
LINE
  5
249
330
1F
100
AcDbEntity
  8
0
  6
Continuous
 62
     7
370
    25
100
AcDbLine
 10
174.3634805409
 20
308.8323145027
 30
0.0
 11
174.5202968716
 21
309.4287186535
 31
0.0
  0
LINE
  5
24A
330
1F
100
AcDbEntity
  8
0
  6
Continuous
 62
     7
370
    25
100
AcDbLine
 10
174.1121878402
 20
308.2822273394
 30
0.0
 11
174.3634805409
 21
308.8323145027
 31
0.0
  0
LINE
  5
24B
330
1F
100
AcDbEntity
  8
0
  6
Continuous
 62
     7
370
    25
100
AcDbLine
 10
173.6867667745
 20
307.909355411
 30
0.0
 11
174.1121878402
 21
308.2822273394
 31
0.0
  0
LINE
  5
24C
330
1F
100
AcDbEntity
  8
0
  6
Continuous
 62
     7
370
    25
100
AcDbLine
 10
173.23638391
 20
307.4457279903
 30
0.0
 11
173.6867667745
 21
307.909355411
 31
0.0
  0
LINE
  5
24D
330
1F
100
AcDbEntity
  8
0
  6
Continuous
 62
     7
370
    25
100
AcDbLine
 10
172.7457428209
 20
307.0911297344
 30
0.0
 11
173.23638391
 21
307.4457279903
 31
0.0
  0
LINE
  5
24E
330
1F
100
AcDbEntity
  8
0
  6
Continuous
 62
     7
370
    25
100
AcDbLine
 10
172.2176287145
 20
306.8296740069
 30
0.0
 11
172.7457428209
 21
307.0911297344
 31
0.0
  0
ARC
  5
24F
330
1F
100
AcDbEntity
  8
0
  6
Continuous
 62
     7
370
    25
100
AcDbCircle
 10
166.073466416
 20
303.224033197
 30
0.0
 40
7.124000000000009
100
AcDbArc
 50
16.899397122
 51
30.4061197218
  0
ARC
  5
250
330
1F
100
AcDbEntity
  8
0
  6
Continuous
 62
     7
370
    25
100
AcDbCircle
 10
188.3241917273
 20
311.2858901939
 30
0.0
 40
2.299999999999967
100
AcDbArc
 50
47.966483062
 51
132.033516938
  0
LINE
  5
251
330
1F
100
AcDbEntity
  8
0
  6
Continuous
 62
     7
370
    25
100
AcDbLine
 10
186.7841917273
 20
312.9942227142
 30
0.0
 11
186.7841917273
 21
309.5775576736
 31
0.0
  0
ARC
  5
252
330
1F
100
AcDbEntity
  8
0
  6
Continuous
 62
     7
370
    25
100
AcDbCircle
 10
188.3241917273
 20
311.2858901939
 30
0.0
 40
2.299999999999967
100
AcDbArc
 50
227.966483062
 51
312.033516938
  0
LINE
  5
253
330
1F
100
AcDbEntity
  8
0
  6
Continuous
 62
     7
370
    25
100
AcDbLine
 10
189.8641917273
 20
309.5775576736
 30
0.0
 11
189.8641917273
 21
312.9942227142
 31
0.0
  0
LINE
  5
254
330
1F
100
AcDbEntity
  8
0
  6
Continuous
 62
     7
370
    25
100
AcDbLine
 10
195.6908265081
 20
313.5676439183
 30
0.0
 11
195.1405534908
 21
313.356780898
 31
0.0
  0
LINE
  5
255
330
1F
100
AcDbEntity
  8
0
  6
Continuous
 62
     7
370
    25
100
AcDbLine
 10
196.2841473735
 20
313.6878061092
 30
0.0
 11
195.6908265081
 21
313.5676439183
 31
0.0
  0
LINE
  5
256
330
1F
100
AcDbEntity
  8
0
  6
Continuous
 62
     7
370
    25
100
AcDbLine
 10
196.930303827
 20
313.7044478478
 30
0.0
 11
196.2841473735
 21
313.6878061092
 31
0.0
  0
LINE
  5
257
330
1F
100
AcDbEntity
  8
0
  6
Continuous
 62
     7
370
    25
100
AcDbLine
 10
197.5320713778
 20
313.6142635442
 30
0.0
 11
196.930303827
 21
313.7044478478
 31
0.0
  0
LINE
  5
258
330
1F
100
AcDbEntity
  8
0
  6
Continuous
 62
     7
370
    25
100
AcDbLine
 10
198.1011771047
 20
313.4277842913
 30
0.0
 11
197.5320713778
 21
313.6142635442
 31
0.0
  0
LINE
  5
259
330
1F
100
AcDbEntity
  8
0
  6
Continuous
 62
     7
370
    25
100
AcDbLine
 10
198.6608657301
 20
313.1306586238
 30
0.0
 11
198.1011771047
 21
313.4277842913
 31
0.0
  0
LINE
  5
25A
330
1F
100
AcDbEntity
  8
0
  6
Continuous
 62
     7
370
    25
100
AcDbLine
 10
198.7046835467
 20
312.8655704102
 30
0.0
 11
198.6608657301
 21
313.1306586238
 31
0.0
  0
LINE
  5
25B
330
1F
100
AcDbEntity
  8
0
  6
Continuous
 62
     7
370
    25
100
AcDbLine
 10
198.7417042115
 20
312.4358901938
 30
0.0
 11
198.7046835467
 21
312.8655704102
 31
0.0
  0
LINE
  5
25C
330
1F
100
AcDbEntity
  8
0
  6
Continuous
 62
     7
370
    25
100
AcDbLine
 10
198.3076952101
 20
311.9977972137
 30
0.0
 11
198.7417042115
 21
312.4358901938
 31
0.0
  0
LINE
  5
25D
330
1F
100
AcDbEntity
  8
0
  6
Continuous
 62
     7
370
    25
100
AcDbLine
 10
197.8150257657
 20
311.6470541063
 30
0.0
 11
198.3076952101
 21
311.9977972137
 31
0.0
  0
LINE
  5
25E
330
1F
100
AcDbEntity
  8
0
  6
Continuous
 62
     7
370
    25
100
AcDbLine
 10
197.2601643514
 20
311.5368480768
 30
0.0
 11
197.8150257657
 21
311.6470541063
 31
0.0
  0
LINE
  5
25F
330
1F
100
AcDbEntity
  8
0
  6
Continuous
 62
     7
370
    25
100
AcDbLine
 10
196.638307639
 20
311.3605263849
 30
0.0
 11
197.2601643514
 21
311.5368480768
 31
0.0
  0
LINE
  5
260
330
1F
100
AcDbEntity
  8
0
  6
Continuous
 62
     7
370
    25
100
AcDbLine
 10
196.0361008637
 20
311.2987558316
 30
0.0
 11
196.638307639
 21
311.3605263849
 31
0.0
  0
LINE
  5
261
330
1F
100
AcDbEntity
  8
0
  6
Continuous
 62
     7
370
    25
100
AcDbLine
 10
195.4480127677
 20
311.3363855828
 30
0.0
 11
196.0361008637
 21
311.2987558316
 31
0.0
  0
ARC
  5
262
330
1F
100
AcDbEntity
  8
0
  6
Continuous
 62
     7
370
    25
100
AcDbCircle
 10
188.3241917273
 20
311.2858901939
 30
0.0
 40
7.124000000000027
100
AcDbArc
 50
346.899397122
 51
0.4061197218
  0
LINE
  5
263
330
1F
100
AcDbEntity
  8
0
  6
Continuous
 62
     7
370
    25
100
AcDbLine
 10
195.8447614501
 20
309.578629494
 30
0.0
 11
195.262779528
 21
309.6711532704
 31
0.0
  0
LINE
  5
264
330
1F
100
AcDbEntity
  8
0
  6
Continuous
 62
     7
370
    25
100
AcDbLine
 10
196.4186734875
 20
309.3860325711
 30
0.0
 11
195.8447614501
 21
309.578629494
 31
0.0
  0
LINE
  5
265
330
1F
100
AcDbEntity
  8
0
  6
Continuous
 62
     7
370
    25
100
AcDbLine
 10
196.9865822604
 20
309.0773665128
 30
0.0
 11
196.4186734875
 21
309.3860325711
 31
0.0
  0
LINE
  5
266
330
1F
100
AcDbEntity
  8
0
  6
Continuous
 62
     7
370
    25
100
AcDbLine
 10
197.4626360948
 20
308.6983808395
 30
0.0
 11
196.9865822604
 21
309.0773665128
 31
0.0
  0
LINE
  5
267
330
1F
100
AcDbEntity
  8
0
  6
Continuous
 62
     7
370
    25
100
AcDbLine
 10
197.8622564853
 20
308.2523322058
 30
0.0
 11
197.4626360948
 21
308.6983808395
 31
0.0
  0
LINE
  5
268
330
1F
100
AcDbEntity
  8
0
  6
Continuous
 62
     7
370
    25
100
AcDbLine
 10
198.1983982193
 20
307.7151695169
 30
0.0
 11
197.8622564853
 21
308.2523322058
 31
0.0
  0
LINE
  5
269
330
1F
100
AcDbEntity
  8
0
  6
Continuous
 62
     7
370
    25
100
AcDbLine
 10
198.1038014549
 20
307.4636874814
 30
0.0
 11
198.1983982193
 21
307.7151695169
 31
0.0
  0
LINE
  5
26A
330
1F
100
AcDbEntity
  8
0
  6
Continuous
 62
     7
370
    25
100
AcDbLine
 10
197.9210221829
 20
307.0730631661
 30
0.0
 11
198.1038014549
 21
307.4636874814
 31
0.0
  0
LINE
  5
26B
330
1F
100
AcDbEntity
  8
0
  6
Continuous
 62
     7
370
    25
100
AcDbLine
 10
197.326112872
 20
306.9106680168
 30
0.0
 11
197.9210221829
 21
307.0730631661
 31
0.0
  0
LINE
  5
26C
330
1F
100
AcDbEntity
  8
0
  6
Continuous
 62
     7
370
    25
100
AcDbLine
 10
196.7240770639
 20
306.8532502978
 30
0.0
 11
197.326112872
 21
306.9106680168
 31
0.0
  0
LINE
  5
26D
330
1F
100
AcDbEntity
  8
0
  6
Continuous
 62
     7
370
    25
100
AcDbLine
 10
196.1884499687
 20
307.0352397837
 30
0.0
 11
196.7240770639
 21
306.8532502978
 31
0.0
  0
LINE
  5
26E
330
1F
100
AcDbEntity
  8
0
  6
Continuous
 62
     7
370
    25
100
AcDbLine
 10
195.5617454123
 20
307.1934690755
 30
0.0
 11
196.1884499687
 21
307.0352397837
 31
0.0
  0
LINE
  5
26F
330
1F
100
AcDbEntity
  8
0
  6
Continuous
 62
     7
370
    25
100
AcDbLine
 10
195.0093337699
 20
307.4410775948
 30
0.0
 11
195.5617454123
 21
307.1934690755
 31
0.0
  0
LINE
  5
270
330
1F
100
AcDbEntity
  8
0
  6
Continuous
 62
     7
370
    25
100
AcDbLine
 10
194.5188494148
 20
307.7677099633
 30
0.0
 11
195.0093337699
 21
307.4410775948
 31
0.0
  0
ARC
  5
271
330
1F
100
AcDbEntity
  8
0
  6
Continuous
 62
     7
370
    25
100
AcDbCircle
 10
188.3241917273
 20
311.2858901939
 30
0.0
 40
7.12400000000002
100
AcDbArc
 50
316.899397122
 51
330.4061197218
  0
LINE
  5
272
330
1F
100
AcDbEntity
  8
0
  6
Continuous
 62
     7
370
    25
100
AcDbLine
 10
193.9835658082
 20
306.0470741955
 30
0.0
 11
193.5258165673
 21
306.4181930974
 31
0.0
  0
LINE
  5
273
330
1F
100
AcDbEntity
  8
0
  6
Continuous
 62
     7
370
    25
100
AcDbLine
 10
194.3842897508
 20
305.5933243489
 30
0.0
 11
193.9835658082
 21
306.0470741955
 31
0.0
  0
LINE
  5
274
330
1F
100
AcDbEntity
  8
0
  6
Continuous
 62
     7
370
    25
100
AcDbLine
 10
194.7217801459
 20
305.0420573147
 30
0.0
 11
194.3842897508
 21
305.5933243489
 31
0.0
  0
LINE
  5
275
330
1F
100
AcDbEntity
  8
0
  6
Continuous
 62
     7
370
    25
100
AcDbLine
 10
194.9445620234
 20
304.4758191767
 30
0.0
 11
194.7217801459
 21
305.0420573147
 31
0.0
  0
LINE
  5
276
330
1F
100
AcDbEntity
  8
0
  6
Continuous
 62
     7
370
    25
100
AcDbLine
 10
195.0676191166
 20
303.8897195333
 30
0.0
 11
194.9445620234
 21
304.4758191767
 31
0.0
  0
LINE
  5
277
330
1F
100
AcDbEntity
  8
0
  6
Continuous
 62
     7
370
    25
100
AcDbLine
 10
195.0901450531
 20
303.2564521318
 30
0.0
 11
195.0676191166
 21
303.8897195333
 31
0.0
  0
LINE
  5
278
330
1F
100
AcDbEntity
  8
0
  6
Continuous
 62
     7
370
    25
100
AcDbLine
 10
194.8824808342
 20
303.0859606826
 30
0.0
 11
195.0901450531
 21
303.2564521318
 31
0.0
  0
LINE
  5
279
330
1F
100
AcDbEntity
  8
0
  6
Continuous
 62
     7
370
    25
100
AcDbLine
 10
194.5288771837
 20
302.8390597382
 30
0.0
 11
194.8824808342
 21
303.0859606826
 31
0.0
  0
LINE
  5
27A
330
1F
100
AcDbEntity
  8
0
  6
Continuous
 62
     7
370
    25
100
AcDbLine
 10
193.9324730329
 20
302.9958760689
 30
0.0
 11
194.5288771837
 21
302.8390597382
 31
0.0
  0
LINE
  5
27B
330
1F
100
AcDbEntity
  8
0
  6
Continuous
 62
     7
370
    25
100
AcDbLine
 10
193.3823858696
 20
303.2471687697
 30
0.0
 11
193.9324730329
 21
302.9958760689
 31
0.0
  0
LINE
  5
27C
330
1F
100
AcDbEntity
  8
0
  6
Continuous
 62
     7
370
    25
100
AcDbLine
 10
193.0095139412
 20
303.6725898353
 30
0.0
 11
193.3823858696
 21
303.2471687697
 31
0.0
  0
LINE
  5
27D
330
1F
100
AcDbEntity
  8
0
  6
Continuous
 62
     7
370
    25
100
AcDbLine
 10
192.5458865206
 20
304.1229726999
 30
0.0
 11
193.0095139412
 21
303.6725898353
 31
0.0
  0
LINE
  5
27E
330
1F
100
AcDbEntity
  8
0
  6
Continuous
 62
     7
370
    25
100
AcDbLine
 10
192.1912882646
 20
304.6136137889
 30
0.0
 11
192.5458865206
 21
304.1229726999
 31
0.0
  0
LINE
  5
27F
330
1F
100
AcDbEntity
  8
0
  6
Continuous
 62
     7
370
    25
100
AcDbLine
 10
191.9298325371
 20
305.1417278954
 30
0.0
 11
192.1912882646
 21
304.6136137889
 31
0.0
  0
ARC
  5
280
330
1F
100
AcDbEntity
  8
0
  6
Continuous
 62
     7
370
    25
100
AcDbCircle
 10
188.3241917273
 20
311.2858901939
 30
0.0
 40
7.123999999999999
100
AcDbArc
 50
286.899397122
 51
300.4061197218
  0
LINE
  5
281
330
1F
100
AcDbEntity
  8
0
  6
Continuous
 62
     7
370
    25
100
AcDbLine
 10
190.6059454517
 20
303.9192554131
 30
0.0
 11
190.3950824314
 21
304.4695284304
 31
0.0
  0
LINE
  5
282
330
1F
100
AcDbEntity
  8
0
  6
Continuous
 62
     7
370
    25
100
AcDbLine
 10
190.7261076425
 20
303.3259345477
 30
0.0
 11
190.6059454517
 21
303.9192554131
 31
0.0
  0
LINE
  5
283
330
1F
100
AcDbEntity
  8
0
  6
Continuous
 62
     7
370
    25
100
AcDbLine
 10
190.7427493812
 20
302.6797780942
 30
0.0
 11
190.7261076425
 21
303.3259345477
 31
0.0
  0
LINE
  5
284
330
1F
100
AcDbEntity
  8
0
  6
Continuous
 62
     7
370
    25
100
AcDbLine
 10
190.6525650776
 20
302.0780105434
 30
0.0
 11
190.7427493812
 21
302.6797780942
 31
0.0
  0
LINE
  5
285
330
1F
100
AcDbEntity
  8
0
  6
Continuous
 62
     7
370
    25
100
AcDbLine
 10
190.4660858247
 20
301.5089048164
 30
0.0
 11
190.6525650776
 21
302.0780105434
 31
0.0
  0
LINE
  5
286
330
1F
100
AcDbEntity
  8
0
  6
Continuous
 62
     7
370
    25
100
AcDbLine
 10
190.1689601572
 20
300.9492161911
 30
0.0
 11
190.4660858247
 21
301.5089048164
 31
0.0
  0
LINE
  5
287
330
1F
100
AcDbEntity
  8
0
  6
Continuous
 62
     7
370
    25
100
AcDbLine
 10
189.9038719436
 20
300.9053983744
 30
0.0
 11
190.1689601572
 21
300.9492161911
 31
0.0
  0
LINE
  5
288
330
1F
100
AcDbEntity
  8
0
  6
Continuous
 62
     7
370
    25
100
AcDbLine
 10
189.4741917272
 20
300.8683777096
 30
0.0
 11
189.9038719436
 21
300.9053983744
 31
0.0
  0
LINE
  5
289
330
1F
100
AcDbEntity
  8
0
  6
Continuous
 62
     7
370
    25
100
AcDbLine
 10
189.036098747
 20
301.3023867111
 30
0.0
 11
189.4741917272
 21
300.8683777096
 31
0.0
  0
LINE
  5
28A
330
1F
100
AcDbEntity
  8
0
  6
Continuous
 62
     7
370
    25
100
AcDbLine
 10
188.6853556397
 20
301.7950561555
 30
0.0
 11
189.036098747
 21
301.3023867111
 31
0.0
  0
LINE
  5
28B
330
1F
100
AcDbEntity
  8
0
  6
Continuous
 62
     7
370
    25
100
AcDbLine
 10
188.5751496102
 20
302.3499175698
 30
0.0
 11
188.6853556397
 21
301.7950561555
 31
0.0
  0
LINE
  5
28C
330
1F
100
AcDbEntity
  8
0
  6
Continuous
 62
     7
370
    25
100
AcDbLine
 10
188.3988279183
 20
302.9717742822
 30
0.0
 11
188.5751496102
 21
302.3499175698
 31
0.0
  0
LINE
  5
28D
330
1F
100
AcDbEntity
  8
0
  6
Continuous
 62
     7
370
    25
100
AcDbLine
 10
188.337057365
 20
303.5739810575
 30
0.0
 11
188.3988279183
 21
302.9717742822
 31
0.0
  0
LINE
  5
28E
330
1F
100
AcDbEntity
  8
0
  6
Continuous
 62
     7
370
    25
100
AcDbLine
 10
188.3746871162
 20
304.1620691535
 30
0.0
 11
188.337057365
 21
303.5739810575
 31
0.0
  0
ARC
  5
28F
330
1F
100
AcDbEntity
  8
0
  6
Continuous
 62
     7
370
    25
100
AcDbCircle
 10
188.3241917273
 20
311.2858901939
 30
0.0
 40
7.124000000000125
100
AcDbArc
 50
256.899397122
 51
270.4061197218
  0
LINE
  5
290
330
1F
100
AcDbEntity
  8
0
  6
Continuous
 62
     7
370
    25
100
AcDbLine
 10
186.6169310274
 20
303.7653204711
 30
0.0
 11
186.7094548037
 21
304.3473023932
 31
0.0
  0
LINE
  5
291
330
1F
100
AcDbEntity
  8
0
  6
Continuous
 62
     7
370
    25
100
AcDbLine
 10
186.4243341045
 20
303.1914084336
 30
0.0
 11
186.6169310274
 21
303.7653204711
 31
0.0
  0
LINE
  5
292
330
1F
100
AcDbEntity
  8
0
  6
Continuous
 62
     7
370
    25
100
AcDbLine
 10
186.1156680462
 20
302.6234996608
 30
0.0
 11
186.4243341045
 21
303.1914084336
 31
0.0
  0
LINE
  5
293
330
1F
100
AcDbEntity
  8
0
  6
Continuous
 62
     7
370
    25
100
AcDbLine
 10
185.7366823729
 20
302.1474458264
 30
0.0
 11
186.1156680462
 21
302.6234996608
 31
0.0
  0
LINE
  5
294
330
1F
100
AcDbEntity
  8
0
  6
Continuous
 62
     7
370
    25
100
AcDbLine
 10
185.2906337391
 20
301.7478254359
 30
0.0
 11
185.7366823729
 21
302.1474458264
 31
0.0
  0
LINE
  5
295
330
1F
100
AcDbEntity
  8
0
  6
Continuous
 62
     7
370
    25
100
AcDbLine
 10
184.7534710503
 20
301.4116837019
 30
0.0
 11
185.2906337391
 21
301.7478254359
 31
0.0
  0
LINE
  5
296
330
1F
100
AcDbEntity
  8
0
  6
Continuous
 62
     7
370
    25
100
AcDbLine
 10
184.5019890147
 20
301.5062804663
 30
0.0
 11
184.7534710503
 21
301.4116837019
 31
0.0
  0
LINE
  5
297
330
1F
100
AcDbEntity
  8
0
  6
Continuous
 62
     7
370
    25
100
AcDbLine
 10
184.1113646994
 20
301.6890597383
 30
0.0
 11
184.5019890147
 21
301.5062804663
 31
0.0
  0
LINE
  5
298
330
1F
100
AcDbEntity
  8
0
  6
Continuous
 62
     7
370
    25
100
AcDbLine
 10
183.9489695501
 20
302.2839690491
 30
0.0
 11
184.1113646994
 21
301.6890597383
 31
0.0
  0
LINE
  5
299
330
1F
100
AcDbEntity
  8
0
  6
Continuous
 62
     7
370
    25
100
AcDbLine
 10
183.8915518311
 20
302.8860048573
 30
0.0
 11
183.9489695501
 21
302.2839690491
 31
0.0
  0
LINE
  5
29A
330
1F
100
AcDbEntity
  8
0
  6
Continuous
 62
     7
370
    25
100
AcDbLine
 10
184.0735413171
 20
303.4216319524
 30
0.0
 11
183.8915518311
 21
302.8860048573
 31
0.0
  0
LINE
  5
29B
330
1F
100
AcDbEntity
  8
0
  6
Continuous
 62
     7
370
    25
100
AcDbLine
 10
184.2317706089
 20
304.0483365089
 30
0.0
 11
184.0735413171
 21
303.4216319524
 31
0.0
  0
LINE
  5
29C
330
1F
100
AcDbEntity
  8
0
  6
Continuous
 62
     7
370
    25
100
AcDbLine
 10
184.4793791282
 20
304.6007481512
 30
0.0
 11
184.2317706089
 21
304.0483365089
 31
0.0
  0
LINE
  5
29D
330
1F
100
AcDbEntity
  8
0
  6
Continuous
 62
     7
370
    25
100
AcDbLine
 10
184.8060114967
 20
305.0912325064
 30
0.0
 11
184.4793791282
 21
304.6007481512
 31
0.0
  0
ARC
  5
29E
330
1F
100
AcDbEntity
  8
0
  6
Continuous
 62
     7
370
    25
100
AcDbCircle
 10
188.3241917273
 20
311.2858901939
 30
0.0
 40
7.123999999999937
100
AcDbArc
 50
226.899397122
 51
240.4061197218
  0
LINE
  5
29F
330
1F
100
AcDbEntity
  8
0
  6
Continuous
 62
     7
370
    25
100
AcDbLine
 10
183.0853757289
 20
305.6265161129
 30
0.0
 11
183.4564946307
 21
306.0842653539
 31
0.0
  0
LINE
  5
2A0
330
1F
100
AcDbEntity
  8
0
  6
Continuous
 62
     7
370
    25
100
AcDbLine
 10
182.6316258823
 20
305.2257921704
 30
0.0
 11
183.0853757289
 21
305.6265161129
 31
0.0
  0
LINE
  5
2A1
330
1F
100
AcDbEntity
  8
0
  6
Continuous
 62
     7
370
    25
100
AcDbLine
 10
182.0803588481
 20
304.8883017752
 30
0.0
 11
182.6316258823
 21
305.2257921704
 31
0.0
  0
LINE
  5
2A2
330
1F
100
AcDbEntity
  8
0
  6
Continuous
 62
     7
370
    25
100
AcDbLine
 10
181.5141207101
 20
304.6655198978
 30
0.0
 11
182.0803588481
 21
304.8883017752
 31
0.0
  0
LINE
  5
2A3
330
1F
100
AcDbEntity
  8
0
  6
Continuous
 62
     7
370
    25
100
AcDbLine
 10
180.9280210667
 20
304.5424628046
 30
0.0
 11
181.5141207101
 21
304.6655198978
 31
0.0
  0
LINE
  5
2A4
330
1F
100
AcDbEntity
  8
0
  6
Continuous
 62
     7
370
    25
100
AcDbLine
 10
180.2947536652
 20
304.5199368681
 30
0.0
 11
180.9280210667
 21
304.5424628046
 31
0.0
  0
LINE
  5
2A5
330
1F
100
AcDbEntity
  8
0
  6
Continuous
 62
     7
370
    25
100
AcDbLine
 10
180.124262216
 20
304.727601087
 30
0.0
 11
180.2947536652
 21
304.5199368681
 31
0.0
  0
LINE
  5
2A6
330
1F
100
AcDbEntity
  8
0
  6
Continuous
 62
     7
370
    25
100
AcDbLine
 10
179.8773612716
 20
305.0812047375
 30
0.0
 11
180.124262216
 21
304.727601087
 31
0.0
  0
LINE
  5
2A7
330
1F
100
AcDbEntity
  8
0
  6
Continuous
 62
     7
370
    25
100
AcDbLine
 10
180.0341776023
 20
305.6776088883
 30
0.0
 11
179.8773612716
 21
305.0812047375
 31
0.0
  0
LINE
  5
2A8
330
1F
100
AcDbEntity
  8
0
  6
Continuous
 62
     7
370
    25
100
AcDbLine
 10
180.2854703031
 20
306.2276960516
 30
0.0
 11
180.0341776023
 21
305.6776088883
 31
0.0
  0
LINE
  5
2A9
330
1F
100
AcDbEntity
  8
0
  6
Continuous
 62
     7
370
    25
100
AcDbLine
 10
180.7108913687
 20
306.60056798
 30
0.0
 11
180.2854703031
 21
306.2276960516
 31
0.0
  0
LINE
  5
2AA
330
1F
100
AcDbEntity
  8
0
  6
Continuous
 62
     7
370
    25
100
AcDbLine
 10
181.1612742333
 20
307.0641954006
 30
0.0
 11
180.7108913687
 21
306.60056798
 31
0.0
  0
LINE
  5
2AB
330
1F
100
AcDbEntity
  8
0
  6
Continuous
 62
     7
370
    25
100
AcDbLine
 10
181.6519153223
 20
307.4187936566
 30
0.0
 11
181.1612742333
 21
307.0641954006
 31
0.0
  0
LINE
  5
2AC
330
1F
100
AcDbEntity
  8
0
  6
Continuous
 62
     7
370
    25
100
AcDbLine
 10
182.1800294287
 20
307.6802493841
 30
0.0
 11
181.6519153223
 21
307.4187936566
 31
0.0
  0
ARC
  5
2AD
330
1F
100
AcDbEntity
  8
0
  6
Continuous
 62
     7
370
    25
100
AcDbCircle
 10
188.3241917273
 20
311.2858901939
 30
0.0
 40
7.123999999999937
100
AcDbArc
 50
196.899397122
 51
210.4061197218
  0
LINE
  5
2AE
330
1F
100
AcDbEntity
  8
0
  6
Continuous
 62
     7
370
    25
100
AcDbLine
 10
180.9575569465
 20
309.0041364694
 30
0.0
 11
181.5078299637
 21
309.2149994898
 31
0.0
  0
LINE
  5
2AF
330
1F
100
AcDbEntity
  8
0
  6
Continuous
 62
     7
370
    25
100
AcDbLine
 10
180.364236081
 20
308.8839742786
 30
0.0
 11
180.9575569465
 21
309.0041364694
 31
0.0
  0
LINE
  5
2B0
330
1F
100
AcDbEntity
  8
0
  6
Continuous
 62
     7
370
    25
100
AcDbLine
 10
179.7180796276
 20
308.86733254
 30
0.0
 11
180.364236081
 21
308.8839742786
 31
0.0
  0
LINE
  5
2B1
330
1F
100
AcDbEntity
  8
0
  6
Continuous
 62
     7
370
    25
100
AcDbLine
 10
179.1163120768
 20
308.9575168436
 30
0.0
 11
179.7180796276
 21
308.86733254
 31
0.0
  0
LINE
  5
2B2
330
1F
100
AcDbEntity
  8
0
  6
Continuous
 62
     7
370
    25
100
AcDbLine
 10
178.5472063498
 20
309.1439960965
 30
0.0
 11
179.1163120768
 21
308.9575168436
 31
0.0
  0
LINE
  5
2B3
330
1F
100
AcDbEntity
  8
0
  6
Continuous
 62
     7
370
    25
100
AcDbLine
 10
177.9875177245
 20
309.441121764
 30
0.0
 11
178.5472063498
 21
309.1439960965
 31
0.0
  0
LINE
  5
2B4
330
1F
100
AcDbEntity
  8
0
  6
Continuous
 62
     7
370
    25
100
AcDbLine
 10
177.9436999078
 20
309.7062099776
 30
0.0
 11
177.9875177245
 21
309.441121764
 31
0.0
  0
LINE
  5
2B5
330
1F
100
AcDbEntity
  8
0
  6
Continuous
 62
     7
370
    25
100
AcDbLine
 10
177.906679243
 20
310.135890194
 30
0.0
 11
177.9436999078
 21
309.7062099776
 31
0.0
  0
LINE
  5
2B6
330
1F
100
AcDbEntity
  8
0
  6
Continuous
 62
     7
370
    25
100
AcDbLine
 10
178.3406882445
 20
310.5739831741
 30
0.0
 11
177.906679243
 21
310.135890194
 31
0.0
  0
LINE
  5
2B7
330
1F
100
AcDbEntity
  8
0
  6
Continuous
 62
     7
370
    25
100
AcDbLine
 10
178.8333576888
 20
310.9247262815
 30
0.0
 11
178.3406882445
 21
310.5739831741
 31
0.0
  0
LINE
  5
2B8
330
1F
100
AcDbEntity
  8
0
  6
Continuous
 62
     7
370
    25
100
AcDbLine
 10
179.3882191032
 20
311.034932311
 30
0.0
 11
178.8333576888
 21
310.9247262815
 31
0.0
  0
LINE
  5
2B9
330
1F
100
AcDbEntity
  8
0
  6
Continuous
 62
     7
370
    25
100
AcDbLine
 10
180.0100758156
 20
311.2112540029
 30
0.0
 11
179.3882191032
 21
311.034932311
 31
0.0
  0
LINE
  5
2BA
330
1F
100
AcDbEntity
  8
0
  6
Continuous
 62
     7
370
    25
100
AcDbLine
 10
180.6122825909
 20
311.2730245562
 30
0.0
 11
180.0100758156
 21
311.2112540029
 31
0.0
  0
LINE
  5
2BB
330
1F
100
AcDbEntity
  8
0
  6
Continuous
 62
     7
370
    25
100
AcDbLine
 10
181.2003706869
 20
311.2353948049
 30
0.0
 11
180.6122825909
 21
311.2730245562
 31
0.0
  0
ARC
  5
2BC
330
1F
100
AcDbEntity
  8
0
  6
Continuous
 62
     7
370
    25
100
AcDbCircle
 10
188.3241917273
 20
311.2858901939
 30
0.0
 40
7.12399999999993
100
AcDbArc
 50
166.899397122
 51
180.4061197218
  0
LINE
  5
2BD
330
1F
100
AcDbEntity
  8
0
  6
Continuous
 62
     7
370
    25
100
AcDbLine
 10
180.8036220045
 20
312.9931508938
 30
0.0
 11
181.3856039266
 21
312.9006271174
 31
0.0
  0
LINE
  5
2BE
330
1F
100
AcDbEntity
  8
0
  6
Continuous
 62
     7
370
    25
100
AcDbLine
 10
180.229709967
 20
313.1857478166
 30
0.0
 11
180.8036220045
 21
312.9931508938
 31
0.0
  0
LINE
  5
2BF
330
1F
100
AcDbEntity
  8
0
  6
Continuous
 62
     7
370
    25
100
AcDbLine
 10
179.6618011942
 20
313.494413875
 30
0.0
 11
180.229709967
 21
313.1857478166
 31
0.0
  0
LINE
  5
2C0
330
1F
100
AcDbEntity
  8
0
  6
Continuous
 62
     7
370
    25
100
AcDbLine
 10
179.1857473598
 20
313.8733995483
 30
0.0
 11
179.6618011942
 21
313.494413875
 31
0.0
  0
LINE
  5
2C1
330
1F
100
AcDbEntity
  8
0
  6
Continuous
 62
     7
370
    25
100
AcDbLine
 10
178.7861269692
 20
314.319448182
 30
0.0
 11
179.1857473598
 21
313.8733995483
 31
0.0
  0
LINE
  5
2C2
330
1F
100
AcDbEntity
  8
0
  6
Continuous
 62
     7
370
    25
100
AcDbLine
 10
178.4499852353
 20
314.8566108709
 30
0.0
 11
178.7861269692
 21
314.319448182
 31
0.0
  0
LINE
  5
2C3
330
1F
100
AcDbEntity
  8
0
  6
Continuous
 62
     7
370
    25
100
AcDbLine
 10
178.5445819997
 20
315.1080929064
 30
0.0
 11
178.4499852353
 21
314.8566108709
 31
0.0
  0
LINE
  5
2C4
330
1F
100
AcDbEntity
  8
0
  6
Continuous
 62
     7
370
    25
100
AcDbLine
 10
178.7273612717
 20
315.4987172217
 30
0.0
 11
178.5445819997
 21
315.1080929064
 31
0.0
  0
LINE
  5
2C5
330
1F
100
AcDbEntity
  8
0
  6
Continuous
 62
     7
370
    25
100
AcDbLine
 10
179.3222705825
 20
315.661112371
 30
0.0
 11
178.7273612717
 21
315.4987172217
 31
0.0
  0
LINE
  5
2C6
330
1F
100
AcDbEntity
  8
0
  6
Continuous
 62
     7
370
    25
100
AcDbLine
 10
179.9243063907
 20
315.71853009
 30
0.0
 11
179.3222705825
 21
315.661112371
 31
0.0
  0
LINE
  5
2C7
330
1F
100
AcDbEntity
  8
0
  6
Continuous
 62
     7
370
    25
100
AcDbLine
 10
180.4599334858
 20
315.5365406041
 30
0.0
 11
179.9243063907
 21
315.71853009
 31
0.0
  0
LINE
  5
2C8
330
1F
100
AcDbEntity
  8
0
  6
Continuous
 62
     7
370
    25
100
AcDbLine
 10
181.0866380422
 20
315.3783113123
 30
0.0
 11
180.4599334858
 21
315.5365406041
 31
0.0
  0
LINE
  5
2C9
330
1F
100
AcDbEntity
  8
0
  6
Continuous
 62
     7
370
    25
100
AcDbLine
 10
181.6390496846
 20
315.130702793
 30
0.0
 11
181.0866380422
 21
315.3783113123
 31
0.0
  0
LINE
  5
2CA
330
1F
100
AcDbEntity
  8
0
  6
Continuous
 62
     7
370
    25
100
AcDbLine
 10
182.1295340398
 20
314.8040704245
 30
0.0
 11
181.6390496846
 21
315.130702793
 31
0.0
  0
ARC
  5
2CB
330
1F
100
AcDbEntity
  8
0
  6
Continuous
 62
     7
370
    25
100
AcDbCircle
 10
188.3241917273
 20
311.2858901939
 30
0.0
 40
7.123999999999917
100
AcDbArc
 50
136.899397122
 51
150.4061197218
  0
LINE
  5
2CC
330
1F
100
AcDbEntity
  8
0
  6
Continuous
 62
     7
370
    25
100
AcDbLine
 10
182.6648176463
 20
316.5247061923
 30
0.0
 11
183.1225668873
 21
316.1535872904
 31
0.0
  0
LINE
  5
2CD
330
1F
100
AcDbEntity
  8
0
  6
Continuous
 62
     7
370
    25
100
AcDbLine
 10
182.2640937038
 20
316.9784560389
 30
0.0
 11
182.6648176463
 21
316.5247061923
 31
0.0
  0
LINE
  5
2CE
330
1F
100
AcDbEntity
  8
0
  6
Continuous
 62
     7
370
    25
100
AcDbLine
 10
181.9266033086
 20
317.5297230731
 30
0.0
 11
182.2640937038
 21
316.9784560389
 31
0.0
  0
LINE
  5
2CF
330
1F
100
AcDbEntity
  8
0
  6
Continuous
 62
     7
370
    25
100
AcDbLine
 10
181.7038214312
 20
318.0959612111
 30
0.0
 11
181.9266033086
 21
317.5297230731
 31
0.0
  0
LINE
  5
2D0
330
1F
100
AcDbEntity
  8
0
  6
Continuous
 62
     7
370
    25
100
AcDbLine
 10
181.5807643379
 20
318.6820608545
 30
0.0
 11
181.7038214312
 21
318.0959612111
 31
0.0
  0
LINE
  5
2D1
330
1F
100
AcDbEntity
  8
0
  6
Continuous
 62
     7
370
    25
100
AcDbLine
 10
181.5582384014
 20
319.315328256
 30
0.0
 11
181.5807643379
 21
318.6820608545
 31
0.0
  0
LINE
  5
2D2
330
1F
100
AcDbEntity
  8
0
  6
Continuous
 62
     7
370
    25
100
AcDbLine
 10
181.7659026203
 20
319.4858197052
 30
0.0
 11
181.5582384014
 21
319.315328256
 31
0.0
  0
LINE
  5
2D3
330
1F
100
AcDbEntity
  8
0
  6
Continuous
 62
     7
370
    25
100
AcDbLine
 10
182.1195062708
 20
319.7327206495
 30
0.0
 11
181.7659026203
 21
319.4858197052
 31
0.0
  0
LINE
  5
2D4
330
1F
100
AcDbEntity
  8
0
  6
Continuous
 62
     7
370
    25
100
AcDbLine
 10
182.7159104216
 20
319.5759043189
 30
0.0
 11
182.1195062708
 21
319.7327206495
 31
0.0
  0
LINE
  5
2D5
330
1F
100
AcDbEntity
  8
0
  6
Continuous
 62
     7
370
    25
100
AcDbLine
 10
183.265997585
 20
319.3246116181
 30
0.0
 11
182.7159104216
 21
319.5759043189
 31
0.0
  0
LINE
  5
2D6
330
1F
100
AcDbEntity
  8
0
  6
Continuous
 62
     7
370
    25
100
AcDbLine
 10
183.6388695133
 20
318.8991905525
 30
0.0
 11
183.265997585
 21
319.3246116181
 31
0.0
  0
LINE
  5
2D7
330
1F
100
AcDbEntity
  8
0
  6
Continuous
 62
     7
370
    25
100
AcDbLine
 10
184.102496934
 20
318.4488076879
 30
0.0
 11
183.6388695133
 21
318.8991905525
 31
0.0
  0
LINE
  5
2D8
330
1F
100
AcDbEntity
  8
0
  6
Continuous
 62
     7
370
    25
100
AcDbLine
 10
184.45709519
 20
317.9581665988
 30
0.0
 11
184.102496934
 21
318.4488076879
 31
0.0
  0
LINE
  5
2D9
330
1F
100
AcDbEntity
  8
0
  6
Continuous
 62
     7
370
    25
100
AcDbLine
 10
184.7185509175
 20
317.4300524924
 30
0.0
 11
184.45709519
 21
317.9581665988
 31
0.0
  0
ARC
  5
2DA
330
1F
100
AcDbEntity
  8
0
  6
Continuous
 62
     7
370
    25
100
AcDbCircle
 10
188.3241917273
 20
311.2858901939
 30
0.0
 40
7.123999999999937
100
AcDbArc
 50
106.899397122
 51
120.4061197218
  0
LINE
  5
2DB
330
1F
100
AcDbEntity
  8
0
  6
Continuous
 62
     7
370
    25
100
AcDbLine
 10
186.0424380028
 20
318.6525249747
 30
0.0
 11
186.2533010231
 21
318.1022519574
 31
0.0
  0
LINE
  5
2DC
330
1F
100
AcDbEntity
  8
0
  6
Continuous
 62
     7
370
    25
100
AcDbLine
 10
185.922275812
 20
319.2458458401
 30
0.0
 11
186.0424380028
 21
318.6525249747
 31
0.0
  0
LINE
  5
2DD
330
1F
100
AcDbEntity
  8
0
  6
Continuous
 62
     7
370
    25
100
AcDbLine
 10
185.9056340734
 20
319.8920022936
 30
0.0
 11
185.922275812
 21
319.2458458401
 31
0.0
  0
LINE
  5
2DE
330
1F
100
AcDbEntity
  8
0
  6
Continuous
 62
     7
370
    25
100
AcDbLine
 10
185.995818377
 20
320.4937698444
 30
0.0
 11
185.9056340734
 21
319.8920022936
 31
0.0
  0
LINE
  5
2DF
330
1F
100
AcDbEntity
  8
0
  6
Continuous
 62
     7
370
    25
100
AcDbLine
 10
186.1822976298
 20
321.0628755714
 30
0.0
 11
185.995818377
 21
320.4937698444
 31
0.0
  0
LINE
  5
2E0
330
1F
100
AcDbEntity
  8
0
  6
Continuous
 62
     7
370
    25
100
AcDbLine
 10
186.4794232973
 20
321.6225641967
 30
0.0
 11
186.1822976298
 21
321.0628755714
 31
0.0
  0
LINE
  5
2E1
330
1F
100
AcDbEntity
  8
0
  6
Continuous
 62
     7
370
    25
100
AcDbLine
 10
186.744511511
 20
321.6663820134
 30
0.0
 11
186.4794232973
 21
321.6225641967
 31
0.0
  0
LINE
  5
2E2
330
1F
100
AcDbEntity
  8
0
  6
Continuous
 62
     7
370
    25
100
AcDbLine
 10
187.1741917273
 20
321.7034026782
 30
0.0
 11
186.744511511
 21
321.6663820134
 31
0.0
  0
LINE
  5
2E3
330
1F
100
AcDbEntity
  8
0
  6
Continuous
 62
     7
370
    25
100
AcDbLine
 10
187.6122847075
 20
321.2693936767
 30
0.0
 11
187.1741917273
 21
321.7034026782
 31
0.0
  0
LINE
  5
2E4
330
1F
100
AcDbEntity
  8
0
  6
Continuous
 62
     7
370
    25
100
AcDbLine
 10
187.9630278149
 20
320.7767242323
 30
0.0
 11
187.6122847075
 21
321.2693936767
 31
0.0
  0
LINE
  5
2E5
330
1F
100
AcDbEntity
  8
0
  6
Continuous
 62
     7
370
    25
100
AcDbLine
 10
188.0732338444
 20
320.221862818
 30
0.0
 11
187.9630278149
 21
320.7767242323
 31
0.0
  0
LINE
  5
2E6
330
1F
100
AcDbEntity
  8
0
  6
Continuous
 62
     7
370
    25
100
AcDbLine
 10
188.2495555363
 20
319.6000061056
 30
0.0
 11
188.0732338444
 21
320.221862818
 31
0.0
  0
LINE
  5
2E7
330
1F
100
AcDbEntity
  8
0
  6
Continuous
 62
     7
370
    25
100
AcDbLine
 10
188.3113260896
 20
318.9977993303
 30
0.0
 11
188.2495555363
 21
319.6000061056
 31
0.0
  0
LINE
  5
2E8
330
1F
100
AcDbEntity
  8
0
  6
Continuous
 62
     7
370
    25
100
AcDbLine
 10
188.2736963383
 20
318.4097112343
 30
0.0
 11
188.3113260896
 21
318.9977993303
 31
0.0
  0
ARC
  5
2E9
330
1F
100
AcDbEntity
  8
0
  6
Continuous
 62
     7
370
    25
100
AcDbCircle
 10
188.3241917273
 20
311.2858901939
 30
0.0
 40
7.123999999999965
100
AcDbArc
 50
76.899397122
 51
90.4061197218
  0
LINE
  5
2EA
330
1F
100
AcDbEntity
  8
0
  6
Continuous
 62
     7
370
    25
100
AcDbLine
 10
190.0314524271
 20
318.8064599167
 30
0.0
 11
189.9389286508
 21
318.2244779946
 31
0.0
  0
LINE
  5
2EB
330
1F
100
AcDbEntity
  8
0
  6
Continuous
 62
     7
370
    25
100
AcDbLine
 10
190.22404935
 20
319.3803719542
 30
0.0
 11
190.0314524271
 21
318.8064599167
 31
0.0
  0
LINE
  5
2EC
330
1F
100
AcDbEntity
  8
0
  6
Continuous
 62
     7
370
    25
100
AcDbLine
 10
190.5327154083
 20
319.948280727
 30
0.0
 11
190.22404935
 21
319.3803719542
 31
0.0
  0
LINE
  5
2ED
330
1F
100
AcDbEntity
  8
0
  6
Continuous
 62
     7
370
    25
100
AcDbLine
 10
190.9117010817
 20
320.4243345614
 30
0.0
 11
190.5327154083
 21
319.948280727
 31
0.0
  0
LINE
  5
2EE
330
1F
100
AcDbEntity
  8
0
  6
Continuous
 62
     7
370
    25
100
AcDbLine
 10
191.3577497154
 20
320.8239549519
 30
0.0
 11
190.9117010817
 21
320.4243345614
 31
0.0
  0
LINE
  5
2EF
330
1F
100
AcDbEntity
  8
0
  6
Continuous
 62
     7
370
    25
100
AcDbLine
 10
191.8949124042
 20
321.1600966859
 30
0.0
 11
191.3577497154
 21
320.8239549519
 31
0.0
  0
LINE
  5
2F0
330
1F
100
AcDbEntity
  8
0
  6
Continuous
 62
     7
370
    25
100
AcDbLine
 10
192.1463944398
 20
321.0654999215
 30
0.0
 11
191.8949124042
 21
321.1600966859
 31
0.0
  0
LINE
  5
2F1
330
1F
100
AcDbEntity
  8
0
  6
Continuous
 62
     7
370
    25
100
AcDbLine
 10
192.5370187551
 20
320.8827206495
 30
0.0
 11
192.1463944398
 21
321.0654999215
 31
0.0
  0
LINE
  5
2F2
330
1F
100
AcDbEntity
  8
0
  6
Continuous
 62
     7
370
    25
100
AcDbLine
 10
192.6994139044
 20
320.2878113386
 30
0.0
 11
192.5370187551
 21
320.8827206495
 31
0.0
  0
LINE
  5
2F3
330
1F
100
AcDbEntity
  8
0
  6
Continuous
 62
     7
370
    25
100
AcDbLine
 10
192.7568316234
 20
319.6857755305
 30
0.0
 11
192.6994139044
 21
320.2878113386
 31
0.0
  0
LINE
  5
2F4
330
1F
100
AcDbEntity
  8
0
  6
Continuous
 62
     7
370
    25
100
AcDbLine
 10
192.5748421375
 20
319.1501484354
 30
0.0
 11
192.7568316234
 21
319.6857755305
 31
0.0
  0
LINE
  5
2F5
330
1F
100
AcDbEntity
  8
0
  6
Continuous
 62
     7
370
    25
100
AcDbLine
 10
192.4166128457
 20
318.5234438789
 30
0.0
 11
192.5748421375
 21
319.1501484354
 31
0.0
  0
LINE
  5
2F6
330
1F
100
AcDbEntity
  8
0
  6
Continuous
 62
     7
370
    25
100
AcDbLine
 10
192.1690043264
 20
317.9710322366
 30
0.0
 11
192.4166128457
 21
318.5234438789
 31
0.0
  0
LINE
  5
2F7
330
1F
100
AcDbEntity
  8
0
  6
Continuous
 62
     7
370
    25
100
AcDbLine
 10
191.8423719579
 20
317.4805478814
 30
0.0
 11
192.1690043264
 21
317.9710322366
 31
0.0
  0
ARC
  5
2F8
330
1F
100
AcDbEntity
  8
0
  6
Continuous
 62
     7
370
    25
100
AcDbCircle
 10
188.3241917273
 20
311.2858901939
 30
0.0
 40
7.123999999999997
100
AcDbArc
 50
46.899397122
 51
60.4061197218
  0
LINE
  5
2F9
330
1F
100
AcDbEntity
  8
0
  6
Continuous
 62
     7
370
    25
100
AcDbLine
 10
193.5630077256
 20
316.9452642749
 30
0.0
 11
193.1918888238
 21
316.4875150339
 31
0.0
  0
LINE
  5
2FA
330
1F
100
AcDbEntity
  8
0
  6
Continuous
 62
     7
370
    25
100
AcDbLine
 10
194.0167575723
 20
317.3459882174
 30
0.0
 11
193.5630077256
 21
316.9452642749
 31
0.0
  0
LINE
  5
2FB
330
1F
100
AcDbEntity
  8
0
  6
Continuous
 62
     7
370
    25
100
AcDbLine
 10
194.5680246065
 20
317.6834786126
 30
0.0
 11
194.0167575723
 21
317.3459882174
 31
0.0
  0
LINE
  5
2FC
330
1F
100
AcDbEntity
  8
0
  6
Continuous
 62
     7
370
    25
100
AcDbLine
 10
195.1342627445
 20
317.90626049
 30
0.0
 11
194.5680246065
 21
317.6834786126
 31
0.0
  0
LINE
  5
2FD
330
1F
100
AcDbEntity
  8
0
  6
Continuous
 62
     7
370
    25
100
AcDbLine
 10
195.7203623879
 20
318.0293175832
 30
0.0
 11
195.1342627445
 21
317.90626049
 31
0.0
  0
LINE
  5
2FE
330
1F
100
AcDbEntity
  8
0
  6
Continuous
 62
     7
370
    25
100
AcDbLine
 10
196.3536297894
 20
318.0518435197
 30
0.0
 11
195.7203623879
 21
318.0293175832
 31
0.0
  0
LINE
  5
2FF
330
1F
100
AcDbEntity
  8
0
  6
Continuous
 62
     7
370
    25
100
AcDbLine
 10
196.5241212386
 20
317.8441793008
 30
0.0
 11
196.3536297894
 21
318.0518435197
 31
0.0
  0
LINE
  5
300
330
1F
100
AcDbEntity
  8
0
  6
Continuous
 62
     7
370
    25
100
AcDbLine
 10
196.7710221829
 20
317.4905756503
 30
0.0
 11
196.5241212386
 21
317.8441793008
 31
0.0
  0
LINE
  5
301
330
1F
100
AcDbEntity
  8
0
  6
Continuous
 62
     7
370
    25
100
AcDbLine
 10
196.6142058523
 20
316.8941714995
 30
0.0
 11
196.7710221829
 21
317.4905756503
 31
0.0
  0
LINE
  5
302
330
1F
100
AcDbEntity
  8
0
  6
Continuous
 62
     7
370
    25
100
AcDbLine
 10
196.3629131515
 20
316.3440843362
 30
0.0
 11
196.6142058523
 21
316.8941714995
 31
0.0
  0
LINE
  5
303
330
1F
100
AcDbEntity
  8
0
  6
Continuous
 62
     7
370
    25
100
AcDbLine
 10
195.9374920858
 20
315.9712124078
 30
0.0
 11
196.3629131515
 21
316.3440843362
 31
0.0
  0
LINE
  5
304
330
1F
100
AcDbEntity
  8
0
  6
Continuous
 62
     7
370
    25
100
AcDbLine
 10
195.4871092213
 20
315.5075849872
 30
0.0
 11
195.9374920858
 21
315.9712124078
 31
0.0
  0
LINE
  5
305
330
1F
100
AcDbEntity
  8
0
  6
Continuous
 62
     7
370
    25
100
AcDbLine
 10
194.9964681322
 20
315.1529867312
 30
0.0
 11
195.4871092213
 21
315.5075849872
 31
0.0
  0
LINE
  5
306
330
1F
100
AcDbEntity
  8
0
  6
Continuous
 62
     7
370
    25
100
AcDbLine
 10
194.4683540258
 20
314.8915310037
 30
0.0
 11
194.9964681322
 21
315.1529867312
 31
0.0
  0
ARC
  5
307
330
1F
100
AcDbEntity
  8
0
  6
Continuous
 62
     7
370
    25
100
AcDbCircle
 10
188.3241917273
 20
311.2858901939
 30
0.0
 40
7.124000000000017
100
AcDbArc
 50
16.899397122
 51
30.4061197218
  0
CIRCLE
  5
308
330
1F
100
AcDbEntity
  8
0
  6
Continuous
 62
     7
370
    25
100
AcDbCircle
 10
103.2162426614
 20
150.8649706458
 30
0.0
 40
1.5
  0
CIRCLE
  5
309
330
1F
100
AcDbEntity
  8
0
  6
Continuous
 62
     7
370
    25
100
AcDbCircle
 10
74.2162426614
 20
150.8649706458
 30
0.0
 40
1.5
  0
CIRCLE
  5
30A
330
1F
100
AcDbEntity
  8
0
  6
Continuous
 62
     7
370
    25
100
AcDbCircle
 10
74.2162426614
 20
181.8649706458
 30
0.0
 40
1.5
  0
CIRCLE
  5
30B
330
1F
100
AcDbEntity
  8
0
  6
Continuous
 62
     7
370
    25
100
AcDbCircle
 10
103.2162426614
 20
181.8649706458
 30
0.0
 40
1.5
  0
LINE
  5
30C
330
1F
100
AcDbEntity
  8
0
  6
Continuous
 62
     7
370
    25
100
AcDbLine
 10
152.1547767822
 20
103.426436525
 30
0.0
 11
152.1547767822
 21
230.3035047666
 31
0.0
  0
LINE
  5
30D
330
1F
100
AcDbEntity
  8
0
  6
Continuous
 62
     7
370
    25
100
AcDbLine
 10
25.2777085407
 20
103.426436525
 30
0.0
 11
152.1547767822
 21
103.426436525
 31
0.0
  0
LINE
  5
30E
330
1F
100
AcDbEntity
  8
0
  6
Continuous
 62
     7
370
    25
100
AcDbLine
 10
25.2777085407
 20
230.3035047666
 30
0.0
 11
25.2777085407
 21
103.426436525
 31
0.0
  0
LINE
  5
30F
330
1F
100
AcDbEntity
  8
0
  6
Continuous
 62
     7
370
    25
100
AcDbLine
 10
152.1547767822
 20
230.3035047666
 30
0.0
 11
25.2777085407
 21
230.3035047666
 31
0.0
  0
ARC
  5
310
330
1F
100
AcDbEntity
  8
0
  6
Continuous
 62
     7
370
    25
100
AcDbCircle
 10
88.7162426614
 20
166.8649706458
 30
0.0
 40
35.00000000000001
100
AcDbArc
 50
180.0
 51
0.0
  0
LINE
  5
311
330
1F
100
AcDbEntity
  8
0
  6
Continuous
 62
     7
370
    25
100
AcDbLine
 10
53.7162426614
 20
166.8649706458
 30
0.0
 11
49.7162426614
 21
166.8649706458
 31
0.0
  0
ARC
  5
312
330
1F
100
AcDbEntity
  8
0
  6
Continuous
 62
     7
370
    25
100
AcDbCircle
 10
88.7162426614
 20
166.8649706458
 30
0.0
 40
39.00000000000001
100
AcDbArc
 50
180.0
 51
0.0
  0
LINE
  5
313
330
1F
100
AcDbEntity
  8
0
  6
Continuous
 62
     7
370
    25
100
AcDbLine
 10
127.7162426614
 20
166.8649706458
 30
0.0
 11
123.7162426614
 21
166.8649706458
 31
0.0
  0
ENDSEC
  0
SECTION
  2
OBJECTS
  0
DICTIONARY
  5
C
330
0
100
AcDbDictionary
281
     1
  3
ACAD_GROUP
350
D
  3
ACAD_LAYOUT
350
1A
  3
ACAD_MLINESTYLE
350
17
  3
ACAD_PLOTSETTINGS
350
19
  3
ACAD_PLOTSTYLENAME
350
E
  3
ACAD_SCALELIST
350
47
  0
DICTIONARY
  5
D
102
{ACAD_REACTORS
330
C
102
}
330
C
100
AcDbDictionary
281
     1
  0
DICTIONARY
  5
1A
102
{ACAD_REACTORS
330
C
102
}
330
C
100
AcDbDictionary
281
     1
  3
Layout1
350
1E
  3
Layout2
350
26
  3
Model
350
22
  0
DICTIONARY
  5
17
102
{ACAD_REACTORS
330
C
102
}
330
C
100
AcDbDictionary
281
     1
  3
Standard
350
18
  0
DICTIONARY
  5
19
102
{ACAD_REACTORS
330
C
102
}
330
C
100
AcDbDictionary
281
     1
  0
ACDBDICTIONARYWDFLT
  5
E
102
{ACAD_REACTORS
330
C
102
}
330
C
100
AcDbDictionary
281
     1
  3
Normal
350
F
100
AcDbDictionaryWithDefault
340
F
  0
DICTIONARY
  5
47
102
{ACAD_REACTORS
330
C
102
}
330
C
100
AcDbDictionary
281
     1
  3
A0
350
48
  3
A1
350
49
  3
A2
350
4A
  3
A3
350
4B
  3
A4
350
4C
  3
A5
350
4D
  3
A6
350
4E
  3
A7
350
4F
  3
A8
350
50
  3
A9
350
51
  3
B0
350
52
  3
B1
350
53
  3
B2
350
54
  3
B3
350
55
  3
B4
350
56
  3
B5
350
57
  3
B6
350
58
  3
B7
350
59
  3
B8
350
5A
  3
B9
350
5B
  3
C0
350
5C
  3
C1
350
5D
  3
C2
350
5E
  3
C3
350
5F
  3
C4
350
60
  3
C5
350
61
  3
C6
350
62
  3
C7
350
63
  3
C8
350
64
  3
C9
350
65
  3
D0
350
66
  3
D1
350
67
  3
D2
350
68
  0
LAYOUT
  5
1E
102
{ACAD_REACTORS
330
1A
102
}
330
1A
100
AcDbPlotSettings
  1

  2
none_device
  4

  6

 40
0.0
 41
0.0
 42
0.0
 43
0.0
 44
0.0
 45
0.0
 46
0.0
 47
0.0
 48
0.0
 49
0.0
140
0.0
141
0.0
142
1.0
143
1.0
 70
   688
 72
     1
 73
     0
 74
     5
  7

 75
    16
147
1.0
148
0.0
149
0.0
100
AcDbLayout
  1
Layout1
 70
     1
 71
     1
 10
0.0
 20
0.0
 11
420.0
 21
297.0
 12
0.0
 22
0.0
 32
0.0
 14
1.0000000000E+20
 24
1.0000000000E+20
 34
1.0000000000E+20
 15
-1.0000000000E+20
 25
-1.0000000000E+20
 35
-1.0000000000E+20
146
0.0
 13
0.0
 23
0.0
 33
0.0
 16
1.0
 26
0.0
 36
0.0
 17
0.0
 27
1.0
 37
0.0
 76
     0
330
1B
  0
LAYOUT
  5
26
102
{ACAD_REACTORS
330
1A
102
}
330
1A
100
AcDbPlotSettings
  1

  2
none_device
  4

  6

 40
0.0
 41
0.0
 42
0.0
 43
0.0
 44
0.0
 45
0.0
 46
0.0
 47
0.0
 48
0.0
 49
0.0
140
0.0
141
0.0
142
1.0
143
1.0
 70
   688
 72
     1
 73
     0
 74
     5
  7

 75
    16
147
1.0
148
0.0
149
0.0
100
AcDbLayout
  1
Layout2
 70
     1
 71
     2
 10
0.0
 20
0.0
 11
0.0
 21
0.0
 12
0.0
 22
0.0
 32
0.0
 14
0.0
 24
0.0
 34
0.0
 15
0.0
 25
0.0
 35
0.0
146
0.0
 13
0.0
 23
0.0
 33
0.0
 16
1.0
 26
0.0
 36
0.0
 17
0.0
 27
1.0
 37
0.0
 76
     0
330
23
  0
LAYOUT
  5
22
102
{ACAD_REACTORS
330
1A
102
}
330
1A
100
AcDbPlotSettings
  1

  2
none_device
  4
Letter_(8.50_x_11.00_Inches)
  6

 40
6.35
 41
6.35
 42
6.35000508
 43
6.35000508
 44
215.9
 45
279.4
 46
0.0
 47
0.0
 48
0.0
 49
0.0
140
0.0
141
0.0
142
1.0
143
1.0
 70
  1712
 72
     1
 73
     0
 74
     0
  7

 75
     0
147
1.0
148
0.0
149
0.0
100
AcDbLayout
  1
Model
 70
     1
 71
     0
 10
0.0
 20
0.0
 11
500.0
 21
400.0
 12
0.0
 22
0.0
 32
0.0
 14
0.0
 24
0.0
 34
0.0
 15
500.0
 25
400.0
 35
0.0
146
0.0
 13
0.0
 23
0.0
 33
0.0
 16
1.0
 26
0.0
 36
0.0
 17
0.0
 27
1.0
 37
0.0
 76
     0
330
1F
331
29
  0
MLINESTYLE
  5
18
102
{ACAD_REACTORS
330
17
102
}
330
17
100
AcDbMlineStyle
  2
Standard
 70
     0
  3

 62
   256
 51
90.0
 52
90.0
 71
     2
 49
0.5
 62
   256
  6
BYLAYER
 49
-0.5
 62
   256
  6
BYLAYER
  0
ACDBPLACEHOLDER
  5
F
102
{ACAD_REACTORS
330
E
102
}
330
E
  0
SCALE
  5
48
102
{ACAD_REACTORS
330
47
102
}
330
47
100
AcDbScale
 70
     0
300
1:1
140
1.0
141
1.0
290
     1
  0
SCALE
  5
49
102
{ACAD_REACTORS
330
47
102
}
330
47
100
AcDbScale
 70
     0
300
1:2
140
1.0
141
2.0
290
     0
  0
SCALE
  5
4A
102
{ACAD_REACTORS
330
47
102
}
330
47
100
AcDbScale
 70
     0
300
1:4
140
1.0
141
4.0
290
     0
  0
SCALE
  5
4B
102
{ACAD_REACTORS
330
47
102
}
330
47
100
AcDbScale
 70
     0
300
1:5
140
1.0
141
5.0
290
     0
  0
SCALE
  5
4C
102
{ACAD_REACTORS
330
47
102
}
330
47
100
AcDbScale
 70
     0
300
1:8
140
1.0
141
8.0
290
     0
  0
SCALE
  5
4D
102
{ACAD_REACTORS
330
47
102
}
330
47
100
AcDbScale
 70
     0
300
1:10
140
1.0
141
10.0
290
     0
  0
SCALE
  5
4E
102
{ACAD_REACTORS
330
47
102
}
330
47
100
AcDbScale
 70
     0
300
1:16
140
1.0
141
16.0
290
     0
  0
SCALE
  5
4F
102
{ACAD_REACTORS
330
47
102
}
330
47
100
AcDbScale
 70
     0
300
1:20
140
1.0
141
20.0
290
     0
  0
SCALE
  5
50
102
{ACAD_REACTORS
330
47
102
}
330
47
100
AcDbScale
 70
     0
300
1:30
140
1.0
141
30.0
290
     0
  0
SCALE
  5
51
102
{ACAD_REACTORS
330
47
102
}
330
47
100
AcDbScale
 70
     0
300
1:40
140
1.0
141
40.0
290
     0
  0
SCALE
  5
52
102
{ACAD_REACTORS
330
47
102
}
330
47
100
AcDbScale
 70
     0
300
1:50
140
1.0
141
50.0
290
     0
  0
SCALE
  5
53
102
{ACAD_REACTORS
330
47
102
}
330
47
100
AcDbScale
 70
     0
300
1:100
140
1.0
141
100.0
290
     0
  0
SCALE
  5
54
102
{ACAD_REACTORS
330
47
102
}
330
47
100
AcDbScale
 70
     0
300
2:1
140
2.0
141
1.0
290
     0
  0
SCALE
  5
55
102
{ACAD_REACTORS
330
47
102
}
330
47
100
AcDbScale
 70
     0
300
4:1
140
4.0
141
1.0
290
     0
  0
SCALE
  5
56
102
{ACAD_REACTORS
330
47
102
}
330
47
100
AcDbScale
 70
     0
300
8:1
140
8.0
141
1.0
290
     0
  0
SCALE
  5
57
102
{ACAD_REACTORS
330
47
102
}
330
47
100
AcDbScale
 70
     0
300
10:1
140
10.0
141
1.0
290
     0
  0
SCALE
  5
58
102
{ACAD_REACTORS
330
47
102
}
330
47
100
AcDbScale
 70
     0
300
100:1
140
100.0
141
1.0
290
     0
  0
SCALE
  5
59
102
{ACAD_REACTORS
330
47
102
}
330
47
100
AcDbScale
 70
     0
300
1/128" = 1'-0"
140
0.0078125
141
12.0
290
     0
  0
SCALE
  5
5A
102
{ACAD_REACTORS
330
47
102
}
330
47
100
AcDbScale
 70
     0
300
1/64" = 1'-0"
140
0.015625
141
12.0
290
     0
  0
SCALE
  5
5B
102
{ACAD_REACTORS
330
47
102
}
330
47
100
AcDbScale
 70
     0
300
1/32" = 1'-0"
140
0.03125
141
12.0
290
     0
  0
SCALE
  5
5C
102
{ACAD_REACTORS
330
47
102
}
330
47
100
AcDbScale
 70
     0
300
1/16" = 1'-0"
140
0.0625
141
12.0
290
     0
  0
SCALE
  5
5D
102
{ACAD_REACTORS
330
47
102
}
330
47
100
AcDbScale
 70
     0
300
3/32" = 1'-0"
140
0.09375
141
12.0
290
     0
  0
SCALE
  5
5E
102
{ACAD_REACTORS
330
47
102
}
330
47
100
AcDbScale
 70
     0
300
1/8" = 1'-0"
140
0.125
141
12.0
290
     0
  0
SCALE
  5
5F
102
{ACAD_REACTORS
330
47
102
}
330
47
100
AcDbScale
 70
     0
300
3/16" = 1'-0"
140
0.1875
141
12.0
290
     0
  0
SCALE
  5
60
102
{ACAD_REACTORS
330
47
102
}
330
47
100
AcDbScale
 70
     0
300
1/4" = 1'-0"
140
0.25
141
12.0
290
     0
  0
SCALE
  5
61
102
{ACAD_REACTORS
330
47
102
}
330
47
100
AcDbScale
 70
     0
300
3/8" = 1'-0"
140
0.375
141
12.0
290
     0
  0
SCALE
  5
62
102
{ACAD_REACTORS
330
47
102
}
330
47
100
AcDbScale
 70
     0
300
1/2" = 1'-0"
140
0.5
141
12.0
290
     0
  0
SCALE
  5
63
102
{ACAD_REACTORS
330
47
102
}
330
47
100
AcDbScale
 70
     0
300
3/4" = 1'-0"
140
0.75
141
12.0
290
     0
  0
SCALE
  5
64
102
{ACAD_REACTORS
330
47
102
}
330
47
100
AcDbScale
 70
     0
300
1" = 1'-0"
140
1.0
141
12.0
290
     0
  0
SCALE
  5
65
102
{ACAD_REACTORS
330
47
102
}
330
47
100
AcDbScale
 70
     0
300
1-1/2" = 1'-0"
140
1.5
141
12.0
290
     0
  0
SCALE
  5
66
102
{ACAD_REACTORS
330
47
102
}
330
47
100
AcDbScale
 70
     0
300
3" = 1'-0"
140
3.0
141
12.0
290
     0
  0
SCALE
  5
67
102
{ACAD_REACTORS
330
47
102
}
330
47
100
AcDbScale
 70
     0
300
6" = 1'-0"
140
6.0
141
12.0
290
     0
  0
SCALE
  5
68
102
{ACAD_REACTORS
330
47
102
}
330
47
100
AcDbScale
 70
     0
300
1'-0" = 1'-0"
140
12.0
141
12.0
290
     0
  0
ENDSEC
  0
EOF
